<svg height="512pt" viewBox="0 0 512 512" width="512pt" xmlns="http://www.w3.org/2000/svg"><path d="m468.550781 511.96875c1.097657 0 2.152344-.464844 2.863281-1.300781 10.53125-12.371094 16.890626-28.429688 16.890626-45.976563 0-7.480468-1.160157-14.6875-3.300782-21.453125-.570312-1.792969.269532-3.699219 1.949219-4.542969 14.851563-7.46875 25.046875-22.878906 25.046875-40.683593 0-19.3125-11.996094-35.808594-28.917969-42.40625-2.246093-.871094-3.1875-3.542969-1.886719-5.566407 7.105469-11.054687 11.230469-24.21875 11.230469-38.347656 0-23.925781-11.828125-45.066406-29.933593-57.886718-2.101563-1.488282-2.152344-4.601563-.074219-6.121094 11.316406-8.269532 18.675781-21.664063 18.675781-36.789063 0-16.191406-8.4375-30.398437-21.136719-38.457031-1.792969-1.136719-2.277343-3.53125-1.089843-5.289062 4.925781-7.277344 7.804687-16.058594 7.804687-25.515626 0-21.59375-14.992187-39.667968-35.101563-44.320312-1.757812-.40625-3.015624-1.949219-3.015624-3.753906 0-36.253906-29.289063-65.644532-65.417969-65.644532-8.304688 0-16.246094 1.5625-23.558594 4.402344-1.960937.761719-4.164063-.277344-4.875-2.257812-6.296875-17.527344-23.011719-30.058594-42.648437-30.058594-13.152344 0-24.992188 5.625-33.273438 14.609375-1.5 1.628906-4.0625 1.628906-5.566406 0-8.277344-8.984375-20.117188-14.609375-33.273438-14.609375-19.632812 0-36.351562 12.53125-42.644531 30.058594-.714844 1.980468-2.914063 3.019531-4.878906 2.257812-7.308594-2.835937-15.25-4.402344-23.558594-4.402344-36.128906 0-65.414063 29.386719-65.414063 65.644532 0 1.804687-1.257812 3.347656-3.015624 3.753906-20.109376 4.652344-35.101563 22.726562-35.101563 44.320312 0 9.457032 2.878906 18.238282 7.804687 25.515626 1.1875 1.757812.699219 4.152343-1.089843 5.289062-12.699219 8.058594-21.136719 22.265625-21.136719 38.457031 0 15.125 7.355469 28.519531 18.671875 36.789063 2.082031 1.519531 2.03125 4.632812-.074219 6.121094-18.101562 12.820312-29.929687 33.960937-29.929687 57.886718 0 14.128906 4.121093 27.292969 11.230469 38.347656 1.300781 2.023438.355468 4.695313-1.886719 5.566407-16.921875 6.597656-28.917969 23.09375-28.917969 42.40625 0 17.804687 10.195312 33.214843 25.046875 40.683593 1.683594.84375 2.519531 2.746094 1.949219 4.539063-2.140625 6.769531-3.300782 13.976563-3.300782 21.457031 0 19.746094 8.050782 33.589844 21.039063 46.214844.707031.683594 1.65625 1.0625 2.640625 1.0625zm0 0" fill="#09a66d"/><path d="m486.953125 438.695312c14.851563-7.46875 25.046875-22.878906 25.046875-40.683593 0-19.3125-11.996094-35.808594-28.917969-42.40625-2.246093-.875-3.1875-3.546875-1.886719-5.570313 7.105469-11.050781 11.230469-24.214844 11.230469-38.347656 0-23.921875-11.828125-45.066406-29.933593-57.882812-2.101563-1.492188-2.152344-4.601563-.074219-6.125 11.316406-8.265626 18.675781-21.664063 18.675781-36.785157 0-16.195312-8.4375-30.402343-21.136719-38.460937-1.792969-1.136719-2.277343-3.53125-1.089843-5.285156 4.925781-7.277344 7.804687-16.0625 7.804687-25.519532 0-21.59375-14.992187-39.664062-35.101563-44.320312-1.757812-.40625-3.015624-1.945313-3.015624-3.753906 0-36.253907-29.289063-65.644532-65.417969-65.644532-5.871094 0-11.554688.796875-16.96875 2.257813 27.871093 7.519531 48.390625 33.042969 48.390625 63.386719 0 1.804687 1.257812 3.347656 3.015625 3.753906 20.109375 4.652344 35.101562 22.726562 35.101562 44.320312 0 9.457032-2.878906 18.242188-7.804687 25.519532-1.1875 1.753906-.699219 4.148437 1.089844 5.285156 12.699218 8.058594 21.136718 22.265625 21.136718 38.460937 0 15.125-7.355468 28.519531-18.671875 36.785157-2.082031 1.523437-2.03125 4.636718.074219 6.125 18.101562 12.816406 29.933594 33.960937 29.933594 57.882812 0 14.132812-4.125 27.296875-11.234375 38.347656-1.300781 2.023438-.355469 4.695313 1.886719 5.570313 16.921874 6.597656 28.917968 23.09375 28.917968 42.40625 0 17.804687-10.195312 33.214843-25.046875 40.683593-1.679687.84375-2.515625 2.746094-1.949219 4.539063 2.144532 6.769531 3.304688 13.976563 3.304688 21.457031 0 17.546875-6.359375 33.605469-16.894531 45.972656-.710938.839844-1.765625 1.304688-2.863281 1.304688h33.992187c1.101563 0 2.15625-.46875 2.867187-1.304688 10.53125-12.371093 16.890626-28.425781 16.890626-45.972656 0-7.480468-1.160157-14.6875-3.304688-21.457031-.566406-1.792969.269531-3.695313 1.953125-4.539063zm0 0" fill="#028f5d"/><path d="m352.542969 202.613281h16.480469c16.699218 0 30.234374 13.535157 30.234374 30.234375 0 16.699219-13.535156 30.234375-30.234374 30.234375h-16.480469zm0 0" fill="#baeb6c"/><path d="m158.957031 202.613281h-16.480469c-16.699218 0-30.234374 13.535157-30.234374 30.234375 0 16.699219 13.535156 30.234375 30.234374 30.234375h16.480469zm0 0" fill="#baeb6c"/><path d="m221.65625 344.898438c0 23.128906-15.027344 43.5625-37.097656 50.472656-6.003906 1.878906-12.195313 3.769531-18.117188 5.503906-30.960937 9.0625-53.261718 38.164062-53.261718 72.101562v38.992188h285.140624v-38.992188c0-33.4375-22.132812-60.75-51.910156-71.671874-7.84375-2.878907-14.996094-5.367188-21.375-7.496094-21-7.015625-35.191406-26.632813-35.191406-48.773438v-.132812l.152344-19.898438h-69.019532zm0 0" fill="#baeb6c"/><path d="m346.410156 401.304688c-7.84375-2.878907-14.996094-5.367188-21.375-7.5-21-7.015626-35.191406-26.628907-35.191406-48.769532v-.136718l.152344-19.894532h-33.996094l-.152344 19.894532v.136718c0 22.140625 14.195313 41.753906 35.195313 48.769532 6.378906 2.132812 13.53125 4.621093 21.375 7.5 29.777343 10.921874 51.910156 38.230468 51.910156 71.671874v38.992188h33.992187v-38.992188c0-33.4375-22.132812-60.75-51.910156-71.671874zm0 0" fill="#96d629"/><path d="m361.675781 174.246094v67.632812c0 58.492188-47.417969 105.914063-105.914062 105.914063h-.023438c-58.496093 0-105.914062-47.421875-105.914062-105.914063v-67.632812c0-.597656.011719-1.195313.035156-1.789063 1.136719-28.066406 29.914063-46.539062 56.308594-36.929687l29.382812 10.699218c12.878907 4.691407 26.996094 4.707032 39.886719.054688l29.960938-10.816406c26.394531-9.53125 55.105468 8.953125 56.242187 36.992187.023437.59375.035156 1.191407.035156 1.789063zm0 0" fill="#baeb6c"/><path d="m361.640625 172.457031c-1.136719-28.039062-29.847656-46.523437-56.242187-36.992187l-2.746094.992187c13.890625 6.035157 24.320312 19.328125 24.996094 36 .023437.59375.035156 1.191407.035156 1.792969v67.628906c0 52.714844-38.511719 96.425782-88.929688 104.554688 5.53125.890625 11.199219 1.359375 16.984375 1.359375h.023438c58.496093 0 105.914062-47.417969 105.914062-105.914063v-67.628906c0-.601562-.011719-1.199219-.035156-1.792969zm0 0" fill="#96d629"/><path d="m236.367188 235.128906c-4.265626 0-7.726563-3.457031-7.726563-7.726562 0-9.019532-7.335937-16.359375-16.355469-16.359375-9.023437 0-16.359375 7.339843-16.359375 16.359375 0 4.269531-3.460937 7.726562-7.726562 7.726562-4.269531 0-7.726563-3.457031-7.726563-7.726562 0-17.539063 14.269532-31.808594 31.8125-31.808594 17.539063 0 31.808594 14.269531 31.808594 31.808594 0 4.269531-3.457031 7.726562-7.726562 7.726562zm0 0" fill="#09a66d"/><path d="m323.300781 235.128906c-4.265625 0-7.722656-3.457031-7.722656-7.726562 0-9.019532-7.339844-16.359375-16.359375-16.359375s-16.359375 7.339843-16.359375 16.359375c0 4.269531-3.460937 7.726562-7.726563 7.726562-4.269531 0-7.726562-3.457031-7.726562-7.726562 0-17.539063 14.269531-31.808594 31.8125-31.808594 17.539062 0 31.808594 14.269531 31.808594 31.808594 0 4.269531-3.457032 7.726562-7.726563 7.726562zm0 0" fill="#09a66d"/><path d="m435.207031 32.957031c-2.71875 13.554688-18.398437 22.109375-18.398437 22.109375s-10.65625-13.839844-7.9375-27.394531 18.089844-21.898437 18.089844-21.898437 10.964843 13.628906 8.246093 27.183593zm0 0" fill="#49cb5c"/><path d="m445.820312 79.378906c-18.214843-3.652344-29.117187-24.246094-29.117187-24.246094s18-14.800781 36.214844-11.148437c18.214843 3.65625 29.429687 24.3125 29.429687 24.3125s-18.316406 14.734375-36.527344 11.082031zm0 0" fill="#49cb5c"/><path d="m344.320312 511.96875c0-24.3125-19.710937-44.023438-44.023437-44.023438-24.316406 0-44.027344 19.710938-44.027344 44.023438h-.539062c0-24.3125-19.710938-44.023438-44.023438-44.023438-24.316406 0-44.023437 19.710938-44.023437 44.023438" fill="#96d629"/><g fill="#49cb5c"><path d="m116.058594 396.835938c13.304687 3.753906 20.625 20.050781 20.625 20.050781s-14.621094 9.554687-27.925782 5.800781c-13.304687-3.753906-20.441406-19.726562-20.441406-19.726562s14.4375-9.878907 27.742188-6.125zm0 0"/><path d="m163.160156 389.835938c-5.046875 17.878906-26.417968 27.160156-26.417968 27.160156s-13.367188-19.085938-8.320313-36.964844 26.507813-27.46875 26.507813-27.46875 13.277343 19.394531 8.230468 37.273438zm0 0"/><path d="m75.773438 61.84375c11.144531 13.039062 7.472656 34.898438 7.472656 34.898438s-21.671875-.207032-32.8125-13.25c-11.140625-13.042969-7.503906-34.4375-7.503906-34.4375s21.703124-.253907 32.84375 12.789062zm0 0"/><path d="m397.558594 342.726562c8.273437 11.078126 4.171875 28.464844 4.171875 28.464844s-17.417969-1.3125-25.691407-12.386718c-8.273437-11.078126-4.21875-28.09375-4.21875-28.09375s17.464844.941406 25.738282 12.015624zm0 0"/><path d="m181.136719 60.023438c-4.113281 13.195312-20.605469 20.074218-20.605469 20.074218s-9.152344-14.875-5.039062-28.074218c4.117187-13.195313 20.277343-19.894532 20.277343-19.894532s9.484375 14.699219 5.367188 27.894532zm0 0"/><path d="m471.324219 390.558594c-12.875 14.21875-37.640625 13.265625-37.640625 13.265625s-2.863282-24.066407 10.011718-38.28125c12.875-14.21875 37.125-13.238281 37.125-13.238281s3.375 24.035156-9.496093 38.253906zm0 0"/></g></svg>