<svg height="512pt" viewBox="0 -1 512 512" width="512pt" xmlns="http://www.w3.org/2000/svg"><path d="m372.925781 0c-49.050781 0-92.164062 28.992188-116.925781 72.78125-24.761719-43.789062-67.875-72.78125-116.925781-72.78125-76.808594 0-139.074219 71.085938-139.074219 158.773438 0 225.808593 256 351.652343 256 351.652343s256-121.136719 256-351.652343c0-87.6875-62.265625-158.773438-139.074219-158.773438zm0 0" fill="#49cb5c"/><path d="m372.925781 0c-7.726562 0-15.304687.722656-22.6875 2.105469 66.039063 12.347656 116.433594 77.78125 116.433594 156.667969 0 187.921874-170.128906 303.148437-233.003906 339.3125 13.859375 8.171874 22.332031 12.339843 22.332031 12.339843s256-121.136719 256-351.652343c0-87.6875-62.265625-158.773438-139.074219-158.773438zm0 0" fill="#07b128"/><path d="m387.480469 255.484375c0 72.613281-58.867188 131.480469-131.480469 131.480469s-131.480469-58.867188-131.480469-131.480469 58.867188-131.480469 131.480469-131.480469 131.480469 58.867188 131.480469 131.480469zm0 0" fill="#89c8fd"/><path d="m256 124.003906c-7.730469 0-15.300781.671875-22.664062 1.953125 61.8125 10.738281 108.816406 64.640625 108.816406 129.527344 0 64.882813-47.003906 118.785156-108.816406 129.527344 7.363281 1.28125 14.933593 1.953125 22.664062 1.953125 72.613281 0 131.480469-58.867188 131.480469-131.480469s-58.867188-131.480469-131.480469-131.480469zm0 0" fill="#60b6ff"/><path d="m264.644531 124.292969c-.269531.109375-.417969.171875-.417969.171875s-5.0625 37.976562-25.316406 50.636718c-20.253906 12.660157-35.445312 32.910157-24.050781 55.699219 11.390625 22.785157 36.710937 13.925781 60.128906 10.757813 23.417969-3.164063 5.695313 68.992187 19.621094 86.714844 13.921875 17.722656 53.164063-17.722657 49.367187-40.507813-5.621093-33.738281-7.59375-45.570313 37.976563-69.625 0 0 .050781.003906.136719 0-15.308594-51.773437-61.625-90.222656-117.445313-93.847656zm0 0" fill="#baeb6c"/><path d="m168.65625 314.980469c-6.082031-9.253907 10.757812-31.015625 14.554688-47.46875 3.800781-16.457031-18.988282-15.191407-25.949219-20.886719-6.960938-5.699219-16.457031-30.382812-23.417969-36.078125 0 0-.949219 1.007813-2.472656 2.941406-4.441406 13.1875-6.851563 27.308594-6.851563 41.996094 0 42.199219 19.882813 79.75 50.789063 103.808594 1.808594-.339844 2.839844-.640625 2.839844-.640625s5.0625-21.519532-9.492188-43.671875zm0 0" fill="#baeb6c"/><path d="m473.875 153.496094c-3.710938 0-6.984375-2.675782-7.613281-6.457032-6.035157-36.21875-20.566407-64.367187-43.1875-83.65625-16.859375-14.378906-32.214844-18.230468-32.367188-18.265624-4.136719-1.007813-6.695312-5.167969-5.707031-9.308594.984375-4.136719 5.117188-6.703125 9.261719-5.730469.746093.175781 18.5 4.472656 38.101562 20.917969 17.796875 14.9375 40.769531 43.28125 49.140625 93.503906.703125 4.207031-2.144531 8.1875-6.351562 8.890625-.429688.070313-.855469.105469-1.277344.105469zm0 0" fill="#028f5d"/><g fill="#96d629"><path d="m342.136719 254.085938c3.082031-12.277344 13.554687-22.082032 39.816406-35.945313h.136719c-4.304688-14.558594-11.0625-28.066406-19.796875-40.042969-22.316407-30.601562-57.53125-51.199218-97.648438-53.804687-.269531.109375-.417969.171875-.417969.171875s-.550781 4.105468-2 10.046875c46.582032 19.875 79.347657 65.859375 79.910157 119.574219zm0 0"/><path d="m343.976562 287.761719c-1.132812-6.804688-2.117187-12.71875-2.59375-18.019531-2.257812 20.941406-9.429687 40.410156-20.34375 57.226562 13.199219-9 25.113282-26.171875 22.9375-39.207031zm0 0"/></g></svg>