<svg height="512pt" viewBox="0 -9 512.00003 512" width="512pt" xmlns="http://www.w3.org/2000/svg"><path d="m102.441406 111.140625 55.691406-93.578125c6.46875-10.875 18.207032-17.5117188 30.859376-17.449219l94.890624.457031-96.6875 161.371094zm0 0" fill="#49cb5c"/><path d="m386.109375 163.117188 41.820313-98.636719-30.855469 18.496093-37.195313-64.90625c-6.398437-11.167968-18.308594-18.0273432-31.179687-17.957031l-133.933594-.113281h18.109375c12.417969.128906 23.875 7.683594 30.261719 18.335938l69.183593 115.441406-32.898437 19.71875zm0 0" fill="#baeb6c"/><path d="m397.074219 82.976562-37.195313-64.90625c-6.398437-11.167968-18.308594-18.0273432-31.179687-17.957031h-45.328125c12.871094-.0703122 24.78125 6.789063 31.179687 17.957031l50.648438 87.167969-22.75 53.941407 43.65625 3.9375 41.820312-98.636719zm0 0" fill="#96d629"/><path d="m194.765625 0 18.433594.015625c-.109375-.0039062-.214844-.015625-.324219-.015625zm0 0" fill="#96d629"/><path d="m454.273438 187.839844 53.175781 95.027344c6.179687 11.042968 6.058593 24.53125-.320313 35.457031l-47.84375 81.964843-91.375-164.4375zm0 0" fill="#49cb5c"/><path d="m507.449219 282.871094-53.175781-95.03125-34.574219 19.21875 42.421875 75.8125c6.179687 11.039062 6.058594 24.527344-.320313 35.453125l-24.621093 42.183593 22.105468 39.78125 47.84375-81.964843c6.378906-10.925781 6.5-24.414063.320313-35.453125zm0 0" fill="#22b27f"/><path d="m267.429688 407.558594 64.492187 85.542968-.585937-35.972656 74.796874.238282c12.867188.039062 24.761719-6.847657 31.136719-18.027344l58.015625-100.273438c-6.890625 13.378906-18.59375 19.042969-31.007812 19.246094h-134.546875l-.621094-38.355469zm0 0" fill="#baeb6c"/><path d="m493.453125 342.234375c.636719-1.007813 1.257813-2.050781 1.832031-3.167969zm0 0" fill="#96d629"/><path d="m464.277344 358.316406h-25.457032l-46.878906 81.023438c-5.867187 10.296875-16.425781 16.9375-28.109375 17.890625l42.300781.136719c12.867188.039062 24.765626-6.847657 31.136719-18.027344l56.183594-97.105469c-7.027344 11.097656-17.796875 15.894531-29.175781 16.082031zm0 0" fill="#96d629"/><path d="m217.109375 457.570312-108.875.613282c-12.652344.070312-24.398437-6.558594-30.875-17.425782l-48.601563-81.519531 188.09375-.496093zm0 0" fill="#49cb5c"/><path d="m115.160156 187.75-106.046875 15.105469 31.765625 16.882812-36.371094 65.367188c-6.257812 11.246093-5.984374 24.992187.71875 35.976562l69.054688 114.789063-9.347656-15.511719c-6.300782-10.703125-5.75-24.421875.078125-35.390625l63.125-118.863281 33.867187 18zm0 0" fill="#baeb6c"/></svg>