<svg height="512pt" viewBox="0 -3 512 512" width="512pt" xmlns="http://www.w3.org/2000/svg"><path d="m281.246094 165.898438h-191.511719c-41.214844 0-74.742187-33.847657-74.742187-75.453126 0-41.605468 33.527343-75.453124 74.742187-75.453124 4.136719 0 7.496094-3.355469 7.496094-7.496094s-3.359375-7.496094-7.496094-7.496094c-49.480469 0-89.734375 40.574219-89.734375 90.445312 0 49.871094 40.253906 90.445313 89.734375 90.445313h191.511719c4.140625 0 7.496094-3.355469 7.496094-7.496094s-3.355469-7.496093-7.496094-7.496093zm0 0" fill="#97c9e8"/><path d="m504.503906 165.898438h-175.460937c-4.140625 0-7.496094 3.355468-7.496094 7.496093s3.355469 7.496094 7.496094 7.496094h175.460937c4.140625 0 7.496094-3.355469 7.496094-7.496094s-3.355469-7.496093-7.496094-7.496093zm0 0" fill="#97c9e8"/><g fill="#cbe6f7"><path d="m129.898438 258.425781c-14.074219 0-25.527344-11.453125-25.527344-25.53125 0-14.074219 11.453125-25.527343 25.527344-25.527343h304.742187c4.140625 0 7.496094 3.355468 7.496094 7.496093 0 4.136719-3.355469 7.496094-7.496094 7.496094h-304.742187c-5.808594 0-10.535157 4.726563-10.535157 10.535156 0 5.8125 4.726563 10.539063 10.535157 10.539063 4.140624 0 7.496093 3.355468 7.496093 7.496094 0 4.140624-3.355469 7.496093-7.496093 7.496093zm0 0"/><path d="m355.636719 124.089844h-251.484375c-18.074219 0-32.777344-14.707032-32.777344-32.78125 0-18.070313 14.703125-32.777344 32.777344-32.777344 10.785156 0 20.886718 5.3125 27.015625 14.210938 2.347656 3.40625 7.015625 4.265624 10.425781 1.917968 3.40625-2.347656 4.265625-7.015625 1.917969-10.425781-8.925781-12.957031-23.640625-20.695313-39.359375-20.695313-26.339844 0-47.769532 21.429688-47.769532 47.769532s21.429688 47.769531 47.769532 47.769531h251.484375c4.140625 0 7.496093-3.355469 7.496093-7.496094s-3.355468-7.492187-7.496093-7.492187zm0 0"/><path d="m471.851562 124.089844h-77.476562c-4.136719 0-7.496094 3.355468-7.496094 7.496094 0 4.136718 3.359375 7.492187 7.496094 7.492187h77.476562c4.140626 0 7.496094-3.355469 7.496094-7.492187 0-4.140626-3.355468-7.496094-7.496094-7.496094zm0 0"/></g><path d="m244.4375 304.976562-16.789062 200.023438h57.984374l-17.199218-199.875c-.910156-15.085938-22.902344-15.222656-23.996094-.148438zm0 0" fill="#26a5fd"/><path d="m268.433594 305.125c-.910156-15.085938-22.902344-15.222656-23.996094-.148438l-4.441406 52.9375 12.65625 147.085938h32.980468zm0 0" fill="#0181fb"/><path d="m287.597656 158.992188c7.140625 74.476562-2.410156 135.503906-31.597656 135.453124-27.179688-.050781-37.335938-61.023437-30.527344-135.558593 7.101563-77.769531 22.921875-152.097657 31.660156-152.085938 9.707032.019531 23.003907 74.398438 30.464844 152.191407zm0 0" fill="#f0f0f0"/><path d="m287.597656 158.992188c-7.460937-77.792969-20.757812-152.171876-30.464844-152.191407-4.429687-.007812-10.679687 19.097657-16.691406 48.0625 5.390625 28.199219 10.492188 65.746094 14.171875 104.128907 5.503907 57.398437 1.089844 106.804687-14.582031 126.421874 4.433594 5.8125 9.753906 9.019532 15.96875 9.027344 29.1875.054688 38.738281-60.972656 31.597656-135.449218zm0 0" fill="#e8e8e8"/><path d="m358.699219 390.09375c-67.574219-30.859375-115.21875-69.59375-100.527344-95.042969 13.683594-23.699219 71.175781-2.195312 131.804687 40.871094 63.257813 44.933594 119.183594 95.765625 114.785157 103.382813-4.886719 8.464843-75.472657-16.976563-146.0625-49.210938zm0 0" fill="#f0f0f0"/><path d="m389.976562 335.921875c-55.917968-39.71875-109.167968-61.097656-127.839843-45.585937 23.722656 7.75 53.394531 23.945312 83.863281 45.585937 50.738281 36.039063 96.75 75.871094 110.710938 94.15625 26.894531 9.25 45.617187 13.441406 48.050781 9.226563 4.398437-7.617188-51.527344-58.449219-114.785157-103.382813zm0 0" fill="#e8e8e8"/><path d="m154.960938 390.332031c67.820312-30.621093 115.765624-69.1875 101.273437-94.6875-13.496094-23.746093-71.15625-2.445312-132.121094 40.40625-63.613281 44.710938-119.9375 95.347657-115.597656 102.980469 4.820313 8.480469 75.605469-16.710938 146.445313-48.699219zm0 0" fill="#f0f0f0"/><path d="m256.234375 295.644531c-6.726563-11.835937-24.429687-12.480469-48.042969-4.839843 1.625 1.335937 2.988282 2.941406 4.066406 4.839843 14.492188 25.5-33.453124 64.066407-101.273437 94.6875-35.640625 16.09375-71.261719 30.464844-98.480469 39.695313-3.367187 4.390625-4.835937 7.519531-3.988281 9.003906 4.820313 8.484375 75.605469-16.710938 146.445313-48.695312 67.816406-30.625 115.765624-69.191407 101.273437-94.691407zm0 0" fill="#e8e8e8"/><path d="m283.421875 308.738281c-8.617187 14.925781-27.59375 20.011719-42.382813 11.359375-14.792968-8.652344-19.796874-27.769531-11.179687-42.695312 8.617187-14.925782 27.59375-20.015625 42.386719-11.359375 14.792968 8.652343 19.796875 27.765625 11.175781 42.695312zm0 0" fill="#ffe469"/><path d="m272.246094 266.042969c-10.289063-6.019531-22.597656-5.386719-32.042969.578125 14.054687 8.902344 18.671875 27.511718 10.238281 42.117187-2.625 4.542969-6.210937 8.167969-10.34375 10.777344.3125.195313.621094.394531.9375.582031 14.792969 8.652344 33.769532 3.566406 42.386719-11.359375 8.621094-14.929687 3.617187-34.042969-11.175781-42.695312zm0 0" fill="#ffda30"/></svg>