<svg height="512pt" viewBox="0 -4 512.00045 512" width="512pt" xmlns="http://www.w3.org/2000/svg"><g fill="#ab632e"><path d="m490.996094 339.984375-37.652344-15.425781c-3.832031-1.566406-8.214844.265625-9.785156 4.101562-1.570313 3.832032.265625 8.210938 4.097656 9.78125l37.652344 15.421875c.933594.382813 1.894531.5625 2.839844.5625 2.957031 0 5.753906-1.757812 6.945312-4.660156 1.570312-3.832031-.265625-8.210937-4.097656-9.78125zm0 0"/><path d="m504.605469 256.164062-36.410157-.507812c-.035156 0-.070312 0-.105468 0-4.09375 0-7.441406 3.292969-7.496094 7.398438-.058594 4.140624 3.253906 7.542968 7.394531 7.601562l36.410157.507812h.105468c4.09375 0 7.4375-3.289062 7.496094-7.394531.058594-4.144531-3.253906-7.550781-7.394531-7.605469zm0 0"/><path d="m454.496094 199.003906c.75 0 1.511718-.113281 2.265625-.351562l36.960937-11.6875c3.949219-1.25 6.140625-5.460938 4.890625-9.410156-1.246093-3.949219-5.460937-6.140626-9.410156-4.890626l-36.964844 11.683594c-3.949219 1.25-6.136719 5.464844-4.890625 9.414063 1.011719 3.195312 3.964844 5.242187 7.148438 5.242187zm0 0"/><path d="m173.023438 21.238281c-1.46875-3.875-5.796876-5.824219-9.671876-4.359375-3.875 1.46875-5.824218 5.796875-4.355468 9.671875l13.492187 35.609375c1.132813 2.996094 3.988281 4.84375 7.011719 4.84375.882812 0 1.78125-.15625 2.65625-.488281 3.875-1.46875 5.824219-5.796875 4.359375-9.671875zm0 0"/><path d="m248.9375 0c-4.140625.0585938-7.453125 3.460938-7.394531 7.605469l.503906 36.476562c.058594 4.109375 3.402344 7.398438 7.496094 7.398438h.105469c4.144531-.058594 7.453124-3.460938 7.398437-7.605469l-.503906-36.476562c-.058594-4.144532-3.457031-7.4726568-7.605469-7.398438zm0 0"/><path d="m335.117188 13.488281c-3.914063-1.359375-8.1875.714844-9.542969 4.628907l-13.160157 37.925781c-1.355468 3.914062.714844 8.1875 4.628907 9.542969.8125.285156 1.640625.417968 2.457031.417968 3.105469 0 6.011719-1.945312 7.085938-5.042968l13.160156-37.925782c1.355468-3.914062-.714844-8.1875-4.628906-9.546875zm0 0"/><path d="m64.121094 173.472656-37.652344-14.050781c-3.878906-1.449219-8.199219.523437-9.648438 4.402344-1.449218 3.878906.523438 8.203125 4.40625 9.648437l37.648438 14.054688c.867188.324218 1.75.476562 2.625.476562 3.039062 0 5.902344-1.863281 7.027344-4.878906 1.449218-3.882812-.523438-8.203125-4.40625-9.652344zm0 0"/><path d="m43.910156 257.714844c4.09375 0 7.441406-3.289063 7.5-7.394532.054688-4.144531-3.253906-7.546874-7.394531-7.605468l-36.410156-.507813c-.035157 0-.070313 0-.105469 0-4.09375 0-7.4414062 3.289063-7.5 7.398438-.0546875 4.140625 3.253906 7.542969 7.394531 7.601562l36.410157.507813zm0 0"/><path d="m56.0625 313.410156-37.964844 13.054688c-3.914062 1.34375-6 5.613281-4.652344 9.53125 1.070313 3.109375 3.976563 5.0625 7.09375 5.0625.808594 0 1.628907-.132813 2.4375-.410156l37.960938-13.054688c3.917969-1.347656 6-5.613281 4.652344-9.53125-1.34375-3.917969-5.609375-6.003906-9.527344-4.652344zm0 0"/><path d="m125.210938 356 298.710937-299.496094c8.753906-8.78125 22.953125-8.78125 31.710937 0 8.757813 8.78125 8.757813 23.015625 0 31.796875l-296.632812 297.417969"/><path d="m354.023438 386-296.90625-297.699219c-8.757813-8.78125-8.757813-23.015625 0-31.800781 8.753906-8.78125 22.953124-8.78125 31.710937 0l297.707031 298.5"/></g><path d="m302.886719 302.949219c-25.6875 25.757812-67.335938 25.757812-93.023438 0-25.6875-25.757813-25.6875-67.519531 0-93.277344s67.335938-25.757813 93.023438 0 25.6875 67.519531 0 93.277344zm0 0" fill="#de9252"/><path d="m302.886719 209.671875c-18.527344-18.578125-45.355469-23.753906-68.511719-15.53125 8.949219 3.175781 17.351562 8.351563 24.511719 15.53125 25.6875 25.757813 25.6875 67.519531 0 93.277344-7.160157 7.179687-15.5625 12.351562-24.511719 15.53125 23.15625 8.21875 49.984375 3.046875 68.511719-15.53125 25.6875-25.757813 25.6875-67.519531 0-93.277344zm0 0" fill="#d9833b"/><path d="m464.652344 319.308594c-.253906.847656-.519532 1.691406-.785156 2.535156.269531-.84375.527343-1.6875.785156-2.535156zm0 0" fill="#de9252"/><path d="m465.109375 317.773438c-.152344.511718-.304687 1.023437-.457031 1.535156.152344-.511719.304687-1.023438.457031-1.535156zm0 0" fill="#de9252"/><path d="m463.867188 321.84375c-10.726563 33.902344-29.511719 64.214844-54.117188 88.695312h.429688c25.640624-25.710937 43.527343-56.25 53.6875-88.695312zm0 0" fill="#de9252"/><path d="m256 38c-120.398438 0-218 97.601562-218 218 0 75.199219 38.074219 141.507812 96 180.691406l241 1.988282c12.535156-8.183594 24.179688-17.625 34.75-28.140626 24.605469-24.480468 43.390625-54.792968 54.117188-88.695312.265624-.84375.53125-1.6875.785156-2.535156.152344-.511719.304687-1.023438.457031-1.535156 5.773437-19.585938 8.890625-40.316407 8.890625-61.773438 0-120.398438-97.601562-218-218-218zm-104.277344 113.371094c57.796875-57.957032 151.503906-57.957032 209.300782 0 57.796874 57.957031 57.796874 151.921875 0 209.878906-22.867188 22.929688-51.359376 36.789062-81.023438 41.574219l-50-.46875c-28.671875-5.183594-56.113281-18.882813-78.277344-41.105469-57.796875-57.957031-57.796875-151.921875 0-209.878906zm0 0" fill="#de9252"/><path d="m256 38c-8.113281 0-16.117188.457031-24 1.320312 109.105469 11.953126 194 104.394532 194 216.679688 0 21.457031-3.117188 42.1875-8.890625 61.773438-.152344.511718-.304687 1.023437-.457031 1.535156-.253906.847656-.519532 1.691406-.785156 2.535156-10.726563 33.902344-29.511719 64.214844-54.117188 88.695312-10.402344 10.351563-21.851562 19.65625-34.167969 27.75l47.417969.390626c12.535156-8.183594 24.179688-17.625 34.75-28.140626 24.605469-24.480468 43.390625-54.792968 54.117188-88.695312.265624-.84375.53125-1.6875.785156-2.535156.152344-.511719.304687-1.023438.457031-1.535156 5.773437-19.585938 8.890625-40.316407 8.890625-61.773438 0-120.398438-97.601562-218-218-218zm0 0" fill="#d9833b"/><path d="m506 393-1.5.386719c-31.0625 0-31.0625 38.070312-62.128906 38.070312s-31.066406-38.070312-62.128906-38.070312-31.0625 38.070312-62.125 38.070312-31.0625-38.070312-62.125-38.070312-31.0625 38.070312-62.121094 38.070312c-31.0625 0-31.0625-38.070312-62.125-38.070312s-31.0625 38.070312-62.125 38.070312c-31.058594 0-31.058594-38.070312-62.121094-38.070312l-.5-.386719v7.863281l.5 65.570313c31.0625 0 31.0625 38.066406 62.121094 38.066406 31.0625 0 31.0625-38.066406 62.125-38.066406s31.0625 38.066406 62.125 38.066406 31.0625-38.066406 62.121094-38.066406c31.0625 0 31.0625 38.066406 62.125 38.066406s31.0625-38.066406 62.125-38.066406c31.066406 0 31.066406 38.066406 62.128906 38.066406s31.0625-38.066406 62.128906-38.066406zm0 0" fill="#89c8fd"/></svg>