<svg height="512pt" viewBox="0 0 512 512" width="512pt" xmlns="http://www.w3.org/2000/svg"><path d="m386.5625 511.3125h-294.535156c-11.457032 0-21.066406-8.648438-22.273438-20.042969l-34.835937-329.359375h408.753906l-34.835937 329.359375c-1.203126 11.394531-10.8125 20.042969-22.273438 20.042969zm0 0" fill="#ffe469"/><path d="m389.074219 161.910156-34.835938 329.359375c-1.207031 11.394531-10.816406 20.042969-22.273437 20.042969h54.597656c11.460938 0 21.070312-8.648438 22.273438-20.042969l34.835937-329.359375zm0 0" fill="#ffda30"/><path d="m445.332031 134.953125h-412.074219v-71.78125c0-34.886719 28.285157-63.171875 63.175782-63.171875h285.726562c34.886719 0 63.171875 28.285156 63.171875 63.171875zm0 0" fill="#ffe469"/><path d="m382.160156 0h-52.539062c34.886718 0 63.171875 28.285156 63.171875 63.171875v71.78125h52.539062v-71.78125c0-34.886719-28.285156-63.171875-63.171875-63.171875zm0 0" fill="#ffda30"/><path d="m451.816406 178.222656h-429.667968c-12.230469 0-22.148438-9.917968-22.148438-22.148437 0-12.234375 9.917969-22.152344 22.148438-22.152344h429.667968c12.230469 0 22.148438 9.917969 22.148438 22.152344 0 12.230469-9.917969 22.148437-22.148438 22.148437zm0 0" fill="#f7ca00"/><path d="m451.816406 133.921875h-45.328125c12.230469 0 22.148438 9.917969 22.148438 22.152344 0 12.230469-9.917969 22.148437-22.148438 22.148437h45.328125c12.230469 0 22.148438-9.917968 22.148438-22.148437 0-12.234375-9.917969-22.152344-22.148438-22.152344zm0 0" fill="#ebb400"/><path d="m355.769531 133.921875h-232.949219v-36.683594c0-11.601562 9.40625-21.003906 21.007813-21.003906h190.9375c11.601563 0 21.003906 9.402344 21.003906 21.003906zm0 0" fill="#ebb400"/><g fill="#fff"><path d="m200.148438 417.605469h-30.871094c-7.359375 0-13.949219-3.804688-17.628906-10.179688-3.679688-6.375-3.679688-13.980469 0-20.355469l26.839843-46.488281 1.578125 6.808594c.828125 3.570313 4.007813 5.980469 7.519532 5.980469.578124 0 1.164062-.0625 1.753906-.199219 4.15625-.964844 6.742187-5.113281 5.78125-9.273437l-5.554688-23.96875c-.9375-4.042969-4.90625-6.621094-8.984375-5.84375l-25.078125 4.804687c-4.1875.800781-6.933594 4.851563-6.132812 9.039063.804687 4.195312 4.859375 6.941406 9.042968 6.136718l6.738282-1.292968-26.886719 46.570312c-6.472656 11.210938-6.472656 24.597656 0 35.808594 6.472656 11.210937 18.066406 17.90625 31.011719 17.90625h30.871094c4.265624 0 7.726562-3.460938 7.726562-7.726563 0-4.269531-3.457031-7.726562-7.726562-7.726562zm0 0"/><path d="m239.296875 255.617188c7.359375 0 13.949219 3.804687 17.628906 10.179687l34.394531 59.574219-6.410156-1.492188c-4.15625-.96875-8.308594 1.617188-9.277344 5.773438s1.617188 8.308594 5.773438 9.277344l23.964844 5.582031c.589844.136719 1.179687.203125 1.757812.203125 3.40625 0 6.511719-2.269532 7.449219-5.691406l6.738281-24.625c1.128906-4.117188-1.292968-8.367188-5.410156-9.492188-4.117188-1.128906-8.367188 1.296875-9.492188 5.410156l-1.910156 6.984375-34.195312-59.230469c-6.472656-11.210937-18.066406-17.902343-31.011719-17.902343-12.949219 0-24.539063 6.691406-31.011719 17.902343l-18.949218 32.816407c-2.132813 3.695312-.867188 8.421875 2.828124 10.554687 3.695313 2.132813 8.421876.867188 10.554688-2.828125l18.949219-32.816406c3.679687-6.375 10.269531-10.179687 17.628906-10.179687zm0 0"/><path d="m340.324219 379.34375-12.179688-21.097656c-2.136719-3.695313-6.859375-4.964844-10.554687-2.828125-3.695313 2.132812-4.960938 6.859375-2.828125 10.554687l12.179687 21.097656c3.679688 6.375 3.679688 13.980469 0 20.355469-3.679687 6.375-10.269531 10.179688-17.628906 10.179688h-62.230469l5.058594-5.460938c2.898437-3.132812 2.710937-8.019531-.421875-10.917969-3.128906-2.902343-8.015625-2.710937-10.917969.417969l-16.71875 18.054688c-2.820312 3.046875-2.726562 7.777343.207031 10.714843l18.054688 18.054688c1.507812 1.507812 3.488281 2.261719 5.464844 2.261719 1.976562 0 3.953125-.753907 5.464844-2.261719 3.015624-3.019531 3.015624-7.910156 0-10.925781l-4.488282-4.488281h60.527344c12.945312 0 24.539062-6.691407 31.011719-17.902344 6.472656-11.210938 6.472656-24.597656 0-35.808594zm0 0"/></g><path d="m512 289.707031v-18.460937c0-5.941406-1.511719-11.78125-4.40625-16.972656-4.417969-7.925782-12.546875-18.761719-26.035156-25.027344v-31.601563h-57.558594v31.601563c-13.484375 6.265625-21.613281 17.101562-26.03125 25.027344-2.894531 5.191406-4.40625 11.03125-4.40625 16.972656v18.460937c0 7.429688 2.34375 14.691407 6.785156 20.652344 18.640625 25.011719 18.640625 59.484375 0 84.5-4.441406 5.957031-6.785156 13.21875-6.785156 20.652344v61.617187c0 19.257813 15.609375 34.871094 34.871094 34.871094h48.695312c19.257813 0 34.871094-15.613281 34.871094-34.871094v-61.617187c0-7.433594-2.34375-14.695313-6.785156-20.652344-18.640625-25.015625-18.640625-59.488281 0-84.5 4.441406-5.960937 6.785156-13.222656 6.785156-20.652344zm0 0" fill="#f0f0f0"/><path d="m512 289.707031v-18.460937c0-5.941406-1.511719-11.78125-4.40625-16.972656-4.417969-7.925782-12.546875-18.761719-26.035156-25.027344v-31.601563h-45.328125v31.601563c13.488281 6.265625 21.617187 17.101562 26.035156 25.027344 2.894531 5.191406 4.40625 11.03125 4.40625 16.972656v18.460937c0 7.429688-2.34375 14.691407-6.785156 20.652344-18.640625 25.011719-18.640625 59.484375 0 84.5 4.441406 5.957031 6.785156 13.21875 6.785156 20.652344v61.617187c0 19.257813-15.609375 34.871094-34.871094 34.871094h45.328125c19.257813 0 34.871094-15.613281 34.871094-34.871094v-61.617187c0-7.433594-2.34375-14.695313-6.785156-20.652344-18.640625-25.015625-18.640625-59.488281 0-84.5 4.441406-5.960937 6.785156-13.222656 6.785156-20.652344zm0 0" fill="#e8e8e8"/><path d="m486.132812 198.75h-66.703124c-5.421876 0-9.816407-4.394531-9.816407-9.816406v-15.785156c0-5.421876 4.394531-9.816407 9.816407-9.816407h66.703124c5.421876 0 9.816407 4.394531 9.816407 9.816407v15.785156c0 5.421875-4.394531 9.816406-9.816407 9.816406zm0 0" fill="#89c8fd"/><path d="m505.214844 394.859375c-18.640625-25.015625-18.640625-59.488281 0-84.5 2.101562-2.820313 3.71875-5.9375 4.851562-9.222656h-114.570312c1.136718 3.285156 2.75 6.402343 4.851562 9.222656 18.640625 25.011719 18.640625 59.484375 0 84.5-2.683594 3.601563-4.589844 7.683594-5.683594 11.984375h116.238282c-1.097656-4.300781-3.003906-8.382812-5.6875-11.984375zm0 0" fill="#89c8fd"/><path d="m505.214844 394.859375c-18.640625-25.015625-18.640625-59.488281 0-84.5 2.101562-2.820313 3.71875-5.9375 4.851562-9.222656h-45.328125c-1.136719 3.285156-2.75 6.402343-4.851562 9.222656-18.640625 25.011719-18.640625 59.484375 0 84.5 2.683593 3.601563 4.589843 7.683594 5.6875 11.984375h45.328125c-1.097656-4.300781-3.003906-8.382812-5.6875-11.984375zm0 0" fill="#60b6ff"/><path d="m468.832031 434.539062c-4.269531 0-7.726562 3.460938-7.726562 7.726563s3.457031 7.726563 7.726562 7.726563h43.167969v-15.453126zm0 0" fill="#d9d9d9"/><path d="m443.378906 476.578125c0-4.265625-3.457031-7.726563-7.726562-7.726563h-42.089844v8.277344c0 2.460938.257812 4.859375.742188 7.175782h41.347656c4.265625 0 7.726562-3.457032 7.726562-7.726563zm0 0" fill="#d9d9d9"/></svg>