<svg height="512pt" viewBox="0 0 512 512.00029" width="512pt" xmlns="http://www.w3.org/2000/svg"><path d="m353.296875 114.886719 3.441406-59.332031c2.09375-33.023438-26.652343-59.644532-59.417969-55.035157l-181.796874 25.597657c-1.015626.140624-2.023438.296874-3.027344.464843-41.695313 6.933594-78.515625 39.34375-93.910156 78.707031zm0 0" fill="#89c8fd"/><path d="m297.320312.519531-22.773437 3.210938c20.09375 8.058593 34.242187 28.316406 32.75 51.824219l-3.355469 57.917968 49.359375 1.414063 3.4375-59.332031c2.09375-33.023438-26.652343-59.648438-59.417969-55.035157zm0 0" fill="#60b6ff"/><path d="m83.6875 512h222.261719c15.160156 0 27.65625-11.894531 28.40625-27.039062l17.625-356.914063h-287.253907zm0 0" fill="#89c8fd"/><path d="m306.660156 128.046875-17.628906 356.914063c-.746094 15.144531-13.242188 27.039062-28.40625 27.039062h45.324219c15.160156 0 27.65625-11.894531 28.40625-27.039062l17.625-356.914063zm0 0" fill="#60b6ff"/><path d="m40.078125 150.800781h319.117187c9.628907 0 17.433594-7.804687 17.433594-17.433593v-10.640626c0-9.628906-7.804687-17.433593-17.433594-17.433593h-294.691406l-45.917968-.003907zm0 0" fill="#26a5fd"/><path d="m359.199219 105.292969h-49.441407c9.625 0 17.429688 7.804687 17.429688 17.433593v10.640626c0 9.628906-7.804688 17.433593-17.429688 17.433593h49.441407c9.625 0 17.429687-7.804687 17.429687-17.433593v-10.640626c0-9.628906-7.804687-17.433593-17.429687-17.433593zm0 0" fill="#0181fb"/><path d="m135.828125 457.488281c0 30.105469-24.40625 54.511719-54.511719 54.511719-30.105468 0-54.511718-24.40625-54.511718-54.511719s24.40625-54.511719 54.511718-54.511719c30.105469 0 54.511719 24.40625 54.511719 54.511719zm0 0" fill="#e8e8e8"/><path d="m81.316406 402.976562c-8.289062 0-16.140625 1.859376-23.175781 5.167969 18.515625 8.710938 31.335937 27.527344 31.335937 49.34375 0 21.816407-12.820312 40.632813-31.335937 49.34375 7.035156 3.308594 14.886719 5.167969 23.175781 5.167969 30.105469 0 54.511719-24.40625 54.511719-54.511719s-24.40625-54.511719-54.511719-54.511719zm0 0" fill="#d9d9d9"/><path d="m96.484375 457.488281c0 8.378907-6.789063 15.167969-15.167969 15.167969s-15.167968-6.789062-15.167968-15.167969c0-8.378906 6.789062-15.167969 15.167968-15.167969s15.167969 6.789063 15.167969 15.167969zm0 0" fill="#0181fb"/><path d="m47.011719 103.648438c0 12.984374-10.523438 23.507812-23.503907 23.507812-12.984374 0-23.507812-10.523438-23.507812-23.507812 0-12.980469 10.523438-23.503907 23.507812-23.503907 12.980469 0 23.503907 10.523438 23.503907 23.503907zm0 0" fill="#0181fb"/><g fill="#fff"><path d="m171.785156 343.757812h-17.257812c-5.011719 0-9.5-2.589843-12.007813-6.929687-2.507812-4.339844-2.507812-9.523437 0-13.863281l18.371094-31.820313.191406.824219c.5625 2.4375 2.234375 4.3125 4.351563 5.269531.984375.445313 2.050781.710938 3.164062.710938.578125 0 1.167969-.0625 1.753906-.199219 4.15625-.964844 6.742188-5.113281 5.78125-9.269531l-4.273437-18.429688c-.9375-4.042969-4.90625-6.621093-8.976563-5.84375l-19.28125 3.695313c-4.191406.800781-6.9375 4.847656-6.132812 9.039062s4.847656 6.9375 9.039062 6.132813l1.347657-.257813-18.71875 32.421875c-5.296875 9.175781-5.296875 20.132813 0 29.3125 5.300781 9.175781 14.789062 14.65625 25.386719 14.65625h17.261718c4.269532 0 7.726563-3.457031 7.726563-7.726562 0-4.265625-3.457031-7.722657-7.726563-7.722657zm0 0"/><path d="m196.347656 229.734375c2.503906-4.34375 6.992188-6.933594 12.003906-6.933594 5.011719 0 9.503907 2.589844 12.007813 6.933594l24.382813 42.234375-.917969-.214844c-1.949219-.457031-3.894531-.121094-5.515625.785156-1.832032 1.027344-3.246094 2.78125-3.757813 4.984376-.96875 4.15625 1.613281 8.308593 5.769531 9.277343l18.425782 4.289063c.589844.136718 1.179687.203125 1.757812.203125 3.40625 0 6.507813-2.265625 7.445313-5.6875l5.183593-18.929688c1.125-4.117187-1.296874-8.367187-5.414062-9.492187-4.117188-1.128906-8.363281 1.296875-9.488281 5.410156l-.339844 1.242188-24.148437-41.828126c-5.300782-9.179687-14.789063-14.660156-25.386719-14.660156-10.597657 0-20.089844 5.480469-25.386719 14.660156l-11.152344 19.316407c-2.132812 3.695312-.867187 8.417969 2.828125 10.550781 3.695313 2.132812 8.421875.867188 10.550781-2.828125l.367188-.632813zm0 0"/><path d="m287.566406 315.238281-6.992187-12.113281c-2.132813-3.695312-6.859375-4.960938-10.554688-2.828125-3.695312 2.132813-4.960937 6.859375-2.828125 10.554687l.121094.207032 6.875 11.902344c2.503906 4.34375 2.503906 9.527343 0 13.867187-2.507812 4.339844-6.996094 6.929687-12.007812 6.929687h-43.753907l1.109375-1.199218c.816406-.882813 1.378906-1.90625 1.710938-2.980469.84375-2.75.121094-5.855469-2.128906-7.9375-3.128907-2.898437-8.015626-2.707031-10.917969.421875l-12.851563 13.878906c-2.820312 3.046875-2.730468 7.777344.203125 10.710938l13.882813 13.882812c1.507812 1.507813 3.484375 2.261719 5.460937 2.261719 1.980469 0 3.957031-.753906 5.464844-2.261719 3.015625-3.019531 3.015625-7.910156 0-10.925781l-.398437-.398437h42.21875c10.597656 0 20.085937-5.480469 25.386718-14.65625 5.300782-9.179688 5.300782-20.136719 0-29.316407zm0 0"/></g><path d="m501.546875 510.492188h-177.164063c-5.730468 0-10.375-4.644532-10.375-10.375v-177.164063c0-5.730469 4.644532-10.375 10.375-10.375h177.164063c5.730469 0 10.375 4.644531 10.375 10.375v177.164063c0 5.730468-4.644531 10.375-10.375 10.375zm0 0" fill="#de9252"/><path d="m466.601562 312.578125v197.914063h34.976563c5.710937 0 10.34375-4.628907 10.34375-10.34375v-177.1875c0-5.734376-4.648437-10.382813-10.382813-10.382813zm0 0" fill="#d9833b"/><path d="m386.34375 312.578125h53.242188v69.445313h-53.242188zm0 0" fill="#ab632e"/></svg>