<svg height="512pt" viewBox="0 -1 512.00001 512" width="512pt" xmlns="http://www.w3.org/2000/svg"><path d="m22.652344 479.8125v-293.132812c0-103.101563 83.195312-186.679688 185.824218-186.679688 102.628907 0 185.824219 83.578125 185.824219 186.679688v291.023437" fill="#49cb5c"/><path d="m208.476562 0c-8.535156 0-16.929687.589844-25.160156 1.710938 90.730469 12.335937 160.667969 90.441406 160.667969 184.96875v291.023437l-321.332031 1.824219v.285156l371.648437-2.109375v-291.023437c.003907-103.101563-83.195312-186.679688-185.824219-186.679688zm0 0" fill="#07b128"/><path d="m401.078125 509.933594h-385.203125c-8.769531 0-15.875-7.109375-15.875-15.875v-.367188c0-8.765625 7.105469-15.875 15.875-15.875h385.203125c8.769531 0 15.875 7.109375 15.875 15.875v.367188c0 8.765625-7.105469 15.875-15.875 15.875zm0 0" fill="#028f5d"/><g fill="#fff"><path d="m176.597656 353.445312h-25.140625c-5.457031 0-10.355469-2.835937-13.101562-7.582031-2.777344-4.800781-2.789063-10.535156-.027344-15.339843l20.0625-34.90625.476563 2.066406c.730468 3.152344 3.292968 5.394531 6.300781 5.871094.394531.0625.792969.101562 1.199219.101562.570312 0 1.152343-.0625 1.738281-.199219 4.144531-.953125 6.726562-5.089843 5.773437-9.234375l-4.527344-19.613281c-.929687-4.035156-4.886718-6.617187-8.957031-5.828125l-20.425781 3.929688c-4.175781.804687-6.910156 4.839843-6.105469 9.019531.804688 4.175781 4.84375 6.90625 9.019531 6.105469l2.488282-.480469-20.398438 35.492187c-5.53125 9.628906-5.515625 21.117188.046875 30.726563 5.535157 9.5625 15.417969 15.273437 26.4375 15.273437h25.140625c4.253906 0 7.699219-3.449218 7.699219-7.703125 0-4.253906-3.445313-7.699219-7.699219-7.699219zm0 0"/><path d="m169.402344 260.996094c3.691406 2.121094 8.398437.847656 10.515625-2.839844l.648437-1.125 14.78125-25.726562c2.746094-4.773438 7.652344-7.621094 13.128906-7.621094 5.480469 0 10.386719 2.847656 13.128907 7.621094l26.429687 45.988281-2.082031-.488281c-2.597656-.609376-5.195313.175781-7.007813 1.867187-1.082031 1.007813-1.886718 2.332031-2.246093 3.878906-.96875 4.140625 1.601562 8.285157 5.742187 9.253907l19.519532 4.5625c.585937.140624 1.175781.207031 1.757812.207031 3.398438 0 6.496094-2.265625 7.425781-5.679688l5.492188-20.148437c1.117187-4.101563-1.304688-8.335938-5.40625-9.457032-4.105469-1.117187-8.339844 1.304688-9.457031 5.40625l-.664063 2.4375-26.148437-45.5c-5.527344-9.613281-15.425782-15.351562-26.484376-15.351562-11.058593 0-20.957031 5.738281-26.484374 15.351562l-15.429688 26.847657c-2.117188 3.6875-.847656 8.394531 2.839844 10.515625zm0 0"/><path d="m291.980469 322.847656-9.921875-17.261718c-2.117188-3.6875-6.828125-4.960938-10.515625-2.839844s-4.957031 6.828125-2.839844 10.515625l.351563.609375 9.570312 16.652344c2.761719 4.804687 2.753906 10.539062-.023438 15.339843-2.746093 4.746094-7.644531 7.582031-13.105468 7.582031h-47.503906l1.992187-2.160156c1.148437-1.246094 1.796875-2.765625 1.976563-4.328125.277343-2.363281-.539063-4.820312-2.421876-6.554687-3.125-2.886719-8-2.6875-10.882812.441406l-13.613281 14.773438c-2.796875 3.03125-2.703125 7.726562.203125 10.652343l14.707031 14.769531c1.503906 1.511719 3.480469 2.269532 5.457031 2.269532 1.964844 0 3.929688-.75 5.433594-2.246094 3.011719-3 3.023438-7.875.023438-10.890625l-1.320313-1.324219h45.949219c11.019531 0 20.902344-5.707031 26.4375-15.269531 5.5625-9.613281 5.582031-21.101563.046875-30.730469zm0 0"/></g><path d="m64.972656 150.550781c32.585938 0 59.003906-27.753906 59.003906-61.992187 0-21.304688-10.230468-40.101563-25.8125-51.261719l-.519531-.464844c-33.019531 24.6875-57.589843 60.128907-68.59375 101.160157l1.675781 1.058593c9.65625 7.242188 21.476563 11.5 34.246094 11.5zm0 0" fill="#028f5d"/><path d="m469.207031 203.488281-.042969-47.875c-.003906-3.09375 2.503907-5.605469 5.597657-5.609375 3.097656-.003906 5.601562-2.515625 5.601562-5.609375l-.023437-23.363281c-.003906-3.097656-2.515625-5.605469-5.613282-5.601562l-53.71875.054687c-3.09375 0-5.601562 2.511719-5.597656 5.609375l.019532 23.363281c.003906 3.09375 2.515624 5.601563 5.613281 5.597657 3.09375 0 5.605469 2.507812 5.609375 5.601562l.046875 47.871094c.015625 17.066406-7.804688 33.195312-21.210938 43.753906-13.410156 10.554688-21.230469 26.683594-21.214843 43.75l.199218 202.914062c.007813 8.839844 7.179688 15.996094 16.019532 15.988282l95.519531-.09375c8.839843-.007813 15.996093-7.179688 15.988281-16.019532l-.195312-202.914062c-.019532-17.0625-7.871094-33.179688-21.300782-43.707031-13.429687-10.53125-21.277344-26.644531-21.296875-43.710938zm0 0" fill="#22b27f"/><path d="m511.804688 290.90625c-.019532-17.0625-7.871094-33.179688-21.300782-43.707031-13.429687-10.53125-21.277344-26.644531-21.296875-43.710938l-.046875-47.875c0-3.09375 2.503906-5.605469 5.601563-5.609375 3.09375-.003906 5.601562-2.515625 5.597656-5.609375l-.019531-23.363281c-.003906-3.097656-2.515625-5.605469-5.613282-5.601562l-44.511718.042968c2.777344.332032 4.9375 2.6875 4.941406 5.558594l.019531 23.363281c.003907 3.09375-2.503906 5.605469-5.597656 5.609375-1.722656 0-3.257813.78125-4.285156 2.003906.84375.980469 1.355469 2.253907 1.359375 3.648438l.046875 47.871094c.003906 4.09375-.457031 8.128906-1.320313 12.050781 2.777344 12.40625 9.746094 23.621094 19.941406 31.621094 13.429688 10.527343 21.28125 26.644531 21.300782 43.707031l.195312 202.914062c.007813 8.839844-7.148437 16.011719-15.988281 16.019532l-51.207031.050781c.289062.015625.578125.042969.871094.042969l95.519531-.09375c8.839843-.007813 15.996093-7.179688 15.988281-16.019532zm0 0" fill="#09a66d"/><path d="m439.089844 320.597656h72.910156v99.609375h-72.910156zm0 0" fill="#ffe469"/></svg>