<svg height="511.99924pt" viewBox="1 1 511.99924 511.99924" width="511.99924pt" xmlns="http://www.w3.org/2000/svg"><path d="m501.183594 296.402344-233.425782-233.425782c-6.941406-6.941406-16.359374-10.832031-26.171874-10.816406l-105.714844.164063c-9.773438.015625-19.144532 3.90625-26.054688 10.816406l-46.675781 46.675781c-6.910156 6.910156-10.800781 16.28125-10.816406 26.054688l-.164063 105.714844c-.015625 9.816406 3.878906 19.230468 10.816406 26.171874l233.425782 233.425782c14.421875 14.421875 37.808594 14.421875 52.230468 0l152.550782-152.554688c14.421875-14.421875 14.421875-37.804687 0-52.226562zm-335.371094-130.589844c-11.933594 11.933594-31.285156 11.933594-43.214844 0-11.9375-11.933594-11.9375-31.285156 0-43.214844 11.933594-11.9375 31.28125-11.9375 43.214844 0 11.933594 11.929688 11.933594 31.28125 0 43.214844zm0 0" fill="#f0f0f0"/><path d="m501.183594 296.402344-233.425782-233.425782c-6.941406-6.941406-16.359374-10.832031-26.171874-10.816406l-49.484376.078125c8.972657.546875 17.472657 4.34375 23.863282 10.738281l233.425781 233.425782c14.421875 14.421875 14.421875 37.804687 0 52.226562l-152.550781 152.554688c-.070313.070312-.148438.136718-.21875.207031 14.4375 14.207031 37.660156 14.144531 52.007812-.207031l152.554688-152.554688c14.421875-14.421875 14.421875-37.804687 0-52.226562zm0 0" fill="#e8e8e8"/><g fill="#49cb5c"><path d="m143.054688 150.671875c-1.949219 0-3.898438-.746094-5.386719-2.234375l-135.4375-135.4375c-2.972657-2.972656-2.972657-7.796875 0-10.769531 2.976562-2.972657 7.796875-2.972657 10.769531 0l135.4375 135.4375c2.976562 2.976562 2.976562 7.796875 0 10.769531-1.484375 1.488281-3.433594 2.234375-5.382812 2.234375zm0 0"/><path d="m238.207031 231.921875-21.539062-21.542969 16.871093-16.875 24.777344 24.773438c2.972656 2.972656 7.796875 2.972656 10.769532 0 2.972656-2.976563 2.972656-7.796875 0-10.769532l-30.160157-30.160156c-1.425781-1.429687-3.363281-2.230468-5.386719-2.230468-2.019531 0-3.957031.800781-5.382812 2.230468l-54.574219 54.574219c-2.972656 2.972656-2.972656 7.796875 0 10.769531l30.160157 30.15625c1.484374 1.488282 3.433593 2.230469 5.382812 2.230469s3.898438-.742187 5.386719-2.230469c2.972656-2.972656 2.972656-7.796875 0-10.769531l-24.773438-24.773437 16.15625-16.15625 21.542969 21.542968c1.484375 1.488282 3.4375 2.230469 5.382812 2.230469 1.949219 0 3.898438-.742187 5.386719-2.230469 2.976563-2.972656 2.976563-7.796875 0-10.769531zm0 0"/><path d="m284.199219 321.378906c-7.320313-.621094-14.21875-3.832031-19.421875-9.035156-12.175782-12.175781-12.175782-31.984375 0-44.160156 12.175781-12.175782 31.988281-12.175782 44.160156 0 5.367188 5.363281 8.589844 12.484375 9.082031 20.042968.273438 4.199219 3.898438 7.375 8.09375 7.109376 4.195313-.273438 7.378907-3.894532 7.105469-8.09375-.730469-11.253907-5.527344-21.847657-13.507812-29.832032-18.117188-18.113281-47.589844-18.113281-65.703126 0-18.113281 18.117188-18.113281 47.589844 0 65.703125 7.742188 7.742188 18.007813 12.515625 28.902344 13.441407.21875.019531.4375.027343.652344.027343 3.914062 0 7.246094-3 7.582031-6.972656.351563-4.191406-2.757812-7.875-6.945312-8.230469zm0 0"/><path d="m389.003906 325.269531c-18.414062-18.414062-48.371094-18.414062-66.78125 0-18.410156 18.410157-18.410156 48.367188 0 66.78125 9.207032 9.203125 21.296875 13.808594 33.390625 13.808594 12.089844 0 24.183594-4.605469 33.386719-13.808594 18.414062-18.414062 18.414062-48.371093.003906-66.78125zm-10.773437 56.007813c-12.46875 12.472656-32.765625 12.472656-45.238281 0-12.472657-12.472656-12.472657-32.765625 0-45.238282 6.238281-6.234374 14.429687-9.351562 22.621093-9.351562 8.191407 0 16.382813 3.117188 22.617188 9.351562 12.472656 12.472657 12.472656 32.765626 0 45.238282zm0 0"/></g><path d="m456.414062 313.121094c-1.949218 0-3.898437-.742188-5.386718-2.230469l-112.210938-112.210937c-2.976562-2.976563-2.976562-7.796876 0-10.773438 2.972656-2.972656 7.796875-2.972656 10.769532 0l112.210937 112.214844c2.976563 2.972656 2.976563 7.796875 0 10.769531-1.484375 1.488281-3.433594 2.230469-5.382813 2.230469zm0 0" fill="#d9d9d9"/></svg>