<svg height="512pt" viewBox="-17 0 512 512" width="512pt" xmlns="http://www.w3.org/2000/svg"><path d="m191.421875 149.675781v-63.265625c0-26.464844 21.453125-47.914062 47.914063-47.914062 26.460937 0 47.910156 21.449218 47.910156 47.914062v63.265625l36.878906-.375v-64.503906c0-46.832031-37.960938-84.796875-84.789062-84.796875-46.828126 0-84.789063 37.964844-84.789063 84.796875v64.503906zm0 0" fill="#49cb5c"/><path d="m239.335938 0c-7.878907 0-15.496094 1.097656-22.730469 3.105469 24.765625 6.878906 44.964843 24.703125 55.058593 47.945312 9.578126 8.761719 15.582032 21.359375 15.582032 35.359375v63.265625l36.878906-.375v-64.503906c0-46.832031-37.960938-84.796875-84.789062-84.796875zm0 0" fill="#07b128"/><path d="m462.882812 512h-447.09375c-9.453124 0-16.789062-8.253906-15.675781-17.640625l40.414063-341.683594c.9375-7.945312 7.675781-13.933593 15.675781-13.933593h366.265625c8.003906 0 14.738281 5.988281 15.679688 13.933593l40.414062 341.683594c1.109375 9.386719-6.226562 17.640625-15.679688 17.640625zm0 0" fill="#f0f0f0"/><path d="m478.558594 494.359375-40.414063-341.683594c-.9375-7.945312-7.675781-13.933593-15.675781-13.933593h-59.925781c8 0 14.734375 5.988281 15.675781 13.933593l40.414062 341.683594c1.109376 9.386719-6.222656 17.640625-15.675781 17.640625h59.925781c9.453126 0 16.789063-8.253906 15.675782-17.640625zm0 0" fill="#e8e8e8"/><path d="m346.660156 314.21875c0-59.277344-48.050781-107.332031-107.324218-107.332031-59.273438 0-107.324219 48.054687-107.324219 107.332031s48.050781 107.332031 107.324219 107.332031c59.273437 0 107.324218-48.054687 107.324218-107.332031zm0 0" fill="#89c8fd"/><path d="m239.335938 206.886719c-7.800782 0-15.40625.839843-22.730469 2.421875 48.351562 10.429687 84.59375 53.433594 84.59375 104.910156s-36.242188 94.484375-84.59375 104.914062c7.324219 1.578126 14.929687 2.417969 22.730469 2.417969 59.273437 0 107.324218-48.054687 107.324218-107.332031s-48.050781-107.332031-107.324218-107.332031zm0 0" fill="#60b6ff"/><path d="m225.386719 248.597656c-16.535157 10.335938-28.933594 26.871094-19.632813 45.46875 9.300782 18.601563 29.964844 11.367188 49.082032 8.785156 19.113281-2.582031 4.648437 56.320313 16.015624 70.785157 11.367188 14.46875 43.398438-14.464844 40.300782-33.066407-4.589844-27.539062-6.199219-37.203124 30.996094-56.835937l.097656-.050781c-12.542969-42.339844-50.492188-73.753906-96.183594-76.582032l-.011719.164063s-4.132812 31-20.664062 41.332031zm0 0" fill="#baeb6c"/><path d="m311.152344 340.570312c-4.589844-27.539062-6.199219-37.203124 30.996094-56.835937l.097656-.050781c0-.003906 0-.003906 0-.003906-6.273438-21.167969-18.894532-39.605469-35.65625-53.101563-.003906 0-.007813-.003906-.007813-.003906-16.765625-13.5-37.675781-22.058594-60.519531-23.472657l-.011719.164063s-.675781 5.0625-2.570312 11.78125c34.296875 17.910156 57.71875 53.796875 57.71875 95.171875 0 23.660156-7.671875 45.515625-20.636719 63.257812 13.867188-1.402343 33.019531-22.328124 30.589844-36.90625zm0 0" fill="#96d629"/><path d="m168.039062 362.789062c-4.964843-7.554687 8.78125-25.316406 11.882813-38.753906 3.097656-13.433594-15.5-12.398437-21.183594-17.050781-5.683593-4.648437-13.433593-24.800781-19.117187-29.449219l-.902344-.730468c-4.335938 11.652343-6.707031 24.253906-6.707031 37.414062 0 33.832031 15.65625 64.003906 40.113281 83.675781l3.664062.542969c-.003906 0 4.128907-17.566406-7.75-35.648438zm0 0" fill="#baeb6c"/><g fill="#d9d9d9"><path d="m68.847656 477.871094h-27.648437c-4.472657 0-8.21875-4.140625-7.699219-8.632813l9.042969-78.667969c1.136719-9.882812 16.535156-8.128906 15.394531 1.769532l-8.050781 70.035156h18.957031c9.953125 0 9.964844 15.496094.003906 15.496094zm0 0"/><path d="m140.359375 477.871094h-37.3125c-9.949219 0-9.964844-15.496094 0-15.496094h37.3125c9.949219 0 9.964844 15.496094 0 15.496094zm0 0"/></g></svg>