<svg height="511pt" viewBox="1 -3 511.99899 511" width="511pt" xmlns="http://www.w3.org/2000/svg"><path d="m67.292969 78.183594c-22.394531-22.398438-21.558594-59.546875-21.558594-59.546875s37.152344-.835938 59.546875 21.558593c22.398438 22.398438 21.558594 59.546876 21.558594 59.546876s-37.148438.835937-59.546875-21.558594zm0 0" fill="#49cb5c"/><path d="m439.003906 94.328125c12.402344-29.144531 47.171875-42.253906 47.171875-42.253906s14.664063 34.144531 2.261719 63.289062-47.171875 42.253907-47.171875 42.253907-14.664063-34.144532-2.261719-63.289063zm0 0" fill="#49cb5c"/><g fill="#09a66d"><path d="m411.308594 147.109375h-228.054688c-26.285156 0-47.671875-21.382813-47.671875-47.671875 0-29.097656 23.675781-52.773438 52.773438-52.773438h61.371093c4.203126 0 7.609376-3.40625 7.609376-7.609374 0-4.203126-3.40625-7.609376-7.609376-7.609376h-61.371093c-37.488281 0-67.992188 30.5-67.992188 67.992188 0 34.679688 28.214844 62.890625 62.890625 62.890625h228.054688c47.128906 0 85.472656 38.34375 85.472656 85.46875v136.222656c0 14.546875-11.835938 26.378907-26.382812 26.378907h-20.289063c-4.203125 0-7.609375 3.40625-7.609375 7.609374 0 4.203126 3.40625 7.609376 7.609375 7.609376h20.289063c22.9375 0 41.601562-18.660157 41.601562-41.597657v-136.222656c0-55.519531-45.167969-100.6875-100.691406-100.6875zm0 0"/><path d="m400.027344 27.738281h-66.015625c-4.203125 0-7.609375-3.40625-7.609375-7.609375s3.40625-7.609375 7.609375-7.609375h66.015625c4.203125 0 7.609375 3.40625 7.609375 7.609375s-3.40625 7.609375-7.609375 7.609375zm0 0"/><path d="m400.027344 64.464844h-66.015625c-4.203125 0-7.609375-3.40625-7.609375-7.609375s3.40625-7.609375 7.609375-7.609375h66.015625c4.203125 0 7.609375 3.40625 7.609375 7.609375s-3.40625 7.609375-7.609375 7.609375zm0 0"/></g><path d="m353.167969 77.753906h-97.515625c-8.359375 0-15.199219-6.839844-15.199219-15.199218v-46.859376c0-8.355468 6.839844-15.195312 15.199219-15.195312h97.515625zm0 0" fill="#49cb5c"/><path d="m308.527344.5h44.640625v77.253906h-44.640625zm0 0" fill="#07b128"/><path d="m124.929688 352.566406 38.285156-92.429687c8.992187-22.253907 30.59375-36.816407 54.59375-36.816407h141.476562c25.460938 0 48.035156 16.359376 55.964844 40.550782l29.277344 88.695312zm0 0" fill="#ffab36"/><path d="m415.25 263.871094c-7.929688-24.191406-30.503906-40.550782-55.964844-40.550782h-44.640625c25.457031 0 48.035157 16.359376 55.960938 40.550782l29.28125 88.695312h44.640625zm0 0" fill="#ff9500"/><path d="m251.722656 257.085938h-87.164062c-.472656 1.003906-.925782 2.015624-1.347656 3.050781l-38.28125 92.429687h112.507812l14.285156-.429687zm0 0" fill="#cbe6f7"/><path d="m237.4375 352.566406h14.285156v-.429687zm0 0" fill="#ffab36"/><path d="m385.503906 281.285156c-4.410156-14.378906-17.691406-24.199218-32.734375-24.199218h-67.714843v95.480468h124.625zm0 0" fill="#cbe6f7"/><path d="m449.324219 461.246094h-399.183594c-11.207031 0-20.292969-9.085938-20.292969-20.292969v-28.898437c0-39.394532 31.9375-71.332032 71.335938-71.332032h341.8125c14.703125 0 26.621094 11.917969 26.621094 26.621094v73.609375c0 11.207031-9.085938 20.292969-20.292969 20.292969zm0 0" fill="#ffe469"/><path d="m442.996094 340.722656h-48.699219c14.703125 0 26.621094 11.917969 26.621094 26.621094v73.609375c0 11.207031-9.085938 20.292969-20.292969 20.292969h48.699219c11.210937 0 20.292969-9.085938 20.292969-20.292969v-73.609375c0-14.703125-11.917969-26.621094-26.621094-26.621094zm0 0" fill="#ffda30"/><path d="m176.105469 464.097656c0 22.527344-18.261719 40.792969-40.792969 40.792969-22.527344 0-40.792969-18.265625-40.792969-40.792969 0-22.53125 18.265625-40.792968 40.792969-40.792968 22.53125 0 40.792969 18.261718 40.792969 40.792968zm0 0" fill="#ffab36"/><path d="m423.289062 464.097656c0 22.527344-18.265624 40.792969-40.796874 40.792969-22.527344 0-40.792969-18.265625-40.792969-40.792969 0-22.53125 18.265625-40.792968 40.792969-40.792968 22.53125 0 40.796874 18.261718 40.796874 40.792968zm0 0" fill="#ffab36"/><path d="m43.777344 431.261719h-25.867188c-9.890625 0-17.910156-8.015625-17.910156-17.90625 0-9.894531 8.019531-17.910157 17.910156-17.910157h25.867188c9.890625 0 17.910156 8.019532 17.910156 17.910157s-8.019531 17.90625-17.910156 17.90625zm0 0" fill="#ffab36"/><path d="m135.3125 471.707031c9.792969 0 9.808594-15.21875 0-15.21875-9.792969 0-9.808594 15.21875 0 15.21875zm0 0" fill="#ff9500"/><path d="m382.492188 471.707031c9.792968 0 9.8125-15.21875 0-15.21875-9.792969 0-9.808594 15.21875 0 15.21875zm0 0" fill="#ff9500"/></svg>