<svg height="512pt" viewBox="0 0 512.00103 512" width="512pt" xmlns="http://www.w3.org/2000/svg"><path d="m365.972656 183.472656c0-101.328125-81.925781-183.472656-182.984375-183.472656-101.0625 0-182.988281 82.144531-182.988281 183.472656s81.925781 183.472656 182.988281 183.472656c101.058594 0 182.984375-82.144531 182.984375-183.472656zm0 0" fill="#89c8fd"/><path d="m182.988281 0c-7.675781 0-15.242187.480469-22.667969 1.402344 90.363282 11.195312 160.320313 88.4375 160.320313 182.070312 0 93.632813-69.957031 170.878906-160.320313 182.070313 7.425782.921875 14.992188 1.402343 22.667969 1.402343 101.058594 0 182.984375-82.144531 182.984375-183.472656s-81.925781-183.472656-182.984375-183.472656zm0 0" fill="#60b6ff"/><g fill="#baeb6c"><path d="m159.203125 71.304688c-28.1875 17.664062-49.328125 45.925781-33.472656 77.722656s51.089843 19.429687 83.683593 15.015625c32.59375-4.417969 7.925782 96.269531 27.304688 121 19.382812 24.730469 73.996094-24.730469 68.710938-56.527344-7.824219-47.078125-10.570313-63.589844 52.851562-97.152344l.175781-.0625c-21.378906-72.390625-86.089843-126.101562-164.011719-130.929687l-.007812.273437s-7.046875 52.996094-35.234375 70.660157zm0 0"/><path d="m297.636719 40.484375c.011719.011719.023437.019531.035156.03125-.011719-.011719-.023437-.019531-.035156-.03125zm0 0"/><path d="m320.011719 61.890625s.003906.003906.007812.007813c-.003906-.003907-.003906-.007813-.007812-.007813zm0 0"/><path d="m61.425781 266.496094c-8.464843-12.914063 14.972657-43.277344 20.257813-66.242188s-26.425782-21.195312-36.113282-29.148437c-9.691406-7.949219-22.902343-42.394531-32.59375-50.34375l-1.550781-1.222657c-7.382812 19.910157-11.425781 41.449219-11.425781 63.933594 0 60.644532 29.351562 114.40625 74.578125 147.8125l.058594-3.847656s7.046875-30.03125-13.210938-60.941406zm0 0"/></g><path d="m358.457031 131.300781c-7.683593-26.015625-20.960937-49.617187-38.4375-69.402343-.003906-.003907-.003906-.007813-.007812-.007813-6.835938-7.738281-14.308594-14.890625-22.339844-21.375-.011719-.011719-.023437-.019531-.035156-.03125-28.585938-23.070313-64.238281-37.699219-103.191407-40.113281l-.007812.273437s-.40625 3.046875-1.40625 7.914063c65.882812 20.953125 115.609375 78.285156 125.714844 148.46875 8.742187-7.902344 21.445312-16.089844 39.539062-25.664063zm0 0" fill="#96d629"/><path d="m475.242188 511.980469h-238.082032c-20.300781 0-36.757812-16.457031-36.757812-36.757813v-212.914062c0-20.300782 16.457031-36.757813 36.757812-36.757813h238.082032c20.300781 0 36.757812 16.457031 36.757812 36.757813v212.914062c0 20.300782-16.457031 36.757813-36.757812 36.757813zm0 0" fill="#f0f0f0"/><path d="m475.242188 225.550781h-45.335938c20.300781 0 36.757812 16.457031 36.757812 36.757813v212.914062c0 20.300782-16.457031 36.757813-36.757812 36.757813h45.335938c20.300781 0 36.757812-16.457031 36.757812-36.757813v-212.914062c0-20.300782-16.457031-36.757813-36.757812-36.757813zm0 0" fill="#e8e8e8"/><path d="m512 262.308594c0-20.300782-16.457031-36.757813-36.757812-36.757813h-238.082032c-20.300781 0-36.757812 16.457031-36.757812 36.757813v45.667968h311.597656zm0 0" fill="#22b27f"/><path d="m475.242188 225.550781h-45.335938c20.300781 0 36.757812 16.457031 36.757812 36.757813v45.667968h45.335938v-45.667968c0-20.300782-16.457031-36.757813-36.757812-36.757813zm0 0" fill="#09a66d"/><path d="m264.207031 261.613281c-6.515625 0-11.847656-5.332031-11.847656-11.851562v-45.332031c0-6.519532 5.332031-11.851563 11.847656-11.851563s11.847657 5.332031 11.847657 11.851563v45.332031c0 6.519531-5.332032 11.851562-11.847657 11.851562zm0 0" fill="#e8e8e8"/><path d="m355.90625 260.582031c-6.515625 0-11.847656-5.332031-11.847656-11.847656v-45.335937c0-6.515626 5.332031-11.847657 11.847656-11.847657s11.847656 5.332031 11.847656 11.847657v45.335937c0 6.515625-5.332031 11.847656-11.847656 11.847656zm0 0" fill="#e8e8e8"/><path d="m447.605469 259.550781c-6.515625 0-11.847657-5.332031-11.847657-11.847656v-45.335937c0-6.515626 5.332032-11.847657 11.847657-11.847657s11.847656 5.332031 11.847656 11.847657v45.335937c0 6.515625-5.332031 11.847656-11.847656 11.847656zm0 0" fill="#e8e8e8"/><path d="m335.632812 463.300781h-55.039062c-3.222656 0-6.105469-2-7.234375-5.015625s-.269531-6.421875 2.160156-8.539062c.136719-.117188 13.921875-12.171875 27.464844-27.550782 16.792969-19.066406 26.039063-35.078124 26.039063-45.085937 0-10.410156-8.46875-18.878906-18.878907-18.878906-10.410156 0-18.878906 8.46875-18.878906 18.878906 0 4.269531-3.460937 7.726563-7.730469 7.726563-4.265625 0-7.726562-3.457032-7.726562-7.726563 0-18.933594 15.402344-34.335937 34.335937-34.335937 18.933594 0 34.335938 15.402343 34.335938 34.335937 0 22.890625-26.753907 53.25-44.34375 70.738281h35.496093c4.269532 0 7.726563 3.457032 7.726563 7.726563 0 4.265625-3.457031 7.726562-7.726563 7.726562zm0 0" fill="#22b27f"/><path d="m430.6875 463.039062h-55.039062c-3.21875 0-6.105469-2-7.234376-5.015624-1.128906-3.019532-.269531-6.421876 2.160157-8.539063.140625-.121094 13.921875-12.171875 27.464843-27.550781 16.792969-19.066406 26.042969-35.078125 26.042969-45.085938 0-10.410156-8.472656-18.882812-18.882812-18.882812-10.410157 0-18.878907 8.472656-18.878907 18.882812 0 4.265625-3.460937 7.726563-7.726562 7.726563-4.269531 0-7.730469-3.460938-7.730469-7.726563 0-18.933594 15.402344-34.335937 34.335938-34.335937 18.933593 0 34.335937 15.402343 34.335937 34.335937 0 22.886719-26.753906 53.25-44.339844 70.734375h35.492188c4.269531 0 7.726562 3.460938 7.726562 7.730469 0 4.265625-3.457031 7.726562-7.726562 7.726562zm0 0" fill="#22b27f"/></svg>