<svg height="512pt" viewBox="0 -3 512.00102 512" width="512pt" xmlns="http://www.w3.org/2000/svg"><path d="m412.421875 254.453125c0-86.617187-70.035156-156.835937-156.421875-156.835937s-156.421875 70.21875-156.421875 156.835937 70.035156 156.835937 156.421875 156.835937 156.421875-70.21875 156.421875-156.835937zm0 0" fill="#89c8fd"/><path d="m256 97.617188c-6.5625 0-13.027344.414062-19.375 1.199218 77.242188 9.570313 137.042969 75.597656 137.042969 155.636719s-59.800781 146.070313-137.042969 155.636719c6.347656.785156 12.8125 1.199218 19.375 1.199218 86.386719 0 156.421875-70.21875 156.421875-156.835937s-70.035156-156.835937-156.421875-156.835937zm0 0" fill="#60b6ff"/><path d="m235.667969 158.570312c-24.09375 15.097657-42.167969 39.257813-28.613281 66.4375 13.554687 27.179688 43.675781 16.609376 71.535156 12.835938 27.859375-3.777344 6.777344 82.292969 23.34375 103.433594s63.25-21.140625 58.730468-48.320313c-6.6875-40.242187-9.035156-54.359375 45.179688-83.046875l.148438-.054687c-18.273438-61.878907-73.589844-107.792969-140.199219-111.921875l-.003907.238281s-6.023437 45.296875-30.121093 60.398437zm0 0" fill="#baeb6c"/><path d="m354.003906 132.226562c.011719.007813.019532.015626.03125.023438-.011718-.007812-.019531-.015625-.03125-.023438zm0 0" fill="#baeb6c"/><path d="m373.132812 150.519531c0 .003907.003907.007813.003907.011719 0-.003906-.003907-.007812-.003907-.011719zm0 0" fill="#baeb6c"/><path d="m152.085938 325.421875c-7.234376-11.035156 12.800781-36.992187 17.320312-56.625 4.519531-19.628906-22.589844-18.117187-30.875-24.914063-8.28125-6.792968-19.578125-36.238281-27.859375-43.035156l-1.324219-1.042968c-6.3125 17.015624-9.769531 35.425781-9.769531 54.648437 0 51.839844 25.089844 97.796875 63.753906 126.351563l.050781-3.289063s6.023438-25.667969-11.296874-52.09375zm0 0" fill="#baeb6c"/><path d="m405.992188 209.855469c-6.566407-22.234375-17.914063-42.410157-32.855469-59.324219 0-.003906-.003907-.007812-.003907-.011719-5.84375-6.609375-12.230468-12.726562-19.097656-18.269531-.011718-.007812-.019531-.015625-.03125-.023438-24.433594-19.722656-54.910156-32.230468-88.207031-34.292968l-.007813.234375s-.347656 2.605469-1.203124 6.765625c56.320312 17.910156 98.828124 66.917968 107.464843 126.914062 7.472657-6.757812 18.332031-13.753906 33.796875-21.9375zm0 0" fill="#96d629"/><path d="m89.441406 143.878906-18.238281 4.3125c5.726563-9.789062 12.210937-19.160156 19.429687-28.011718 2.683594-3.289063 2.191407-8.132813-1.097656-10.816407-3.292968-2.683593-8.132812-2.191406-10.816406 1.097657-7.375 9.035156-14.027344 18.582031-19.945312 28.539062l-3.734376-14.261719c-1.074218-4.105469-5.273437-6.570312-9.382812-5.488281-4.109375 1.074219-6.566406 5.277344-5.492188 9.382812l7.964844 30.417969c-6.136718 13.015625-11.09375 26.574219-14.789062 40.488281l-7.574219-15.691406c-1.847656-3.824218-6.441406-5.429687-10.265625-3.582031s-5.425781 6.441406-3.582031 10.265625l16.257812 33.671875c-1.847656 11.917969-2.796875 24.007813-2.796875 36.164063 0 2.214843.039063 4.425781.101563 6.636718l-12.402344-12.203125c-3.027344-2.976562-7.894531-2.9375-10.871094.089844-2.976562 3.027344-2.9375 7.894531.089844 10.871094l24.984375 24.582031c1.738281 13.734375 4.671875 27.261719 8.753906 40.425781l-15.714844-9.875c-3.597656-2.257812-8.34375-1.175781-10.601562 2.421875-2.257812 3.59375-1.175781 8.339844 2.417969 10.597656l32.480469 20.410157c.046874.03125.097656.046875.144531.078125 4.363281 10.109375 9.433593 19.933594 15.203125 29.390625 1.449218 2.371093 3.980468 3.683593 6.570312 3.683593 1.363282 0 2.746094-.363281 3.996094-1.125 3.625-2.210937 4.773438-6.941406 2.558594-10.570312-5.8125-9.53125-10.871094-19.457031-15.152344-29.691406l12.78125-28.085938c1.761719-3.867187.054688-8.425781-3.8125-10.183594-3.863281-1.757812-8.421875-.050781-10.179688 3.8125l-6.261718 13.757813c-3.515625-11.5-6.097656-23.292969-7.710938-35.257813l20.175782-26.648437c2.5625-3.382813 1.898437-8.207031-1.488282-10.769531-3.386718-2.5625-8.207031-1.894532-10.769531 1.488281l-9.804687 12.949219c-.070313-2.257813-.109376-4.519532-.109376-6.785156 0-11.496094.90625-22.929688 2.671876-34.199219l26.511718-18.425781c3.484375-2.425782 4.347656-7.214844 1.921875-10.703126-2.421875-3.484374-7.210937-4.347656-10.699219-1.921874l-13.175781 9.15625c3.417969-13.070313 8.027344-25.808594 13.75-38.042969l31.238281-7.390625c4.132813-.976563 6.691407-5.117188 5.714844-9.25-.976562-4.128906-5.121094-6.6875-9.25-5.710938zm0 0" fill="#22b27f"/><path d="m509.703125 265.761719c3.027344-2.976563 3.066406-7.84375.089844-10.871094-2.980469-3.027344-7.847657-3.066406-10.871094-.089844l-12.402344 12.203125c.0625-2.210937.101563-4.421875.101563-6.636718 0-12.152344-.949219-24.242188-2.796875-36.164063l16.257812-33.671875c1.84375-3.820312.242188-8.417969-3.582031-10.265625-3.824219-1.84375-8.417969-.242187-10.265625 3.582031l-7.574219 15.691406c-3.695312-13.914062-8.648437-27.46875-14.789062-40.488281l7.964844-30.414062c1.074218-4.109375-1.382813-8.3125-5.492188-9.386719-4.109375-1.078125-8.308594 1.382812-9.382812 5.492188l-3.734376 14.257812c-5.917968-9.953125-12.570312-19.503906-19.945312-28.539062-2.683594-3.289063-7.523438-3.78125-10.816406-1.097657-3.289063 2.6875-3.78125 7.527344-1.097656 10.820313 7.21875 8.847656 13.703124 18.222656 19.429687 28.011718l-18.238281-4.316406c-4.132813-.976562-8.273438 1.582032-9.25 5.714844-.976563 4.132812 1.578125 8.273438 5.710937 9.25l31.238281 7.390625c5.722657 12.234375 10.335938 24.972656 13.753907 38.042969l-13.175781-9.15625c-3.488282-2.425782-8.277344-1.5625-10.703126 1.921875-2.421874 3.488281-1.5625 8.277343 1.925782 10.703125l26.511718 18.425781c1.761719 11.269531 2.671876 22.703125 2.671876 34.199219 0 2.261718-.039063 4.527344-.109376 6.785156l-9.804687-12.949219c-2.5625-3.386719-7.386719-4.050781-10.773437-1.488281-3.382813 2.5625-4.050782 7.386719-1.488282 10.769531l20.175782 26.648438c-1.609376 11.964843-4.191407 23.757812-7.710938 35.257812l-6.257812-13.757812c-1.757813-3.863281-6.320313-5.570313-10.183594-3.8125-3.863282 1.757812-5.570313 6.316406-3.8125 10.183593l12.78125 28.085938c-4.28125 10.234375-9.335938 20.160156-15.152344 29.691406-2.210938 3.625-1.066406 8.355469 2.558594 10.570313 1.25.761719 2.632812 1.125 3.996094 1.125 2.59375 0 5.125-1.3125 6.570312-3.683594 5.769531-9.460937 10.84375-19.28125 15.207031-29.390625.046875-.027344.09375-.050781.144531-.078125l32.476563-20.410156c3.59375-2.257813 4.679687-7.003907 2.417969-10.597657-2.257813-3.59375-7.003906-4.679687-10.597656-2.421874l-15.714844 9.875c4.082031-13.164063 7.011718-26.6875 8.753906-40.425782zm0 0" fill="#22b27f"/><path d="m440.300781 505.21875c-113.28125-68.816406-255.554687-68.777344-368.804687.121094-2.496094 1.519531-5.703125-.195313-5.820313-3.117188-.628906-15.394531-2.886719-52.789062-3.472656-62.4375-.085937-1.417968-.945313-2.667968-2.242187-3.253906-8.058594-3.660156-37.199219-16.902344-50.234376-22.9375-2.785156-1.289062-3-5.164062-.382812-6.769531 151.210938-92.828125 341.808594-92.878907 493.0625-.152344 2.617188 1.601563 2.402344 5.472656-.378906 6.765625-13.582032 6.332031-43.996094 21.203125-52.207032 25.226562-1.277343.625-2.105468 1.90625-2.148437 3.328126-.292969 9.378906-1.378906 44.855468-1.546875 60-.03125 2.96875-3.28125 4.769531-5.824219 3.226562zm0 0" fill="#49cb5c"/><path d="m502.40625 406.667969c-82.695312-50.695313-177.152344-73.660157-270.503906-68.890625 77.300781 3.949218 153.847656 26.910156 222.324218 68.890625 2.617188 1.605469 2.402344 5.476562-.378906 6.769531-13.582031 6.328125-43.996094 21.203125-52.207031 25.226562-1.277344.625-2.105469 1.902344-2.148437 3.328126-.203126 6.46875-.78125 25.351562-1.175782 41.417968 14.347656 6.28125 28.375 13.542969 41.984375 21.808594 2.542969 1.542969 5.792969-.257812 5.824219-3.230469.167969-15.140625 1.253906-50.617187 1.546875-59.996093.042969-1.425782.871094-2.703126 2.148437-3.328126 8.210938-4.023437 38.625-18.894531 52.207032-25.226562 2.78125-1.292969 2.996094-5.164062.378906-6.769531zm0 0" fill="#07b128"/><path d="m269.824219 0c-5.796875 0-10.898438 3.429688-13.824219 8.605469-2.925781-5.175781-8.027344-8.605469-13.824219-8.605469-9.082031 0-16.445312 8.40625-16.445312 18.777344 0 26.699218 30.269531 35.199218 30.269531 35.199218s30.269531-7.941406 30.269531-35.199218c.003907-10.371094-7.359375-18.777344-16.445312-18.777344zm0 0" fill="#fd646f"/><path d="m395.300781 36.488281c-5.3125-2.320312-11.359375-1.21875-16.113281 2.355469-.613281-5.914062-3.914062-11.097656-9.226562-13.417969-8.324219-3.632812-18.4375 1.125-22.585938 10.625-10.683594 24.472657 13.660156 44.375 13.660156 44.375s30.921875 4.832031 41.828125-20.148437c4.148438-9.503906.761719-20.152344-7.5625-23.789063zm0 0" fill="#fd646f"/><path d="m118.695312 38.542969c5.097657-2.761719 11.214844-2.175781 16.253907.984375.109375-5.949219 2.960937-11.390625 8.0625-14.152344 7.984375-4.324219 18.460937-.441406 23.398437 8.679688 12.714844 23.480468-9.855468 45.367187-9.855468 45.367187s-30.402344 7.429687-43.382813-16.539063c-4.9375-9.117187-2.464844-20.015624 5.523437-24.339843zm0 0" fill="#fd646f"/><g fill="#fff"><path d="m136.742188 433.34375-21.34375 7.394531-4.027344-11.628906 18.074218-6.261719c4.011719-1.386718 6.136719-5.765625 4.75-9.78125-1.390624-4.011718-5.769531-6.132812-9.78125-4.746094l-18.074218 6.261719-3.746094-10.808593 21.34375-7.394532c4.011719-1.390625 6.136719-5.769531 4.746094-9.78125-1.390625-4.011718-5.769532-6.132812-9.78125-4.746094l-28.605469 9.910157c-4.011719 1.386719-6.140625 5.769531-4.75 9.78125l17.839844 51.492187c1.101562 3.179688 4.078125 5.171875 7.261719 5.171875.835937 0 1.683593-.136719 2.519531-.425781l28.605469-9.910156c4.011718-1.390625 6.140624-5.769532 4.75-9.78125-1.390626-4.011719-5.769532-6.136719-9.78125-4.746094zm0 0"/><path d="m208.75 409.617188c-.347656-.949219-.871094-1.796876-1.527344-2.515626l-22.398437-36.921874c-1.644531-2.710938-4.785157-4.132813-7.90625-3.582032-3.125.546875-5.589844 2.957032-6.207031 6.070313l-11.496094 57.742187c-.828125 4.164063 1.875 8.210938 6.039062 9.039063.507813.101562 1.011719.148437 1.511719.148437 3.589844 0 6.800781-2.53125 7.53125-6.1875l1.777344-8.921875 21.457031-3.71875 4.265625 7.03125c2.203125 3.632813 6.929687 4.789063 10.5625 2.585938 3.628906-2.199219 4.785156-6.929688 2.582031-10.558594zm-29.460938-1.292969 2.644532-13.269531 7.03125 11.59375zm0 0"/><path d="m277.597656 385.28125c0-10.597656-5.035156-16.714844-9.261718-19.976562-4.476563-3.460938-10.367188-5.445313-16.160157-5.445313h-13.839843c-4.246094 0-7.6875 3.441406-7.6875 7.6875v54.496094c0 4.246093 3.441406 7.6875 7.6875 7.6875 4.246093 0 7.6875-3.441407 7.6875-7.6875v-13.871094c1.882812.039063 4.070312.105469 6.183593.21875 4.652344.242187 10.445313.546875 10.445313 13.652344 0 4.246093 3.445312 7.6875 7.6875 7.6875 4.246094 0 7.691406-3.441407 7.691406-7.6875 0-8.984375-2.25-16.054688-6.535156-20.972657 3.601562-3.609374 6.101562-8.757812 6.101562-15.789062zm-18.304687 5.976562c-2.042969 1.207032-4.582031 1.472657-5.386719 1.472657h-7.882812v-17.492188h6.152343c1.675781 0 10.042969.484375 10.042969 10.042969 0 3.742188-1.476562 5.121094-2.925781 5.976562zm0 0"/><path d="m349.609375 368.164062-20.53125-3.054687h-.003906-.003907l-20.53125-3.050781c-4.199218-.625-8.109374 2.273437-8.734374 6.472656-.621094 4.199219 2.273437 8.109375 6.476562 8.734375l12.929688 1.921875-6.886719 46.296875c-.625 4.203125 2.273437 8.113281 6.472656 8.734375.386719.058594.765625.085938 1.140625.085938 3.746094 0 7.027344-2.742188 7.597656-6.558594l6.882813-46.296875 12.929687 1.921875c.382813.058594.765625.085937 1.140625.085937 3.746094 0 7.027344-2.742187 7.59375-6.558593.625-4.199219-2.273437-8.109376-6.472656-8.734376zm0 0"/><path d="m419.914062 391.34375c-4.042968-1.296875-8.371093.929688-9.664062 4.976562l-5.703125 17.804688-18.308594-5.867188 5.703125-17.800781c1.292969-4.046875-.933594-8.375-4.976562-9.667969-4.046875-1.292968-8.375.933594-9.667969 4.976563l-16.621094 51.898437c-1.292969 4.042969.933594 8.371094 4.976563 9.667969.78125.25 1.570312.367188 2.347656.367188 3.253906 0 6.273438-2.082031 7.320312-5.34375l6.230469-19.453125 18.308594 5.863281-6.230469 19.453125c-1.296875 4.042969.933594 8.371094 4.976563 9.664062.78125.25 1.570312.371094 2.347656.371094 3.253906 0 6.273437-2.082031 7.320313-5.347656l16.621093-51.898438c1.292969-4.042968-.933593-8.371093-4.980469-9.664062zm0 0"/></g></svg>