<svg height="511pt" viewBox="0 0 511.99936 511" width="511pt" xmlns="http://www.w3.org/2000/svg"><path d="m491.394531 136.0625c-32.097656 31.796875-84.144531 31.796875-116.242187 0s-32.097656-83.351562 0-115.152344c32.101562-31.796875 76.53125-24.257812 108.632812 7.539063 32.097656 31.800781 39.710938 75.816406 7.609375 107.613281zm0 0" fill="#9e9e9e"/><path d="m460.871094 92.828125c0-23.152344-18.5625-41.921875-41.464844-41.921875-22.898438 0-41.464844 18.769531-41.464844 41.921875 0 23.15625 18.566406 41.925781 41.464844 41.925781 22.902344 0 41.464844-18.769531 41.464844-41.925781zm0 0" fill="#d9d9d9"/><path d="m20.605469 136.0625c32.097656 31.796875 84.140625 31.796875 116.242187 0 32.097656-31.796875 32.097656-83.351562 0-115.152344-32.101562-31.796875-76.53125-24.257812-108.632812 7.539063-32.097656 31.796875-39.710938 75.816406-7.609375 107.613281zm0 0" fill="#9e9e9e"/><path d="m134.058594 92.828125c0-23.152344-18.566406-41.921875-41.464844-41.921875-22.902344 0-41.464844 18.769531-41.464844 41.921875 0 23.15625 18.5625 41.925781 41.464844 41.925781 22.898438 0 41.464844-18.769531 41.464844-41.925781zm0 0" fill="#d9d9d9"/><path d="m509.851562 301.261719c0 145.976562-113.65625 210.84375-253.851562 210.84375-140.199219 0-253.851562-64.867188-253.851562-210.84375 0-145.976563 113.652343-264.3125 253.851562-264.3125 140.195312 0 253.851562 118.335937 253.851562 264.3125zm0 0" fill="#f0f0f0"/><path d="m256 36.949219c-7.640625 0-15.195312.375-22.664062 1.0625 129.578124 11.9375 231.1875 125.230469 231.1875 263.25s-101.609376 203.519531-231.1875 210.25c7.46875.386719 15.023437.59375 22.664062.59375 140.195312 0 253.851562-64.867188 253.851562-210.84375 0-145.976563-113.65625-264.3125-253.851562-264.3125zm0 0" fill="#e8e8e8"/><path d="m313.679688 422.710938c-3.003907-3.027344-7.894532-3.054688-10.925782-.050782-9.503906 9.417969-21.480468 14.917969-33.878906 16.53125v-30.699218c0-4.265626-3.457031-7.726563-7.722656-7.726563-4.269532 0-7.726563 3.460937-7.726563 7.726563v30.699218c-12.398437-1.613281-24.375-7.117187-33.878906-16.53125-3.03125-3.003906-7.921875-2.980468-10.925781.050782-3.003906 3.035156-2.980469 7.925781.050781 10.925781 14.46875 14.335937 33.472656 21.5 52.480469 21.5 19.003906 0 38.007812-7.164063 52.476562-21.5 3.03125-3 3.054688-7.890625.050782-10.925781zm0 0" fill="#9e9e9e"/><path d="m232.601562 359.320312c17.910157-8.976562 39.226563-8.9375 57.105469.125 8.96875 4.546876 10.914063 16.398438 3.789063 23.457032l-21.476563 21.273437c-5.714843 5.664063-14.957031 5.734375-20.761719.160157l-22.28125-21.398438c-7.304687-7.015625-5.453124-19.070312 3.625-23.617188zm0 0" fill="#fd646f"/><path d="m219.234375 219.394531c-26.558594-26.308593-70.398437-23.546875-93.378906 5.878907l-57.617188 80.46875c-14.835937 18.996093-13.105469 45.949218 4.035157 62.929687 17.414062 17.25 45.160156 18.710937 64.320312 3.382813l77.730469-60.960938c28.8125-23.050781 31.097656-65.757812 4.910156-91.699219zm0 0" fill="#9e9e9e"/><path d="m204.90625 272.367188c-4.269531 0-7.726562-3.457032-7.726562-7.726563 0-12.242187-9.960938-22.203125-22.203126-22.203125-12.242187 0-22.203124 9.960938-22.203124 22.203125 0 4.269531-3.457032 7.726563-7.726563 7.726563s-7.726563-3.457032-7.726563-7.726563c0-20.761719 16.890626-37.65625 37.65625-37.65625 20.761719 0 37.65625 16.894531 37.65625 37.65625 0 4.269531-3.460937 7.726563-7.726562 7.726563zm0 0" fill="#d9d9d9"/><path d="m292.765625 219.394531c26.554687-26.308593 70.398437-23.546875 93.378906 5.878907l57.617188 80.46875c14.832031 18.996093 13.105469 45.949218-4.039063 62.929687-17.414062 17.25-45.160156 18.710937-64.316406 3.382813l-77.730469-60.960938c-28.8125-23.050781-31.097656-65.757812-4.910156-91.699219zm0 0" fill="#9e9e9e"/><path d="m366.953125 272.367188c-4.269531 0-7.726563-3.457032-7.726563-7.726563 0-12.242187-9.960937-22.203125-22.203124-22.203125-12.242188 0-22.203126 9.960938-22.203126 22.203125 0 4.269531-3.457031 7.726563-7.726562 7.726563s-7.726562-3.457032-7.726562-7.726563c0-20.761719 16.890624-37.65625 37.65625-37.65625 20.761718 0 37.652343 16.894531 37.652343 37.65625 0 4.269531-3.457031 7.726563-7.722656 7.726563zm0 0" fill="#d9d9d9"/></svg>