<svg height="511pt" viewBox="-1 1 511 511.99963" width="511pt" xmlns="http://www.w3.org/2000/svg"><g fill="#f0f0f0"><path d="m67.664062 311.675781c-2.875 0-5.628906-1.617187-6.949218-4.382812-17.269532-36.203125-24.308594-76.566407-20.359375-116.726563 4.003906-40.660156 19.132812-79.242187 43.761719-111.570312 2.574218-3.378906 7.398437-4.035156 10.78125-1.457032 3.378906 2.574219 4.035156 7.402344 1.457031 10.78125-22.894531 30.058594-36.964844 65.933594-40.683594 103.753907-3.679687 37.371093 2.867187 74.917969 18.929687 108.59375 1.828126 3.832031.203126 8.425781-3.628906 10.253906-1.070312.511719-2.199218.753906-3.308594.753906zm0 0"/><path d="m126.386719 299.085938c-2.621094 0-5.179688-1.34375-6.617188-3.757813-16.195312-27.1875-24.015625-58.367187-22.625-90.164063 1.398438-31.976562 12.050781-62.5 30.800781-88.265624 2.5-3.433594 7.3125-4.191407 10.746094-1.691407 3.4375 2.5 4.195313 7.3125 1.695313 10.746094-16.96875 23.3125-26.605469 50.9375-27.871094 79.886719-1.261719 28.789062 5.820313 57.011718 20.472656 81.613281 2.175781 3.652344.976563 8.371094-2.671875 10.546875-1.234375.734375-2.589844 1.085938-3.929687 1.085938zm0 0"/><path d="m451.308594 311.675781c-1.109375 0-2.238282-.242187-3.308594-.75-3.832031-1.828125-5.457031-6.421875-3.628906-10.257812 16.207031-33.976563 22.722656-71.859375 18.835937-109.546875-3.9375-38.167969-18.398437-74.265625-41.820312-104.394532-2.605469-3.355468-2-8.1875 1.351562-10.792968 3.355469-2.609375 8.1875-2.003906 10.796875 1.347656 25.191406 32.40625 40.746094 71.226562 44.976563 112.261719 4.175781 40.5-2.828125 81.21875-20.253907 117.75-1.316406 2.765625-4.074218 4.382812-6.949218 4.382812zm0 0"/><path d="m392.585938 299.085938c-1.339844 0-2.695313-.351563-3.929688-1.085938-3.648438-2.175781-4.847656-6.898438-2.671875-10.546875 14.652344-24.601563 21.734375-52.824219 20.472656-81.613281-1.265625-28.949219-10.90625-56.574219-27.871093-79.886719-2.5-3.433594-1.742188-8.246094 1.695312-10.746094 3.433594-2.5 8.246094-1.742187 10.746094 1.691407 18.75 25.765624 29.402344 56.289062 30.800781 88.265624 1.390625 31.796876-6.429687 62.976563-22.625 90.164063-1.4375 2.414063-3.996094 3.757813-6.617187 3.757813zm0 0"/></g><path d="m254.84375 162.601562c-4.25 0-7.695312 3.441407-7.695312 7.691407v162.960937c0 4.25 3.445312 7.695313 7.695312 7.695313s7.691406-3.445313 7.691406-7.695313v-162.960937c0-4.25-3.441406-7.691407-7.691406-7.691407zm0 0" fill="#09a66d"/><path d="m310.4375 439.363281 99.21875-86.871093c9.613281-8.421876 24.507812-7.75 33.261719 1.5 8.753906 9.246093 8.054687 23.570312-1.5625 31.988281l-104.742188 91.714843" fill="#e5a171"/><path d="m240.53125 377.257812c47.09375 4.484376 61.21875-45.210937 88.316406-38.957031 29.152344 6.726563 19.515625 41.464844 52.699219 42.609375 32.519531 1.121094 41.488281 20.34375 40.367187 33.609375l-56.375 56.082031h-196.222656l-34.449218-59.417968zm0 0" fill="#de9252"/><path d="m381.546875 380.910156c-33.183594-1.144531-23.546875-35.882812-52.699219-42.609375-7.855468-1.8125-14.621094 1.082031-21.417968 5.992188 14.632812 12.144531 13.046874 35.679687 40.265624 36.617187 32.519532 1.121094 41.488282 20.34375 40.367188 33.613282l-.8125 34.484374 34.664062-34.484374c1.121094-13.269532-7.847656-32.492188-40.367187-33.613282zm0 0" fill="#d9833b"/><path d="m.5 414.503906 86.121094.789063c10.460937-21.015625 28.945312-36.921875 51.277344-44.125l152.484374-49.179688c12.566407-4.203125 26.257813 2.4375 30.214844 14.65625l.488282 1.515625c3.902343 12.042969-2.820313 24.894532-15.199219 29.0625l-60.9375 18.195313c-22.117188 7.445312-20.582031 38.015625 2.179687 43.371093l103.234375 24.308594c7.613281 1.789063 15.65625-.179687 21.449219-5.253906l98.238281-86.015625c9.613281-8.417969 24.507813-7.746094 33.261719 1.503906 9.957031 10.519531 9.195312 26.800781-1.703125 36.414063-28.003906 24.699218-102.222656 90-120.246094 105.832031-4.324219 3.796875-9.957031 5.902344-15.8125 5.914063l-217.839843.507812c-5.84375.011719-146.710938-.238281-146.710938-.238281" fill="#f1c395"/><path d="m503.3125 363.332031c-8.753906-9.25-23.644531-9.921875-33.261719-1.503906l-7.921875 6.9375c5.5 10.117187 3.503906 22.902344-5.65625 30.980469-28.003906 24.699218-102.21875 90-120.242187 105.832031-4.324219 3.796875-9.957031 5.902344-15.8125 5.914063l-201.757813.46875c15.941406.027343 27.464844.042968 29.050782.039062l217.839843-.507812c5.855469-.011719 11.488281-2.117188 15.8125-5.914063 18.023438-15.832031 92.242188-81.132813 120.242188-105.832031 10.902343-9.613282 11.664062-25.894532 1.707031-36.414063zm0 0" fill="#f1ba84"/><path d="m41.488281 415.292969c.070313-.140625.148438-.273438.21875-.410157l-41.207031-.378906v.414063zm0 0" fill="#f1ba84"/><path d="m292.40625 37.003906c0 20.433594-16.566406 37-37.003906 37-20.433594 0-37-16.566406-37-37 0-20.4375 16.566406-37.003906 37-37.003906 20.4375 0 37.003906 16.566406 37.003906 37.003906zm0 0" fill="#fbd940"/><path d="m203.574219 172.117188c13.480469 12.851562 31.734375 20.746093 51.828125 20.746093 41.492187 0 75.128906-33.636719 75.128906-75.128906v-100.914063s-126.957031 17.378907-126.957031 155.296876" fill="#e31e7f"/><path d="m307.234375 172.117188c-13.480469 12.851562-31.734375 20.746093-51.832031 20.746093-41.488282 0-75.125-33.636719-75.125-75.128906v-100.914063s126.957031 17.378907 126.957031 155.296876" fill="#fd646f"/><path d="m255.011719 294.859375s-1.121094-78.359375 85.6875-91.222656c0 0 2.566406 84.378906-85.6875 91.222656zm0 0" fill="#09a66d"/><path d="m297.503906 411.542969c9.902344 0 9.917969-15.386719 0-15.386719-9.898437 0-9.914062 15.386719 0 15.386719zm0 0" fill="#ab632e"/><path d="m348.347656 427.851562c9.902344 0 9.917969-15.386718 0-15.386718-9.898437 0-9.914062 15.386718 0 15.386718zm0 0" fill="#ab632e"/></svg>