<svg height="512pt" viewBox="-67 0 512 512" width="512pt" xmlns="http://www.w3.org/2000/svg"><path d="m174.175781 0c96.191407 0 174.171875 78.003906 174.171875 174.222656v54.789063c1.320313-.203125 2.671875-.3125 4.046875-.3125 14.507813 0 26.269531 11.761719 26.269531 26.269531s-11.761718 26.269531-26.269531 26.269531c-1.375 0-2.726562-.105469-4.046875-.308593v6.492187c0 98.894531-52.097656 148.34375-164.386718 148.34375v76.234375h-183.960938v-337.777344c0-96.21875 77.980469-174.222656 174.175781-174.222656zm0 0" fill="#f1c395"/><path d="m352.394531 228.699219c-1.375 0-2.726562.109375-4.046875.3125 0-32.488281 0-54.789063 0-54.789063 0-96.21875-77.980468-174.222656-174.171875-174.222656-7.683593 0-15.246093.503906-22.664062 1.46875 85.484375 11.109375 151.511719 84.214844 151.511719 172.753906v54.789063c1.316406-.203125 1.316406 52.121093 0 51.917969v5.046874.171876 1.273437c0 98.894531-52.101563 148.34375-164.390626 148.34375v76.234375h45.328126v-76.234375c112.289062 0 164.386718-49.449219 164.386718-148.34375 0-.710937 0-1.085937 0-1.273437 0-.007813 0-.058594 0-.171876 0-.402343 0-1.640624 0-5.046874 1.320313.203124 2.671875.308593 4.046875.308593 14.507813 0 26.269531-11.761719 26.269531-26.269531s-11.761718-26.269531-26.269531-26.269531zm0 0" fill="#f1ba84"/><path d="m283.375 237.785156c0 63.613282-51.566406 115.183594-115.179688 115.183594-63.617187 0-115.183593-51.570312-115.183593-115.183594 0-63.613281 51.566406-115.183594 115.183593-115.183594 63.613282 0 115.179688 51.570313 115.179688 115.183594zm0 0" fill="#fbd940"/><path d="m167.113281 256.554688c-4.269531 0-7.726562 3.460937-7.726562 7.726562v88.6875c0 4.265625 3.457031 7.722656 7.726562 7.722656 4.265625 0 7.726563-3.457031 7.726563-7.722656v-88.6875c0-4.265625-3.460938-7.726562-7.726563-7.726562zm0 0" fill="#09a66d"/><path d="m167.015625 276.417969s-63.347656-167.179688 121.25-189.34375c0 0 56.015625 168.011719-121.25 189.34375zm0 0" fill="#49cb5c"/><path d="m288.265625 87.074219c-16.105469 1.933593-30.316406 4.972656-42.855469 8.90625 7.695313 31.335937 24.757813 136.488281-81.304687 171.332031 1.648437 5.777344 2.910156 9.105469 2.910156 9.105469 177.265625-21.332031 121.25-189.34375 121.25-189.34375zm0 0" fill="#07b128"/><path d="m288.265625 87.074219c-4.253906.511719-8.375 1.101562-12.371094 1.761719l-111.890625 178.125c1.699219 5.992187 3.011719 9.457031 3.011719 9.457031 3.492187-.417969 6.882813-.902344 10.195313-1.433594l113.21875-180.238281c-1.238282-4.886719-2.164063-7.671875-2.164063-7.671875zm0 0" fill="#09a66d"/><path d="m167.929688 276.339844s-138.566407-2.734375-101.171876-141.929688c0 0 137.046876 8.25 101.171876 141.929688zm0 0" fill="#49cb5c"/><path d="m66.757812 134.410156c-.9375 3.484375-1.757812 6.878906-2.476562 10.195313 35.410156 13.976562 77.335938 46.761719 60.445312 123.054687 22.941407 8.277344 43.203126 8.679688 43.203126 8.679688 35.875-133.679688-101.171876-141.929688-101.171876-141.929688zm0 0" fill="#07b128"/><path d="m170.3125 266.476562-93.429688-130.8125c-6.257812-1.019531-10.125-1.253906-10.125-1.253906-.9375 3.484375-1.757812 6.882813-2.480468 10.199219l93.476562 130.875c6.289063.78125 10.175782.859375 10.175782.859375.90625-3.371094 1.695312-6.65625 2.382812-9.867188zm0 0" fill="#09a66d"/></svg>