<svg height="512pt" viewBox="0 -4 512.00045 512" width="512pt" xmlns="http://www.w3.org/2000/svg"><path d="m256 395.117188c9.652344 0 9.667969-15 0-15-9.652344 0-9.667969 15 0 15zm0 0" fill="#fbb540"/><path d="m36.742188 32.179688.253906.269531c3.0625.882812 7.042968 2.03125 11.699218 3.378906 11.074219 7.824219 25.75 22.28125 23.878907 43.121094-2.96875 33 37.582031 8 44.503906 36l2.4375 12.128906c-10.355469 1.542969-21.191406.941406-31.902344-2.175781-39.652343-11.558594-62.425781-53.074219-50.871093-92.722656zm0 0" fill="#baeb6c"/><path d="m36.742188 32.179688c-11.554688 39.648437 11.222656 81.164062 50.875 92.722656 39.648437 11.554687 81.164062-11.21875 92.722656-50.871094 0 0-113.84375-33.082031-143.34375-41.582031" fill="#89c8fd"/><path d="m36.742188 32.179688.253906.269531c8.421875 2.425781 23.71875 6.855469 41.277344 11.949219-4.175782 35.273437 17.328124 69.421874 52.289062 80.167968-13.511719 4.175782-28.351562 4.589844-42.949219.335938-39.652343-11.558594-62.425781-53.074219-50.871093-92.722656zm0 0" fill="#60b6ff"/><path d="m473.339844 32.179688c11.554687 39.648437-11.222656 81.164062-50.871094 92.722656-39.652344 11.554687-81.167969-11.21875-92.726562-50.871094zm0 0" fill="#89c8fd"/><path d="m365.894531 63.492188c9.984375 33.464843 41.347657 54.765624 74.792969 53.332031-5.5625 3.410156-11.652344 6.160156-18.222656 8.078125-39.652344 11.554687-81.164063-11.21875-92.722656-50.871094zm0 0" fill="#60b6ff"/><path d="m440.003906 73.949219c-15-13-30 12-52 11s-25-18-25-18l25.457032-10.035157 84.878906-24.734374c4.046875 13.882812 3.867187 27.992187.246094 40.96875l-2.078126 1.300781c-.003906 0-16.503906 12.5-31.503906-.5zm0 0" fill="#baeb6c"/><path d="m181.214844 72.609375c0 41.304687 33.480468 74.785156 74.785156 74.785156s74.785156-33.480469 74.785156-74.785156zm0 0" fill="#89c8fd"/><path d="m256 147.394531c-41.300781 0-74.785156-33.480469-74.785156-74.785156h51.300781l-2.015625 11.839844s-5.5 24.5 18.5 26.5 32 23 32 23l3.578125 7.777343c-8.804687 3.644532-18.453125 5.667969-28.578125 5.667969zm0 0" fill="#baeb6c"/><path d="m225.214844 72.609375c0 33.644531 22.222656 62.097656 52.785156 71.492187-6.957031 2.136719-14.34375 3.292969-22 3.292969-41.300781 0-74.785156-33.480469-74.785156-74.785156zm0 0" fill="#96d629"/><path d="m36.742188 32.179688.253906.269531c3.0625.882812 7.042968 2.03125 11.699218 3.378906 11.074219 7.824219 25.75 22.28125 23.878907 43.121094-2.96875 33 37.582031 8 44.503906 36l2.4375 12.128906c-10.355469 1.542969-21.191406.941406-31.902344-2.175781-39.652343-11.558594-62.425781-53.074219-50.871093-92.722656zm0 0" fill="#baeb6c"/><path d="m36.742188 32.179688.253906.269531c3.0625.882812 7.042968 2.03125 11.699218 3.378906 11.074219 7.824219 25.75 22.28125 23.878907 43.121094-1.632813 18.164062 9.914062 18.757812 21.785156 20.285156 8.558594 9.628906 19.152344 17.019531 23.558594 19.898437l1.597656 7.945313c-10.355469 1.542969-21.191406.941406-31.902344-2.175781-39.652343-11.558594-62.425781-53.074219-50.871093-92.722656zm0 0" fill="#96d629"/><path d="m256 85.085938c89.132812 0 176.417969-24.617188 252.417969-71.1875 3.53125-2.164063 4.640625-6.78125 2.476562-10.316407-2.164062-3.5273435-6.78125-4.640625-10.316406-2.476562-73.636719 45.128906-158.210937 68.980469-244.578125 68.980469s-170.941406-23.851563-244.578125-68.976563c-3.535156-2.167969-8.152344-1.0546875-10.316406 2.472656-2.164063 3.535157-1.0546878 8.152344 2.476562 10.316407 76 46.570312 163.285157 71.1875 252.417969 71.1875zm0 0" fill="#09a66d"/><path d="m36.742188 388.1875.253906.269531c3.0625.882813 7.042968 2.03125 11.699218 3.378907 11.074219 7.824218 25.75 22.28125 23.878907 43.121093-2.96875 33 37.582031 8 44.503906 36l2.4375 12.128907c-10.355469 1.542968-21.191406.945312-31.902344-2.175782-39.652343-11.558594-62.425781-53.070312-50.871093-92.722656zm0 0" fill="#baeb6c"/><path d="m36.742188 388.1875c-11.554688 39.652344 11.222656 81.164062 50.875 92.722656 39.648437 11.558594 81.164062-11.21875 92.722656-50.871094 0 0-113.84375-33.082031-143.34375-41.582031" fill="#89c8fd"/><path d="m36.742188 388.1875.253906.269531c8.421875 2.425781 23.71875 6.855469 41.277344 11.949219-4.175782 35.273438 17.328124 69.425781 52.289062 80.167969-13.511719 4.175781-28.351562 4.589843-42.949219.335937-39.652343-11.558594-62.425781-53.070312-50.871093-92.722656zm0 0" fill="#60b6ff"/><path d="m473.339844 388.1875c11.554687 39.652344-11.222656 81.164062-50.871094 92.722656-39.652344 11.558594-81.167969-11.21875-92.726562-50.871094zm0 0" fill="#89c8fd"/><path d="m365.894531 419.503906c9.984375 33.460938 41.347657 54.761719 74.792969 53.328125-5.5625 3.414063-11.652344 6.164063-18.222656 8.078125-39.652344 11.558594-81.164063-11.21875-92.722656-50.871094zm0 0" fill="#60b6ff"/><path d="m440.003906 429.957031c-15-13-30 12-52 11s-25-18-25-18l25.457032-10.03125 84.878906-24.738281c4.046875 13.882812 3.867187 27.996094.246094 40.96875l-2.078126 1.300781c-.003906 0-16.503906 12.5-31.503906-.5zm0 0" fill="#baeb6c"/><path d="m181.214844 428.621094c0 41.300781 33.480468 74.78125 74.785156 74.78125s74.785156-33.480469 74.785156-74.78125zm0 0" fill="#89c8fd"/><path d="m256 503.402344c-41.300781 0-74.785156-33.480469-74.785156-74.785156h51.300781l-2.015625 11.839843s-5.5 24.5 18.5 26.5 32 23 32 23l3.578125 7.777344c-8.804687 3.648437-18.453125 5.667969-28.578125 5.667969zm0 0" fill="#baeb6c"/><path d="m225.214844 428.621094c0 33.644531 22.222656 62.09375 52.785156 71.488281-6.957031 2.136719-14.34375 3.292969-22 3.292969-41.300781 0-74.785156-33.480469-74.785156-74.785156h44zm0 0" fill="#96d629"/><path d="m36.742188 388.1875.253906.269531c3.0625.882813 7.042968 2.03125 11.699218 3.378907 11.074219 7.824218 25.75 22.28125 23.878907 43.121093-2.96875 33 37.582031 8 44.503906 36l2.4375 12.128907c-10.355469 1.542968-21.191406.945312-31.902344-2.175782-39.652343-11.558594-62.425781-53.070312-50.871093-92.722656zm0 0" fill="#baeb6c"/><path d="m36.742188 388.1875.253906.269531c3.0625.882813 7.042968 2.03125 11.699218 3.378907 11.074219 7.824218 25.75 22.28125 23.878907 43.121093-1.632813 18.164063 9.914062 18.757813 21.785156 20.285157 8.558594 9.632812 19.152344 17.019531 23.558594 19.898437l1.597656 7.945313c-10.355469 1.542968-21.191406.945312-31.902344-2.175782-39.652343-11.558594-62.425781-53.070312-50.871093-92.722656zm0 0" fill="#96d629"/><path d="m256 441.09375c89.132812 0 176.417969-24.617188 252.417969-71.1875 3.53125-2.164062 4.640625-6.78125 2.476562-10.316406-2.164062-3.527344-6.78125-4.640625-10.316406-2.472656-73.636719 45.125-158.210937 68.976562-244.578125 68.976562s-170.941406-23.851562-244.578125-68.976562c-3.535156-2.167969-8.152344-1.054688-10.316406 2.476562-2.164063 3.53125-1.0546878 8.148438 2.476562 10.3125 76 46.570312 163.285157 71.1875 252.417969 71.1875zm0 0" fill="#09a66d"/><path d="m169 164.613281c9.652344 0 9.667969-15 0-15-9.652344 0-9.671875 15 0 15zm0 0" fill="#fbb540"/><path d="m341.003906 164.613281c9.652344 0 9.667969-15 0-15-9.652344 0-9.667968 15 0 15zm0 0" fill="#fbd940"/><path d="m435.003906 179.113281c9.652344 0 9.667969-15 0-15-9.652344 0-9.667968 15 0 15zm0 0" fill="#fbb540"/><path d="m68.996094 179.113281c9.652344 0 9.667968-15 0-15-9.652344 0-9.667969 15 0 15zm0 0" fill="#fbd940"/><path d="m169 343.617188c9.652344 0 9.667969-15 0-15-9.652344 0-9.671875 15 0 15zm0 0" fill="#fbd940"/><path d="m341.003906 343.617188c9.652344 0 9.667969-15 0-15-9.652344 0-9.667968 15 0 15zm0 0" fill="#fd646f"/><path d="m435.003906 358.117188c9.652344 0 9.667969-15 0-15-9.652344 0-9.667968 15 0 15zm0 0" fill="#fbd940"/><path d="m68.996094 358.117188c9.652344 0 9.667968-15 0-15-9.652344 0-9.667969 15 0 15zm0 0" fill="#fd646f"/><path d="m475.257812 210.34375-.253906.269531c-3.0625.882813-7.039062 2.03125-11.699218 3.378907-11.074219 7.828124-25.75 22.285156-23.878907 43.125 2.96875 33-37.582031 8-44.503906 36l-2.433594 12.125c10.351563 1.542968 21.191407.945312 31.898438-2.175782 39.652343-11.554687 62.425781-53.070312 50.871093-92.722656zm0 0" fill="#baeb6c"/><path d="m475.257812 210.34375c11.554688 39.652344-11.222656 81.167969-50.871093 92.722656-39.652344 11.558594-81.167969-11.21875-92.726563-50.871094 0 0 113.84375-33.082031 143.34375-41.582031" fill="#89c8fd"/><path d="m475.257812 210.34375-.253906.269531c-8.417968 2.429688-23.71875 6.859375-41.277344 11.949219 4.179688 35.273438-17.328124 69.425781-52.289062 80.167969 13.511719 4.179687 28.351562 4.589843 42.949219.335937 39.652343-11.554687 62.425781-53.070312 50.871093-92.722656zm0 0" fill="#60b6ff"/><path d="m38.664062 210.34375c-11.558593 39.652344 11.21875 81.167969 50.871094 92.722656 39.648438 11.558594 81.164063-11.21875 92.722656-50.871094zm0 0" fill="#89c8fd"/><path d="m146.109375 241.660156c-9.988281 33.460938-41.351563 54.761719-74.796875 53.328125 5.5625 3.414063 11.65625 6.164063 18.222656 8.078125 39.652344 11.558594 81.164063-11.21875 92.722656-50.871094zm0 0" fill="#60b6ff"/><path d="m71.996094 252.113281c15-13 30 12.003907 52 11.003907s25-18.003907 25-18.003907l-25.457032-10.03125-84.875-24.738281c-4.050781 13.886719-3.871093 27.996094-.25 40.972656l2.082032 1.296875s16.5 12.503907 31.5-.5zm0 0" fill="#baeb6c"/><path d="m330.785156 250.777344c0 41.300781-33.484375 74.785156-74.785156 74.785156-41.304688 0-74.785156-33.480469-74.785156-74.785156zm0 0" fill="#89c8fd"/><path d="m256 325.5625c41.300781 0 74.785156-33.484375 74.785156-74.785156h-51.300781l2.015625 11.835937s5.5 24.5-18.5 26.5-32 23.003907-32 23.003907l-3.578125 7.777343c8.804687 3.644531 18.453125 5.667969 28.578125 5.667969zm0 0" fill="#baeb6c"/><path d="m256 216.113281c9.652344 0 9.667969-15 0-15-9.652344 0-9.667969 15 0 15zm0 0" fill="#fd646f"/><path d="m286.78125 250.777344c0 33.644531-22.21875 62.09375-52.78125 71.488281 6.953125 2.140625 14.34375 3.296875 22 3.296875 41.300781 0 74.785156-33.484375 74.785156-74.785156zm0 0" fill="#96d629"/><path d="m475.257812 210.34375-.253906.269531c-3.0625.882813-7.039062 2.03125-11.699218 3.378907-11.074219 7.828124-25.75 22.285156-23.878907 43.125 2.96875 33-37.582031 8-44.503906 36l-2.433594 12.125c10.351563 1.542968 21.191407.945312 31.898438-2.175782 39.652343-11.554687 62.425781-53.070312 50.871093-92.722656zm0 0" fill="#baeb6c"/><path d="m475.257812 210.34375-.253906.269531c-3.0625.882813-7.039062 2.03125-11.699218 3.378907-11.074219 7.828124-25.75 22.285156-23.878907 43.125 1.636719 18.160156-9.914062 18.753906-21.78125 20.285156-8.5625 9.628906-19.15625 17.015625-23.5625 19.894531l-1.59375 7.945313c10.351563 1.542968 21.191407.945312 31.898438-2.175782 39.652343-11.554687 62.425781-53.070312 50.871093-92.722656zm0 0" fill="#96d629"/><path d="m256 263.253906c-89.132812 0-176.417969-24.617187-252.417969-71.191406-3.5312498-2.164062-4.640625-6.78125-2.476562-10.3125 2.164062-3.53125 6.78125-4.644531 10.316406-2.476562 73.636719 45.125 158.210937 68.980468 244.578125 68.980468s170.941406-23.855468 244.578125-68.980468c3.535156-2.167969 8.152344-1.054688 10.316406 2.476562 2.164063 3.53125 1.054688 8.148438-2.476562 10.3125-76 46.574219-163.285157 71.191406-252.417969 71.191406zm0 0" fill="#09a66d"/></svg>