<svg height="512pt" viewBox="0 -4 512 512" width="512pt" xmlns="http://www.w3.org/2000/svg"><path d="m38.984375 438.363281c3.976563-14.667969 17.371094-25.457031 33.296875-25.457031 13.3125 0 24.855469 7.542969 30.609375 18.589844 4.273437-6.207032 11.652344-10.109375 19.894531-9.464844 10.53125.824219 19.113282 9.246094 20.117188 19.757812.285156 2.988282-.035156 5.863282-.839844 8.53125 2.703125-1.046874 5.636719-1.621093 8.707031-1.621093 13.335938 0 24.152344 10.8125 24.152344 24.152343 0 13.335938-10.816406 24.148438-24.152344 24.148438-13.339843 0-111.265625 0-111.265625 0-16.195312 0-29.324218-13.128906-29.324218-29.324219 0-16.023437 12.847656-29.035156 28.804687-29.3125zm0 0" fill="#49cb5c"/><path d="m419.707031 496.15625h-348.570312v-278.6875l174.285156-127.164062 174.285156 127.164062zm0 0" fill="#f0f0f0"/><path d="m245.421875 90.304688-22 16.050781 152.285156 111.113281v278.6875h44v-278.6875zm0 0" fill="#e8e8e8"/><path d="m316.507812 373.539062v123.109376h-142.171874v-123.109376c0-39.261718 31.824218-71.085937 71.085937-71.085937s71.085937 31.824219 71.085937 71.085937zm0 0" fill="#09a66d"/><path d="m474.46875 228.371094-216.738281-158.953125c-3.46875-2.546875-7.558594-3.816407-11.652344-3.816407-4.070313 0-8.148437 1.261719-11.605469 3.78125l-218.050781 158.957032c-8.792969 6.40625-10.726563 18.734375-4.316406 27.53125 3.855469 5.289062 9.855469 8.097656 15.9375 8.097656 4.027343 0 8.089843-1.230469 11.589843-3.78125l206.410157-150.46875 205.121093 150.433594c3.511719 2.578125 7.59375 3.816406 11.636719 3.816406 6.0625 0 12.042969-2.789062 15.902344-8.054688 6.4375-8.773437 4.539063-21.105468-4.234375-27.542968zm0 0" fill="#09a66d"/><path d="m380.136719 248.140625-86.546875-62.949219c-3.351563-2.4375-8.039063-1.699218-10.476563 1.652344s-1.699219 8.042969 1.652344 10.476562l86.546875 62.949219c1.332031.96875 2.875 1.4375 4.40625 1.4375 2.316406 0 4.601562-1.070312 6.070312-3.089843 2.4375-3.351563 1.695313-8.042969-1.652343-10.476563zm0 0" fill="#dbdbdb"/><path d="m387.050781 25.523438c40.980469-37.78125 116.578125-22.445313 116.578125-22.445313s9.152344 76.59375-31.828125 114.375-116.578125 22.441406-116.578125 22.441406-9.152344-76.59375 31.828125-114.371093zm0 0" fill="#49cb5c"/><path d="m503.628906 3.078125s-26.757812-5.425781-57.0625-1.871094c8.082032.863281 13.0625 1.871094 13.0625 1.871094s9.152344 76.59375-31.828125 114.375c-16.601562 15.304687-38.882812 21.890625-59.519531 24.3125 23.441406 2.503906 73.046875 3.78125 103.519531-24.3125 40.980469-37.78125 31.828125-114.375 31.828125-114.375zm0 0" fill="#07b128"/><path d="m504.300781 12.421875c-.257812-5.847656-.671875-9.34375-.671875-9.34375s-3.621094-.734375-9.710937-1.484375l-86.507813 79.894531v-69.582031c-5.257812 2.519531-10.300781 5.535156-15 9.128906v74.308594l-37.871094 34.972656-4.402343 4.070313c-3.042969 2.808593-3.234375 7.554687-.421875 10.597656 1.476562 1.601563 3.492187 2.410156 5.511718 2.410156 1.820313 0 3.644532-.65625 5.085938-1.988281l4.386719-4.054688 39.128906-36.132812c.835937-.515625 1.558594-1.1875 2.136719-1.976562l38.027344-35.121094h55.039062c1.296875-5.054688 2.308594-10.09375 3.082031-15h-41.878906zm0 0" fill="#09a66d"/><path d="m462.039062 423.113281c-5.007812-18.480469-21.886718-32.078125-41.949218-32.078125-16.777344 0-31.324219 9.511719-38.570313 23.425782-5.386719-7.820313-14.683593-12.738282-25.070312-11.925782-13.265625 1.039063-24.082031 11.648438-25.347657 24.898438-.359374 3.761718.042969 7.386718 1.058594 10.75-3.40625-1.316406-7.101562-2.042969-10.96875-2.042969-16.808594 0-30.429687 13.625-30.429687 30.429687 0 16.804688 13.621093 30.429688 30.429687 30.429688h140.195313c20.410156 0 36.953125-16.542969 36.953125-36.949219 0-20.191406-16.195313-36.585937-36.300782-36.9375zm0 0" fill="#49cb5c"/><path d="m337.519531 414.460938c1.035157-1.992188 2.238281-3.878907 3.558594-5.675782-1.628906 1.347656-3.089844 2.886719-4.378906 4.566406.28125.363282.558593.730469.820312 1.109376zm0 0" fill="#07b128"/><path d="m462.039062 423.113281c-5.007812-18.480469-21.886718-32.078125-41.949218-32.078125-8.027344 0-15.53125 2.195313-21.984375 5.992188 9.664062 5.691406 16.933593 15.007812 19.933593 26.085937 20.105469.351563 36.300782 16.746094 36.300782 36.9375 0 20.40625-16.546875 36.949219-36.953125 36.949219h44c20.410156 0 36.953125-16.542969 36.953125-36.949219 0-20.191406-16.195313-36.585937-36.300782-36.9375zm0 0" fill="#07b128"/><path d="m504.5 504.5h-497c-4.140625 0-7.5-3.355469-7.5-7.5s3.359375-7.5 7.5-7.5h497c4.144531 0 7.5 3.355469 7.5 7.5s-3.355469 7.5-7.5 7.5zm0 0" fill="#09a66d"/></svg>