<svg height="512pt" viewBox="0 0 512.00087 512" width="512pt" xmlns="http://www.w3.org/2000/svg"><path d="m426.863281 291.964844c-4.140625 0-7.496093-3.355469-7.496093-7.5 0-4.140625 3.355468-7.5 7.496093-7.5 22.261719 0 45.988281-15.085938 59.042969-37.542969 16.78125-28.871094 14.40625-65.175781-6.695312-102.226563-2.046876-3.597656-.792969-8.179687 2.808593-10.226562 3.597657-2.050781 8.175781-.796875 10.226563 2.804688 32.183594 56.515624 17.964844 97.679687 6.625 117.1875-15.648438 26.917968-44.585938 45.003906-72.007813 45.003906zm0 0" fill="#0181fb"/><path d="m495.46875 116.484375c0 11.046875-8.953125 20-19.996094 20-11.042968 0-19.996094-8.953125-19.996094-20 0-11.042969 8.953126-19.996094 19.996094-19.996094 11.042969 0 19.996094 8.953125 19.996094 19.996094zm0 0" fill="#0181fb"/><path d="m85.136719 288.964844c-27.421875 0-56.359375-18.085938-72.007813-45.003906-11.339844-19.507813-25.558594-60.671876 6.625-117.1875 2.050782-3.601563 6.628906-4.855469 10.230469-2.804688 3.597656 2.046875 4.851563 6.628906 2.804687 10.226562-21.097656 37.050782-23.476562 73.355469-6.691406 102.226563 13.054688 22.457031 36.78125 37.542969 59.039063 37.542969 4.140625 0 7.5 3.359375 7.5 7.5 0 4.144531-3.359375 7.5-7.5 7.5zm0 0" fill="#0181fb"/><path d="m56.523438 113.488281c0 11.042969-8.953126 19.996094-19.996094 19.996094-11.046875 0-20-8.953125-20-19.996094 0-11.046875 8.953125-20 20-20 11.042968 0 19.996094 8.953125 19.996094 20zm0 0" fill="#0181fb"/><path d="m399.480469 163.480469 19.132812-156.996094-126.90625 71.703125zm0 0" fill="#fd646f"/><path d="m338.886719 51.527344-47.179688 26.660156 15.9375 12.613281h100.695313l4.785156-39.273437zm0 0" fill="#fbb540"/><path d="m430.515625 250.96875c0-96.636719-78.132813-174.976562-174.515625-174.976562s-174.515625 78.339843-174.515625 174.976562c0 96.640625 78.132813 174.980469 174.515625 174.980469s174.515625-78.339844 174.515625-174.980469zm0 0" fill="#89c8fd"/><path d="m256 75.992188c-7.453125 0-14.792969.46875-21.996094 1.378906 85.996094 10.84375 152.515625 84.429687 152.515625 173.597656s-66.519531 162.753906-152.515625 173.597656c7.203125.910156 14.542969 1.382813 21.996094 1.382813 96.382812 0 174.515625-78.339844 174.515625-174.980469 0-96.636719-78.132813-174.976562-174.515625-174.976562zm0 0" fill="#60b6ff"/><path d="m140.066406 330.148438c-8.074218-12.3125 14.28125-41.273438 19.320313-63.175782 5.042969-21.898437-25.203125-20.214844-34.445313-27.796875-9.238281-7.578125-21.839844-40.429687-31.082031-48.011719l-1.335937-1.546874c-7.128907 19.089843-11.039063 39.761718-11.039063 61.351562 0 56.378906 26.597656 106.519531 67.894531 138.523438l3.289063-1.222657s6.71875-28.636719-12.601563-58.121093zm0 0" fill="#baeb6c"/><path d="m232.105469 116.886719c12 21.429687 57.433593 3.429687 81.4375 36.003906 15.167969 20.589844 34.71875 77.582031 99.4375 40.289063l6.363281-3.90625c-24.882812-66.191407-88.625-113.28125-163.34375-113.28125-6.160156 0-12.242188.324218-18.238281.949218l-.085938.082032s-17.574219 18.433593-5.570312 39.863281zm0 0" fill="#baeb6c"/><path d="m394.011719 358.058594-.757813-.265625s3.289063 2.347656-27.734375-8.933594c-31.023437-11.28125-23.5 41.363281-81.789062 26.324219-25.550781-6.59375-27.261719 37.601562-28.199219 48.882812l.023438 1.875c.148437 0 .296874.007813.445312.007813 56.144531 0 106.089844-26.589844 138.011719-67.890625zm0 0" fill="#baeb6c"/><path d="m255.554688 425.941406c.140624 0 .28125.007813.425781.007813-.144531 0-.285157-.007813-.425781-.007813zm0 0" fill="#baeb6c"/><path d="m393.253906 357.792969s3.289063 2.347656-27.734375-8.933594c-2.90625-1.058594-5.476562-1.550781-7.792969-1.59375-23.464843 35.621094-59.570312 62.132813-101.914062 73.109375-.109375 1.445312-.199219 2.699219-.28125 3.691406l.023438 1.875c.140624 0 .28125.007813.425781.007813h.019531c56.144531 0 106.089844-26.589844 138.011719-67.890625zm0 0" fill="#96d629"/><path d="m240.707031 76.671875c1-.085937 2.003907-.167969 3.011719-.238281-1.007812.070312-2.011719.152344-3.011719.238281zm0 0" fill="#baeb6c"/><path d="m237.761719 76.941406-.019531.015625c.289062-.027343.574218-.066406.863281-.09375-.28125.027344-.566407.046875-.84375.078125zm0 0" fill="#baeb6c"/><path d="m245.796875 76.296875c1.105469-.0625 2.210937-.113281 3.324219-.15625-1.113282.042969-2.21875.09375-3.324219.15625zm0 0" fill="#baeb6c"/><path d="m250.878906 76.070312c1.699219-.046874 3.40625-.078124 5.121094-.078124-1.714844 0-3.417969.03125-5.121094.078124zm0 0" fill="#baeb6c"/><path d="m419.34375 189.273438c-24.882812-66.191407-88.625-113.28125-163.34375-113.28125-1.714844 0-3.417969.03125-5.121094.078124-.585937.019532-1.171875.046876-1.761718.070313-1.109376.042969-2.214844.09375-3.320313.15625-.695313.042969-1.386719.089844-2.078125.136719-1.007812.070312-2.011719.152344-3.011719.238281-.703125.058594-1.40625.121094-2.105469.191406-.285156.027344-.570312.066407-.859374.09375l-.066407.066407s-.253906.269531-.667969.761718c69.324219 9.972656 125.484376 60.792969 143.453126 127.355469 9.375-1.136719 20.113281-4.8125 32.519531-11.960937zm0 0" fill="#96d629"/><path d="m235.316406 239.6875c-4.140625 0-7.5-3.359375-7.5-7.5 0-10.039062-8.164062-18.203125-18.203125-18.203125-10.035156 0-18.203125 8.164063-18.203125 18.203125 0 4.140625-3.355468 7.5-7.5 7.5-4.140625 0-7.496094-3.359375-7.496094-7.5 0-18.308594 14.890626-33.203125 33.199219-33.203125 18.308594 0 33.203125 14.894531 33.203125 33.203125 0 4.140625-3.359375 7.5-7.5 7.5zm0 0" fill="#0181fb"/><path d="m328.089844 239.6875c-4.144532 0-7.5-3.359375-7.5-7.5 0-10.039062-8.167969-18.203125-18.203125-18.203125-10.039063 0-18.203125 8.164063-18.203125 18.203125 0 4.140625-3.359375 7.5-7.5 7.5-4.144532 0-7.5-3.359375-7.5-7.5 0-18.308594 14.894531-33.203125 33.203125-33.203125 18.308593 0 33.199219 14.894531 33.199219 33.203125 0 4.140625-3.355469 7.5-7.496094 7.5zm0 0" fill="#0181fb"/><path d="m330.25 266.542969c0 41.007812-33.242188 74.25-74.25 74.25s-74.25-33.242188-74.25-74.25zm0 0" fill="#fff"/><path d="m201.699219 317.15625c13.550781 14.535156 32.859375 23.636719 54.300781 23.636719 21.433594 0 40.734375-9.09375 54.285156-23.621094-55.304687-34.257813-104.226562-2.953125-108.585937-.015625zm0 0" fill="#fd646f"/><g fill="#fbd940"><path d="m119.339844 27.996094c-4.140625 0-7.5-3.355469-7.5-7.5v-12.996094c0-4.144531 3.359375-7.5 7.5-7.5 4.144531 0 7.5 3.355469 7.5 7.5v12.996094c0 4.144531-3.355469 7.5-7.5 7.5zm0 0"/><path d="m95.769531 42.179688c-1.269531 0-2.558593-.324219-3.742187-1.007813l-11.257813-6.496094c-3.585937-2.074219-4.8125-6.660156-2.742187-10.246093 2.070312-3.585938 6.65625-4.816407 10.242187-2.742188l11.257813 6.496094c3.585937 2.070312 4.816406 6.660156 2.746094 10.246094-1.390626 2.40625-3.910157 3.75-6.503907 3.75zm0 0"/><path d="m85.027344 76.175781c-2.589844 0-5.113282-1.34375-6.5-3.75-2.070313-3.585937-.84375-8.175781 2.742187-10.246093l11.257813-6.5c3.585937-2.066407 8.175781-.839844 10.246094 2.746093 2.070312 3.585938.839843 8.171875-2.746094 10.246094l-11.257813 6.496094c-1.179687.683593-2.46875 1.007812-3.742187 1.007812zm0 0"/><path d="m120.339844 95.988281c-4.140625 0-7.5-3.355469-7.5-7.5v-12.996093c0-4.144532 3.359375-7.5 7.5-7.5 4.144531 0 7.5 3.355468 7.5 7.5v12.996093c0 4.144531-3.355469 7.5-7.5 7.5zm0 0"/><path d="m155.152344 75.308594c-1.269532 0-2.558594-.324219-3.742188-1.003906l-11.257812-6.5c-3.585938-2.070313-4.8125-6.65625-2.742188-10.242188 2.066406-3.589844 6.652344-4.816406 10.242188-2.746094l11.257812 6.5c3.585938 2.070313 4.816406 6.65625 2.746094 10.242188-1.390625 2.40625-3.910156 3.75-6.503906 3.75zm0 0"/><path d="m143.410156 41.3125c-2.589844 0-5.113281-1.34375-6.5-3.75-2.070312-3.585938-.84375-8.171875 2.742188-10.242188l11.257812-6.5c3.585938-2.066406 8.175782-.84375 10.246094 2.746094 2.070312 3.585938.839844 8.171875-2.746094 10.242188l-11.257812 6.5c-1.179688.679687-2.46875 1.003906-3.742188 1.003906zm0 0"/><path d="m468.648438 443.945312c-4.140626 0-7.496094-3.355468-7.496094-7.5v-12.996093c0-4.144531 3.355468-7.5 7.496094-7.5 4.144531 0 7.5 3.355469 7.5 7.5v12.996093c0 4.144532-3.355469 7.5-7.5 7.5zm0 0"/><path d="m445.082031 458.128906c-1.273437 0-2.5625-.324218-3.746093-1.007812l-11.253907-6.5c-3.589843-2.070313-4.816406-6.65625-2.746093-10.242188 2.070312-3.585937 6.652343-4.8125 10.242187-2.746094l11.257813 6.5c3.585937 2.070313 4.816406 6.65625 2.746093 10.246094-1.390625 2.40625-3.910156 3.75-6.5 3.75zm0 0"/><path d="m434.335938 492.125c-2.589844 0-5.113282-1.347656-6.5-3.75-2.070313-3.589844-.84375-8.175781 2.746093-10.246094l11.253907-6.5c3.585937-2.066406 8.175781-.839844 10.246093 2.746094 2.070313 3.585938.839844 8.171875-2.746093 10.242188l-11.257813 6.5c-1.179687.683593-2.46875 1.007812-3.742187 1.007812zm0 0"/><path d="m469.648438 511.9375c-4.140626 0-7.5-3.355469-7.5-7.5v-12.996094c0-4.144531 3.359374-7.5 7.5-7.5 4.144531 0 7.5 3.355469 7.5 7.5v12.996094c0 4.144531-3.355469 7.5-7.5 7.5zm0 0"/><path d="m504.460938 491.257812c-1.269532 0-2.5625-.324218-3.742188-1.003906l-11.257812-6.5c-3.585938-2.070312-4.8125-6.65625-2.742188-10.242187 2.066406-3.589844 6.652344-4.816407 10.242188-2.746094l11.257812 6.5c3.585938 2.070313 4.816406 6.65625 2.746094 10.242187-1.390625 2.40625-3.910156 3.75-6.503906 3.75zm0 0"/><path d="m492.71875 457.261719c-2.59375 0-5.113281-1.34375-6.5-3.75-2.070312-3.585938-.84375-8.171875 2.742188-10.242188l11.257812-6.5c3.585938-2.070312 8.175781-.84375 10.246094 2.746094 2.070312 3.585937.839844 8.171875-2.746094 10.242187l-11.257812 6.5c-1.179688.679688-2.46875 1.003907-3.742188 1.003907zm0 0"/></g><path d="m60.25 339.429688-11.785156 97.226562 83.558594-51.089844" fill="#fd646f"/><path d="m134.441406 386.417969 13.425782 97.015625 67.746093-70.730469" fill="#fbb540"/><path d="m216.046875 414.453125 36.894531 90.726563 48.25-85.230469" fill="#fd646f"/><path d="m301.234375 419.144531 56.328125 80.121094 27.878906-93.890625" fill="#fbb540"/><path d="m281.976562 426.640625c-7.417968 0-14.78125-.222656-22.101562-.671875-44.203125-2.707031-86.652344-13.558594-126.171875-32.253906-67.359375-31.863282-102.4375-75-103.898437-76.820313-2.589844-3.230469-2.070313-7.953125 1.160156-10.542969 3.230468-2.589843 7.945312-2.074218 10.539062 1.152344.339844.421875 34.789063 42.632813 99.257813 72.957032 37.742187 17.753906 78.285156 28.039062 120.503906 30.566406 52.867187 3.160156 108.597656-5.890625 165.636719-26.914063 3.886718-1.433593 8.195312.558594 9.628906 4.445313 1.433594 3.882812-.558594 8.195312-4.441406 9.628906-51.3125 18.910156-101.703125 28.453125-150.113282 28.453125zm0 0" fill="#fbd940"/></svg>