<svg height="511pt" viewBox="0 0 511.99916 511" width="511pt" xmlns="http://www.w3.org/2000/svg"><path d="m498.070312 453.042969c-3.03125 32.113281-25.117187 58.402343-56.101562 58.402343s-53.621094-26.246093-56.101562-58.402343c-5.246094-67.949219 56.101562-106.722657 56.101562-106.722657s62.347656 40.554688 56.101562 106.722657zm0 0" fill="#89c8fd"/><path d="m441.96875 346.320312s-10.71875 6.78125-22.8125 19.628907c17.136719 18.15625 37.164062 48.195312 33.496094 87.09375-2.222656 23.558593-14.714844 43.972656-33.445313 53.179687 6.847657 3.34375 14.503907 5.222656 22.761719 5.222656 30.984375 0 53.070312-26.289062 56.101562-58.402343 6.246094-66.167969-56.101562-106.722657-56.101562-106.722657zm0 0" fill="#60b6ff"/><path d="m442 487.976562c-4.273438 0-7.742188-3.464843-7.742188-7.742187s3.46875-7.742187 7.742188-7.742187c11.449219 0 20.761719-10.121094 20.761719-22.558594 0-4.277344 3.464843-7.742188 7.742187-7.742188s7.742188 3.464844 7.742188 7.742188c0 20.976562-16.257813 38.042968-36.246094 38.042968zm0 0" fill="#0181fb"/><path d="m490.644531 253.492188c0-48.976563-19.074219-95.015626-53.710937-129.648438-34.632813-34.628906-80.683594-53.699219-129.664063-53.699219h-176.574219v94.890625h176.574219c48.78125 0 88.46875 39.679688 88.46875 88.457032v32.136718h95.96875zm0 0" fill="#f0f0f0"/><path d="m490.644531 253.492188c0-48.976563-19.074219-95.015626-53.710937-129.648438-34.632813-34.628906-80.683594-53.699219-129.664063-53.699219h-45.417969c48.980469 0 95.027344 19.070313 129.664063 53.699219 34.632813 34.632812 53.707031 80.675781 53.707031 129.648438l1.066406 32.136718h45.417969zm0 0" fill="#e8e8e8"/><path d="m490.761719 315.367188h-98.476563c-11.730468 0-21.238281-9.507813-21.238281-21.234376 0-11.730468 9.507813-21.238281 21.238281-21.238281h98.476563c11.730469 0 21.238281 9.507813 21.238281 21.238281 0 11.726563-9.507812 21.234376-21.238281 21.234376zm0 0" fill="#e8e8e8"/><path d="m490.761719 272.894531h-45.417969c11.730469 0 21.238281 9.507813 21.238281 21.238281 0 11.726563-9.507812 21.234376-21.238281 21.234376h45.417969c11.730469 0 21.238281-9.507813 21.238281-21.234376 0-11.730468-9.507812-21.238281-21.238281-21.238281zm0 0" fill="#dbdbdb"/><path d="m69.667969 235.246094c-14.515625-6.011719-15.730469-31.730469-26.1875-42.191406-10.835938-10.84375-36.425781-12.238282-42.203125-26.183594-5.777344-13.941406 11.324218-33.027344 11.316406-48.359375-.007812-14.789063-17.335938-33.832031-11.328125-48.34375 6.011719-14.515625 31.730469-15.734375 42.191406-26.1875 10.84375-10.839844 12.242188-36.425781 26.183594-42.203125 13.945313-5.777344 33.027344 11.324218 48.359375 11.316406 14.789062-.007812 33.832031-17.339844 48.347656-11.328125s15.730469 31.730469 26.183594 42.191406c10.839844 10.84375 36.425781 12.238281 42.203125 26.183594 5.777344 13.941406-11.324219 33.027344-11.316406 48.359375.007812 14.789062 17.339843 33.832031 11.328125 48.347656-6.011719 14.515625-31.730469 15.730469-42.191406 26.183594-10.84375 10.835938-12.238282 36.425781-26.183594 42.203125-13.941406 5.777344-33.027344-11.324219-48.355469-11.316406-14.792969.007812-33.835937 17.339843-48.347656 11.328125zm0 0" fill="#e8e8e8"/><path d="m137.863281 70.554688c-26.484375-10.964844-56.84375 1.613281-67.8125 28.097656-10.964843 26.484375 1.613281 56.84375 28.097657 67.8125 26.484374 10.96875 56.84375-1.609375 67.8125-28.09375s-1.613282-56.847656-28.097657-67.816406zm0 0" fill="#89c8fd"/><path d="m137.863281 70.550781c-14.277343-5.914062-29.675781-4.972656-42.5625 1.292969 24.515625 11.90625 35.808594 41.007812 25.242188 66.519531-5.054688 12.207031-14.230469 21.449219-25.246094 26.804688.933594.453125 1.882813.890625 2.855469 1.292969 26.484375 10.96875 56.84375-1.609376 67.8125-28.097657 10.96875-26.484375-1.617188-56.84375-28.101563-67.8125zm0 0" fill="#60b6ff"/><path d="m286.703125 247.769531c-.074219-2.351562-1.210937-4.542969-3.09375-5.957031-1.878906-1.414062-4.304687-1.894531-6.582031-1.304688l-32.503906 8.390626c-4.140626 1.066406-6.632813 5.289062-5.5625 9.429687 1.070312 4.140625 5.292968 6.628906 9.429687 5.5625l10.820313-2.792969c-33.582032 44.277344-85.738282 70.390625-141.730469 70.390625-37.183594 0-72.796875-11.355469-102.988281-32.835937-3.484376-2.480469-8.316407-1.664063-10.796876 1.820312-2.476562 3.484375-1.664062 8.320313 1.820313 10.796875 32.828125 23.355469 71.546875 35.703125 111.96875 35.703125 61.054687 0 117.910156-28.554687 154.398437-76.953125l.390626 12.824219c.125 4.191406 3.566406 7.503906 7.734374 7.503906.078126 0 .15625 0 .238282-.003906 4.273437-.128906 7.632812-3.695312 7.503906-7.972656zm0 0" fill="#0181fb"/></svg>