<svg height="512pt" viewBox="-4 0 512 512.00102" width="512pt" xmlns="http://www.w3.org/2000/svg"><path d="m503.558594 317.125s-56.390625-8.683594-63.457032 28.898438c-7.066406-37.582032-63.457031-28.898438-63.457031-28.898438s-9.261719 52.445312 43.625 63.164062v20.121094c0 15.75-12.867187 29.238282-28.601562 29.132813-14.183594-.097657-26.0625-10.667969-27.96875-24.757813-11.546875-85.4375-82.027344-152.140625-169.113281-157.746094-106.960938-6.890624-194.585938 77.113282-194.585938 184.417969 0 44.480469 36.019531 80.542969 80.453125 80.542969h288.929687c52.09375 0 94.324219-42.277344 94.324219-94.429688v-38.148437c48.660157-12.398437 39.851563-62.296875 39.851563-62.296875zm0 0" fill="#cbe6f7"/><path d="m319.019531 404.78125c1.902344 14.089844 13.785157 24.664062 27.964844 24.757812 9.039063.0625 17.125-4.367187 22.378906-11.128906-2.957031-3.859375-4.972656-8.507812-5.664062-13.628906-1.457031-10.765625-3.851563-21.234375-7.09375-31.320312-7.074219-22.105469-16.210938-36.320313-25.210938-50.136719-30.96875-43.386719-80.402343-72.65625-136.8125-76.289063-11.78125-.757812-23.328125-.410156-34.550781.945313 82.375 9.914062 147.886719 74.707031 158.988281 156.800781zm0 0" fill="#bee1f7"/><path d="m503.558594 317.125s-25.347656-3.898438-44.179688 4.851562c.765625 12.835938-.980468 47.414063-40.351562 57.445313v.59375c.414062.089844.820312.1875 1.242187.273437v20.121094c0 2.894532-.4375 5.707032-1.242187 8.375v8.785156c0 52.152344-42.230469 94.429688-94.324219 94.429688h44.683594c52.089843 0 94.320312-42.277344 94.320312-94.429688v-38.148437c48.660157-12.398437 39.851563-62.296875 39.851563-62.296875zm0 0" fill="#bee1f7"/><path d="m115.605469 428.585938c-4.207031 0-7.617188-3.40625-7.617188-7.613282 0-10.601562-8.621093-19.222656-19.222656-19.222656-10.597656 0-19.222656 8.621094-19.222656 19.222656 0 4.207032-3.410157 7.613282-7.613281 7.613282-4.207032 0-7.617188-3.40625-7.617188-7.613282 0-19 15.457031-34.457031 34.453125-34.457031 19 0 34.453125 15.457031 34.453125 34.457031 0 4.203125-3.410156 7.613282-7.613281 7.613282zm0 0" fill="#97c9e8"/><path d="m185.089844 169.414062c-4.203125 0-7.613282-3.410156-7.613282-7.617187 0-13.960937-11.359374-25.316406-25.316406-25.316406-13.957031 0-25.316406 11.355469-25.316406 25.316406 0 4.207031-3.410156 7.617187-7.613281 7.617187-4.207031 0-7.617188-3.410156-7.617188-7.617187 0-22.359375 18.1875-40.546875 40.546875-40.546875 22.039063 0 40.03125 17.675781 40.535156 39.597656.007813.136719.011719.273438.011719.410156v.539063c0 4.207031-3.410156 7.617187-7.617187 7.617187zm0 0" fill="#60b6ff"/><path d="m57.699219 138.0625c-4.207031 0-7.613281-3.410156-7.613281-7.617188v-24.558593c0-4.207031 3.40625-7.613281 7.613281-7.613281s7.617187 3.40625 7.617187 7.613281v24.558593c0 4.207032-3.410156 7.617188-7.617187 7.617188zm0 0" fill="#0181fb"/><path d="m57.699219 175.632812c-4.207031 0-7.613281-3.410156-7.613281-7.617187v-7.292969c0-4.207031 3.40625-7.613281 7.613281-7.613281s7.617187 3.40625 7.617187 7.613281v7.292969c0 4.207031-3.410156 7.617187-7.617187 7.617187zm0 0" fill="#60b6ff"/><path d="m118.628906 219.300781c-4.207031 0-7.617187-3.410156-7.617187-7.617187v-18.464844c0-4.207031 3.410156-7.617188 7.617187-7.617188 4.207032 0 7.617188 3.410157 7.617188 7.617188v18.464844c0 4.207031-3.410156 7.617187-7.617188 7.617187zm0 0" fill="#0181fb"/><path d="m286.679688 159.011719c-4.207032 0-7.613282-3.40625-7.613282-7.613281v-4.941407c0-4.207031 3.40625-7.617187 7.613282-7.617187 4.207031 0 7.617187 3.410156 7.617187 7.617187v4.941407c0 4.203124-3.410156 7.613281-7.617187 7.613281zm0 0" fill="#0181fb"/><g fill="#60b6ff"><path d="m286.679688 213.847656c-4.207032 0-7.613282-3.40625-7.613282-7.613281v-27.28125c0-4.207031 3.40625-7.617187 7.613282-7.617187 4.207031 0 7.617187 3.410156 7.617187 7.617187v27.28125c0 4.203125-3.410156 7.613281-7.617187 7.613281zm0 0"/><path d="m185.089844 222.539062c-4.203125 0-7.613282-3.410156-7.613282-7.617187v-143.609375c0-30.921875-25.15625-56.082031-56.082031-56.082031-30.921875 0-56.078125 25.160156-56.078125 56.082031 0 4.207031-3.410156 7.617188-7.617187 7.617188s-7.613281-3.410157-7.613281-7.617188c0-39.320312 31.988281-71.3125 71.308593-71.3125 39.324219 0 71.3125 31.992188 71.3125 71.3125v143.609375c0 4.207031-3.410156 7.617187-7.617187 7.617187zm0 0"/><path d="m185.089844 195.578125c-4.203125 0-7.613282-3.410156-7.613282-7.617187v-73.023438c0-32.207031 26.199219-58.410156 58.410157-58.410156 32.207031 0 58.410156 26.203125 58.410156 58.410156 0 4.207031-3.410156 7.617188-7.617187 7.617188-4.207032 0-7.617188-3.410157-7.617188-7.617188 0-23.808594-19.367188-43.179688-43.175781-43.179688-23.808594 0-43.179688 19.371094-43.179688 43.179688v73.023438c0 4.207031-3.410156 7.617187-7.617187 7.617187zm0 0"/></g><path d="m184.222656 276.773438c14.820313 0 26.835938-12.015626 26.835938-26.839844l-.007813-1.082032c-5.414062-.847656-10.90625-1.457031-16.46875-1.816406-12.722656-.816406-25.167969-.335937-37.230469 1.304688l.03125 1.597656c0 14.820312 12.015626 26.835938 26.839844 26.835938zm0 0" fill="#97c9e8"/></svg>