<svg height="512pt" viewBox="0 0 512.00008 512" width="512pt" xmlns="http://www.w3.org/2000/svg"><path d="m256.535156 83.785156c-4.144531 0-7.5 3.359375-7.5 7.5v50.382813c0 4.144531 3.355469 7.5 7.5 7.5 4.144532 0 7.5-3.355469 7.5-7.5v-50.382813c0-4.140625-3.355468-7.5-7.5-7.5zm0 0" fill="#9e9e9e"/><path d="m231.84375 213.335938v-64.066407c0-9.289062 7.535156-16.824219 16.828125-16.824219h15.652344c9.292969 0 16.824219 7.535157 16.824219 16.824219v64.066407" fill="#f0f0f0"/><path d="m100.429688 364.371094c0-85.921875 69.652343-155.574219 155.570312-155.574219s155.570312 69.652344 155.570312 155.574219zm0 0" fill="#89c8fd"/><path d="m256 208.796875c-7.46875 0-14.8125.539063-22 1.558594 75.5 10.6875 133.570312 75.5625 133.570312 154.015625h44c0-85.921875-69.652343-155.574219-155.570312-155.574219zm0 0" fill="#60b6ff"/><path d="m207.671875 329.390625c-4.601563-12.890625 8.285156-34.0625-23.933594-41.425781-32.21875-7.363282-27.617187-32.21875-27.15625-42.804688l-2.3125 1.507813c-32.976562 28.527343-53.839843 70.679687-53.839843 117.703125h175.789062c-1.957031-32.117188-63.964844-22.15625-68.546875-34.980469zm0 0" fill="#baeb6c"/><path d="m289.601562 249.300781c-.921874 12.890625 33.136719 9.207031 44.183594 23.933594 11.046875 14.730469 1.839844 40.503906 29.457032 50.632813 27.617187 10.125 39.125-7.828126 39.125-7.828126l1.117187-1.296874c-15.660156-46.5625-52.753906-83.265626-99.554687-98.40625l-.0625 2.128906c.460937 15.1875-13.347657 17.949218-14.265626 30.835937zm0 0" fill="#baeb6c"/><path d="m303.929688 216.335938-.0625 2.128906c.226562 7.394531-2.933594 11.84375-6.34375 15.953125 31.1875 20.558593 54.527343 52.035156 64.589843 88.996093.378907.148438.738281.308594 1.128907.453126 27.617187 10.125 39.125-7.828126 39.125-7.828126l1.117187-1.296874c-15.660156-46.5625-52.753906-83.265626-99.554687-98.40625zm0 0" fill="#96d629"/><path d="m475.097656 501.433594h-438.195312v-107.742188c0-16.460937 13.347656-29.808594 29.808594-29.808594h378.578124c16.460938 0 29.808594 13.347657 29.808594 29.808594zm0 0" fill="#de9252"/><path d="m445.289062 363.882812h-48c16.460938 0 29.808594 13.347657 29.808594 29.8125v107.738282h48v-107.738282c0-16.464843-13.347656-29.8125-29.808594-29.8125zm0 0" fill="#d9833b"/><path d="m273.242188 84.8125c0 9.519531-7.71875 17.238281-17.242188 17.238281s-17.242188-7.71875-17.242188-17.238281c0-9.523438 17.242188-39.289062 17.242188-39.289062s17.242188 29.765624 17.242188 39.289062zm0 0" fill="#fbb540"/><path d="m256 15c9.652344 0 9.667969-15 0-15-9.652344 0-9.667969 15 0 15zm0 0" fill="#fbd940"/><path d="m219.191406 25.4375c9.652344 0 9.667969-15 0-15-9.648437 0-9.667968 15 0 15zm0 0" fill="#fbd940"/><path d="m192.535156 52.878906c9.652344 0 9.667969-15 0-15-9.652344 0-9.667968 15 0 15zm0 0" fill="#fbd940"/><path d="m183.171875 89.972656c9.652344 0 9.667969-15 0-15-9.652344 0-9.667969 15 0 15zm0 0" fill="#fbd940"/><path d="m193.605469 126.777344c9.652343 0 9.667969-15 0-15-9.652344 0-9.667969 15 0 15zm0 0" fill="#fbd940"/><path d="m321.605469 124.921875c9.652343 0 9.667969-15 0-15-9.648438 0-9.664063 15 0 15zm0 0" fill="#fbd940"/><path d="m330.972656 87.828125c9.652344 0 9.667969-15 0-15-9.652344 0-9.667968 15 0 15zm0 0" fill="#fbd940"/><path d="m320.535156 51.023438c9.652344 0 9.667969-15 0-15-9.652344 0-9.667968 15 0 15zm0 0" fill="#fbd940"/><path d="m293.09375 24.363281c9.652344 0 9.667969-15 0-15-9.652344 0-9.667969 15 0 15zm0 0" fill="#fbd940"/><path d="m36.707031 403.960938c54.820313 0 54.820313 34 109.640625 34 54.824219 0 54.824219-34 109.644532-34 54.828124 0 54.828124 34 109.652343 34s54.824219-34 109.652344-34" fill="#fff"/><path d="m445.289062 363.882812h-378.578124c-16.460938 0-29.808594 13.347657-29.808594 29.8125v10.269532c54.621094.082031 54.691406 34 109.445312 34 54.824219 0 54.824219-34 109.644532-34 54.828124 0 54.828124 34 109.652343 34 54.757813 0 54.828125-33.917969 109.453125-34v-10.269532c0-16.464843-13.347656-29.8125-29.808594-29.8125zm0 0" fill="#ab632e"/><path d="m445.289062 363.882812h-48c16.460938 0 29.808594 13.347657 29.808594 29.8125v23.230469c11.777344-6.9375 25.089844-12.925781 48-12.960937v-10.273438c0-16.460937-13.347656-29.808594-29.808594-29.808594zm0 0" fill="#995929"/><g fill="#fff"><path d="m146.21875 478.265625c9.652344 0 9.667969-15 0-15-9.652344 0-9.667969 15 0 15zm0 0"/><path d="m254.929688 442.921875c9.652343 0 9.667968-15 0-15-9.652344 0-9.667969 15 0 15zm0 0"/><path d="m219.585938 456.84375c9.652343 0 9.667968-15 0-15-9.652344 0-9.667969 15 0 15zm0 0"/><path d="m184.242188 471.839844c9.652343 0 9.667968-15 0-15-9.652344 0-9.667969 15 0 15zm0 0"/><path d="m437.003906 456.84375c9.652344 0 9.667969-15 0-15-9.652344 0-9.667968 15 0 15zm0 0"/><path d="m401.660156 471.839844c9.652344 0 9.667969-15 0-15-9.652344 0-9.667968 15 0 15zm0 0"/><path d="m291.34375 456.84375c9.652344 0 9.667969-15 0-15-9.652344 0-9.667969 15 0 15zm0 0"/><path d="m326.6875 471.839844c9.652344 0 9.667969-15 0-15-9.652344 0-9.667969 15 0 15zm0 0"/><path d="m71.78125 456.84375c9.652344 0 9.667969-15 0-15-9.652344 0-9.667969 15 0 15zm0 0"/><path d="m107.125 471.839844c9.652344 0 9.667969-15 0-15-9.648438 0-9.664062 15 0 15zm0 0"/><path d="m362.566406 478.265625c9.652344 0 9.667969-15 0-15-9.652344 0-9.664062 15 0 15zm0 0"/></g><path d="m421.085938 63.464844c-4.140626 0-7.5-3.355469-7.5-7.496094v-13c0-4.144531 3.359374-7.5 7.5-7.5 4.144531 0 7.5 3.355469 7.5 7.5v13c0 4.140625-3.355469 7.496094-7.5 7.496094zm0 0" fill="#fd646f"/><path d="m397.515625 77.648438c-1.273437 0-2.5625-.324219-3.742187-1.003907l-11.261719-6.5c-3.585938-2.070312-4.8125-6.660156-2.742188-10.246093 2.070313-3.585938 6.65625-4.816407 10.242188-2.746094l11.261719 6.5c3.585937 2.074218 4.816406 6.660156 2.742187 10.246094-1.386719 2.40625-3.90625 3.75-6.5 3.75zm0 0" fill="#fd646f"/><path d="m386.769531 111.648438c-2.589843 0-5.113281-1.34375-6.5-3.75-2.070312-3.585938-.84375-8.171876 2.742188-10.246094l11.261719-6.5c3.585937-2.066406 8.175781-.839844 10.242187 2.746094 2.074219 3.585937.84375 8.175781-2.742187 10.246093l-11.261719 6.5c-1.179688.679688-2.46875 1.003907-3.742188 1.003907zm0 0" fill="#fd646f"/><path d="m422.085938 131.464844c-4.140626 0-7.5-3.355469-7.5-7.5v-13c0-4.140625 3.359374-7.5 7.5-7.5 4.144531 0 7.5 3.359375 7.5 7.5v13c0 4.144531-3.355469 7.5-7.5 7.5zm0 0" fill="#fd646f"/><path d="m456.902344 110.785156c-1.269532 0-2.558594-.324218-3.742188-1.007812l-11.257812-6.5c-3.585938-2.070313-4.816406-6.65625-2.746094-10.242188 2.070312-3.589844 6.65625-4.816406 10.246094-2.746094l11.257812 6.5c3.589844 2.070313 4.816406 6.65625 2.746094 10.246094-1.386719 2.40625-3.910156 3.75-6.503906 3.75zm0 0" fill="#fd646f"/><path d="m445.160156 76.785156c-2.59375 0-5.113281-1.34375-6.503906-3.75-2.070312-3.589844-.839844-8.175781 2.746094-10.246094l11.257812-6.5c3.585938-2.070312 8.175782-.84375 10.246094 2.746094 2.070312 3.585938.84375 8.171875-2.746094 10.242188l-11.257812 6.5c-1.179688.683594-2.46875 1.007812-3.742188 1.007812zm0 0" fill="#fd646f"/><path d="m89.914062 63.464844c-4.144531 0-7.5-3.355469-7.5-7.496094v-13c0-4.144531 3.355469-7.5 7.5-7.5 4.140626 0 7.5 3.355469 7.5 7.5v13c0 4.140625-3.359374 7.496094-7.5 7.496094zm0 0" fill="#fbb540"/><path d="m66.339844 77.648438c-1.269532 0-2.5625-.324219-3.742188-1.003907l-11.257812-6.5c-3.589844-2.070312-4.816406-6.660156-2.746094-10.246093 2.070312-3.585938 6.65625-4.816407 10.246094-2.746094l11.257812 6.5c3.585938 2.074218 4.816406 6.660156 2.746094 10.246094-1.390625 2.40625-3.910156 3.75-6.503906 3.75zm0 0" fill="#fbb540"/><path d="m55.597656 111.648438c-2.59375 0-5.113281-1.34375-6.503906-3.75-2.070312-3.585938-.84375-8.171876 2.746094-10.246094l11.257812-6.5c3.585938-2.066406 8.175782-.839844 10.246094 2.746094 2.070312 3.585937.839844 8.175781-2.746094 10.246093l-11.257812 6.5c-1.183594.679688-2.472656 1.003907-3.742188 1.003907zm0 0" fill="#fbb540"/><path d="m90.914062 131.464844c-4.144531 0-7.5-3.355469-7.5-7.5v-13c0-4.140625 3.355469-7.5 7.5-7.5 4.140626 0 7.5 3.359375 7.5 7.5v13c0 4.144531-3.359374 7.5-7.5 7.5zm0 0" fill="#fbb540"/><path d="m125.730469 110.785156c-1.273438 0-2.5625-.324218-3.742188-1.007812l-11.257812-6.5c-3.589844-2.070313-4.816407-6.65625-2.746094-10.242188 2.066406-3.589844 6.65625-4.816406 10.246094-2.746094l11.257812 6.5c3.585938 2.070313 4.816407 6.65625 2.746094 10.246094-1.390625 2.40625-3.910156 3.75-6.503906 3.75zm0 0" fill="#fbb540"/><path d="m113.984375 76.785156c-2.589844 0-5.113281-1.34375-6.5-3.75-2.070313-3.589844-.84375-8.175781 2.746094-10.246094l11.257812-6.5c3.585938-2.070312 8.175781-.84375 10.246094 2.746094 2.070313 3.585938.839844 8.171875-2.746094 10.242188l-11.257812 6.5c-1.183594.683594-2.472657 1.007812-3.746094 1.007812zm0 0" fill="#fbb540"/><path d="m42.324219 220.464844c-4.140625 0-7.5-3.355469-7.5-7.5v-13c0-4.140625 3.359375-7.5 7.5-7.5 4.144531 0 7.5 3.359375 7.5 7.5v13c0 4.144531-3.355469 7.5-7.5 7.5zm0 0" fill="#fd646f"/><path d="m18.753906 234.648438c-1.273437 0-2.5625-.324219-3.742187-1.003907l-11.261719-6.5c-3.585938-2.074219-4.816406-6.660156-2.742188-10.246093 2.066407-3.589844 6.652344-4.816407 10.242188-2.746094l11.261719 6.5c3.585937 2.070312 4.8125 6.660156 2.742187 10.246094-1.386718 2.40625-3.910156 3.75-6.5 3.75zm0 0" fill="#fd646f"/><path d="m8.007812 268.648438c-2.589843 0-5.113281-1.34375-6.5-3.75-2.074218-3.585938-.84375-8.175782 2.742188-10.246094l11.261719-6.5c3.585937-2.070313 8.171875-.84375 10.242187 2.746094 2.070313 3.585937.84375 8.171874-2.742187 10.246093l-11.261719 6.5c-1.179688.679688-2.46875 1.003907-3.742188 1.003907zm0 0" fill="#fd646f"/><path d="m43.324219 288.464844c-4.140625 0-7.5-3.355469-7.5-7.5v-13c0-4.140625 3.359375-7.5 7.5-7.5 4.144531 0 7.5 3.359375 7.5 7.5v13c0 4.144531-3.355469 7.5-7.5 7.5zm0 0" fill="#fd646f"/><path d="m78.144531 267.785156c-1.273437 0-2.5625-.324218-3.746093-1.007812l-11.257813-6.5c-3.585937-2.070313-4.816406-6.65625-2.746094-10.246094 2.070313-3.585938 6.65625-4.8125 10.246094-2.742188l11.257813 6.5c3.589843 2.070313 4.816406 6.65625 2.746093 10.242188-1.390625 2.40625-3.910156 3.753906-6.5 3.753906zm0 0" fill="#fd646f"/><path d="m66.398438 233.785156c-2.59375 0-5.113282-1.347656-6.503907-3.753906-2.070312-3.585938-.839843-8.171875 2.746094-10.242188l11.257813-6.5c3.585937-2.070312 8.175781-.84375 10.246093 2.742188 2.070313 3.589844.84375 8.175781-2.746093 10.246094l-11.257813 6.5c-1.179687.683594-2.472656 1.007812-3.742187 1.007812zm0 0" fill="#fd646f"/><path d="m468.675781 215.464844c-4.144531 0-7.5-3.355469-7.5-7.5v-13c0-4.140625 3.355469-7.5 7.5-7.5 4.140625 0 7.5 3.359375 7.5 7.5v13c0 4.144531-3.359375 7.5-7.5 7.5zm0 0" fill="#fbb540"/><path d="m445.101562 229.648438c-1.269531 0-2.558593-.324219-3.742187-1.003907l-11.257813-6.5c-3.585937-2.074219-4.816406-6.660156-2.746093-10.246093 2.070312-3.589844 6.65625-4.816407 10.246093-2.746094l11.257813 6.5c3.589844 2.070312 4.816406 6.660156 2.746094 10.246094-1.390625 2.40625-3.910157 3.75-6.503907 3.75zm0 0" fill="#fbb540"/><path d="m434.359375 263.648438c-2.59375 0-5.113281-1.34375-6.503906-3.75-2.070313-3.585938-.839844-8.175782 2.746093-10.246094l11.257813-6.5c3.585937-2.070313 8.175781-.84375 10.246094 2.746094 2.070312 3.585937.84375 8.171874-2.746094 10.246093l-11.257813 6.5c-1.179687.679688-2.472656 1.003907-3.742187 1.003907zm0 0" fill="#fbb540"/><path d="m469.675781 283.464844c-4.144531 0-7.5-3.355469-7.5-7.5v-13c0-4.140625 3.355469-7.5 7.5-7.5 4.140625 0 7.5 3.359375 7.5 7.5v13c0 4.144531-3.359375 7.5-7.5 7.5zm0 0" fill="#fbb540"/><path d="m504.492188 262.785156c-1.273438 0-2.5625-.324218-3.742188-1.007812l-11.261719-6.5c-3.585937-2.070313-4.8125-6.65625-2.742187-10.246094 2.070312-3.585938 6.65625-4.8125 10.242187-2.742188l11.261719 6.5c3.585938 2.070313 4.816406 6.65625 2.742188 10.242188-1.386719 2.40625-3.90625 3.753906-6.5 3.753906zm0 0" fill="#fbb540"/><path d="m492.746094 228.785156c-2.589844 0-5.113282-1.347656-6.5-3.753906-2.070313-3.585938-.84375-8.171875 2.742187-10.242188l11.261719-6.5c3.585938-2.070312 8.175781-.84375 10.242188 2.746094 2.074218 3.585938.84375 8.171875-2.742188 10.242188l-11.261719 6.5c-1.179687.683594-2.46875 1.007812-3.742187 1.007812zm0 0" fill="#fbb540"/><path d="m504.5 496.464844h-497c-4.140625 0-7.5 3.355468-7.5 7.5 0 4.144531 3.359375 7.5 7.5 7.5h497c4.140625 0 7.5-3.355469 7.5-7.5 0-4.144532-3.359375-7.5-7.5-7.5zm0 0" fill="#f0f0f0"/></svg>