<svg id="Filled" height="512" viewBox="0 0 512 512" width="512" xmlns="http://www.w3.org/2000/svg"><path d="m488 136h-72-72l16 96h112z" fill="#dadcde"/><path d="m352 168h128l-8 64h-112z" fill="#3397e8"/><path d="m392 232h48v208h-48z" fill="#d0d2d4"/><path d="m472 136h-112l16-32h80z" fill="#3397e8"/><path d="m32 312h272v128h-272z" fill="#a3d4f7"/><path d="m304 376h176v64h-176z" fill="#a3d4f7"/><path d="m64 168h-32v-32h24z" fill="#3397e8"/><path d="m128 168h56l-56-48h-40z" fill="#3397e8"/><path d="m288 200a15.979 15.979 0 0 1 -16 16h-112l-113.98-14.25a16 16 0 0 1 -14.02-15.87v-17.88l208-16c26.11 0 38.59 10.23 44.1 24a56.39 56.39 0 0 1 3.57 16c.23 2.64.33 5.32.33 8z" fill="#e1e3e6"/><path d="m120 200h56l-56 48h-40z" fill="#3397e8"/><path d="m400 192h-16a8 8 0 0 0 0 16h16a8 8 0 0 0 0-16z"/><path d="m448 192h-16a8 8 0 0 0 0 16h16a8 8 0 0 0 0-16z"/><path d="m32 448h448a8 8 0 0 0 8-8v-64a8 8 0 0 0 -8-8h-32v-128h24a8 8 0 0 0 7.891-6.685l16-96a8 8 0 0 0 -7.891-9.315h-11.056l-13.789-27.578a8 8 0 0 0 -7.155-4.422h-32v-24a8 8 0 0 0 -16 0v24h-32a8 8 0 0 0 -7.155 4.422l-13.789 27.578h-11.056a8 8 0 0 0 -7.891 9.315l16 96a8 8 0 0 0 7.891 6.685h24v128h-72v-56a8 8 0 0 0 -8-8h-272a8 8 0 0 0 -8 8v128a8 8 0 0 0 8 8zm348.944-336h70.112l8 16h-86.112zm-27.5 32h125.112l-2.667 16h-119.779zm13.333 80-8-48h114.446l-8 48zm65.223 16v128h-32v-128zm-120 144h160v48h-160zm-272-64h256v112h-256z"/><path d="m352 400h-16a8 8 0 0 0 0 16h16a8 8 0 0 0 0-16z"/><path d="m400 400h-16a8 8 0 0 0 0 16h16a8 8 0 0 0 0-16z"/><path d="m448 400h-16a8 8 0 0 0 0 16h16a8 8 0 0 0 0-16z"/><path d="m80 368h-16a8 8 0 0 0 0 16h16a8 8 0 0 0 0-16z"/><path d="m128 368h-16a8 8 0 0 0 0 16h16a8 8 0 0 0 0-16z"/><path d="m176 368h-16a8 8 0 0 0 0 16h16a8 8 0 0 0 0-16z"/><path d="m224 368h-16a8 8 0 0 0 0 16h16a8 8 0 0 0 0-16z"/><path d="m272 368h-16a8 8 0 0 0 0 16h16a8 8 0 0 0 0-16z"/><path d="m80 336h-16a8 8 0 0 0 0 16h16a8 8 0 0 0 0-16z"/><path d="m128 336h-16a8 8 0 0 0 0 16h16a8 8 0 0 0 0-16z"/><path d="m176 336h-16a8 8 0 0 0 0 16h16a8 8 0 0 0 0-16z"/><path d="m224 336h-16a8 8 0 0 0 0 16h16a8 8 0 0 0 0-16z"/><path d="m272 336h-16a8 8 0 0 0 0 16h16a8 8 0 0 0 0-16z"/><path d="m80 400h-16a8 8 0 0 0 0 16h16a8 8 0 0 0 0-16z"/><path d="m128 400h-16a8 8 0 0 0 0 16h16a8 8 0 0 0 0-16z"/><path d="m176 400h-16a8 8 0 0 0 0 16h16a8 8 0 0 0 0-16z"/><path d="m224 400h-16a8 8 0 0 0 0 16h16a8 8 0 0 0 0-16z"/><path d="m272 400h-16a8 8 0 0 0 0 16h16a8 8 0 0 0 0-16z"/><path d="m45.023 209.69 51.159 6.4-22.328 26.788a8 8 0 0 0 6.146 13.122h40a8 8 0 0 0 5.206-1.926l35.087-30.074h111.707a24.028 24.028 0 0 0 24-24c0-16.266-3.5-28.667-10.685-37.912-9.336-12.002-24.582-18.088-45.315-18.088-.205 0-.409.008-.614.023l-65.213 5.017-40.967-35.114a8 8 0 0 0 -5.206-1.926h-40a8 8 0 0 0 -6.146 13.122l24.293 29.151-36.628 2.817-5.758-23.03a8 8 0 0 0 -7.761-6.06h-24a8 8 0 0 0 -8 8v49.875a24.038 24.038 0 0 0 21.023 23.815zm72.017 30.31h-19.959l26.666-32h30.627zm-11.959-112h19.959l26.572 22.775-25.892 1.992zm-65.081 16h9.754l3.583 14.335-13.337 1.026zm0 31.408 200.3-15.408c17.885.056 29.171 5.036 34.959 16h-11.259a8 8 0 0 0 0 16h15.623c.248 2.508.377 5.168.377 8a8.009 8.009 0 0 1 -8 8h-93.04l2.246-1.926a8 8 0 0 0 -5.206-14.074h-56a8 8 0 0 0 -6.146 2.878l-5.5 6.6-61.343-7.668a8.014 8.014 0 0 1 -7.011-7.935z"/></svg>