<svg id="Filled" height="512" viewBox="0 0 512 512" width="512" xmlns="http://www.w3.org/2000/svg"><rect fill="#2d85cc" height="352" rx="32" width="288" x="112" y="136"/><rect fill="#3397e8" height="160" rx="16.865" width="224" x="144" y="296"/><path d="m368 312.87v31.13h-224v-31.13a16.866 16.866 0 0 1 16.87-16.87h190.26a16.866 16.866 0 0 1 16.87 16.87z" fill="#c3c6c7"/><path d="m80 296h32a0 0 0 0 1 0 0v160a0 0 0 0 1 0 0h-32a16 16 0 0 1 -16-16v-128a16 16 0 0 1 16-16z" fill="#3397e8"/><path d="m112 296v48h-48v-32a16 16 0 0 1 16-16z" fill="#c3c6c7"/><path d="m416 296h32a0 0 0 0 1 0 0v160a0 0 0 0 1 0 0h-32a16 16 0 0 1 -16-16v-128a16 16 0 0 1 16-16z" fill="#3397e8" transform="matrix(-1 0 0 -1 848 752)"/><path d="m400 296v48h48v-32a16 16 0 0 0 -16-16z" fill="#c3c6c7"/><rect fill="#2978b8" height="96" rx="48" width="320" x="96" y="40"/><path d="m232 216h48v32h-48z" fill="#7e8589"/><path d="m232 184h48v32h-48z" fill="#c3c6c7"/><path d="m240 24h32v160h-32z" fill="#3397e8"/><path d="m351.135 288h-190.269a24.894 24.894 0 0 0 -24.866 24.866v126.268a24.894 24.894 0 0 0 24.866 24.866h190.269a24.894 24.894 0 0 0 24.865-24.866v-126.268a24.894 24.894 0 0 0 -24.865-24.866zm8.865 151.134a8.875 8.875 0 0 1 -8.865 8.866h-190.269a8.876 8.876 0 0 1 -8.866-8.866v-87.134h208zm0-103.134h-208v-23.134a8.876 8.876 0 0 1 8.866-8.866h190.269a8.875 8.875 0 0 1 8.865 8.866z"/><path d="m432 296h-24v-128a39.913 39.913 0 0 0 -14.047-30.4 55.986 55.986 0 0 0 -25.953-105.6h-88v-8a8 8 0 0 0 -8-8h-32a8 8 0 0 0 -8 8v8h-88a55.985 55.985 0 0 0 -25.953 105.6 39.917 39.917 0 0 0 -14.047 30.4v120h-24a24.028 24.028 0 0 0 -24 24v128a24.028 24.028 0 0 0 24 24h24.805a40.067 40.067 0 0 0 39.195 32h224a40.068 40.068 0 0 0 39.2-32h24.8a24.027 24.027 0 0 0 24-24v-120a24.027 24.027 0 0 0 -24-24zm-328 152h-24a8.009 8.009 0 0 1 -8-8v-88h32zm0-112h-32v-24a8.009 8.009 0 0 1 8-8h24zm176-288h88a40 40 0 0 1 0 80h-88zm-32-16h16v144h-16zm-8 160h32v16h-32zm0 32h32v16h-32zm-136-136a40.045 40.045 0 0 1 40-40h88v80h-88a40.045 40.045 0 0 1 -40-40zm288 368a24.028 24.028 0 0 1 -24 24h-224a24.028 24.028 0 0 1 -24-24v-288a24.028 24.028 0 0 1 24-24h88v32a8 8 0 0 0 -8 8v64a8 8 0 0 0 8 8h48a8 8 0 0 0 8-8v-64a8 8 0 0 0 -8-8v-32h88a24.028 24.028 0 0 1 24 24zm40-144a8.009 8.009 0 0 1 8 8v16h-32v-24zm0 136h-24v-96h32v88a8.009 8.009 0 0 1 -8 8z"/></svg>