<svg id="Filled" height="512" viewBox="0 0 512 512" width="512" xmlns="http://www.w3.org/2000/svg"><rect fill="#d4a811" height="32" rx="16" width="96" x="96" y="24"/><g fill="#e9eef2"><circle cx="232" cy="472" r="16"/><circle cx="56" cy="472" r="16"/><circle cx="256" cy="472" r="16"/><circle cx="440" cy="472" r="16"/></g><rect fill="#ffd33a" height="336" rx="32" width="240" x="24" y="120"/><rect fill="#e6be34" height="160" rx="16" width="176" x="56" y="264"/><rect fill="#ad6643" height="224" rx="32" width="280" x="209" y="232"/><path d="m265 304h32v48h-32z" fill="#eb423f"/><path d="m377 376h64v32h-64z" fill="#38b37a"/><ellipse cx="408.935" cy="296" fill="#3397e8" rx="16.065" ry="16"/><rect fill="#e6be34" height="80" rx="16" width="176" x="56" y="152"/><rect fill="#95573a" height="32" rx="16" width="96" x="297" y="200"/><path d="m456 224h-57.376a23.992 23.992 0 0 0 -22.624-32h-64a23.992 23.992 0 0 0 -22.624 32h-17.376v-72a40.045 40.045 0 0 0 -40-40h-16v-56a24.041 24.041 0 0 0 -17.034-22.966 24.042 24.042 0 0 0 -22.966-17.034h-64a24.042 24.042 0 0 0 -22.966 17.034 24.041 24.041 0 0 0 -17.034 22.966v56h-16a40.045 40.045 0 0 0 -40 40v272a40.015 40.015 0 0 0 20.063 34.655 24 24 0 1 0 42.561 5.345h130.752a24 24 0 0 0 34.629 28.784l-.005-.014a23.988 23.988 0 0 0 34.624-28.77h138.752a24 24 0 1 0 45.055-.524 40.059 40.059 0 0 0 33.569-39.476v-160a40.045 40.045 0 0 0 -40-40zm-48.065 64a8 8 0 1 1 -8.065 8 8.042 8.042 0 0 1 8.065-8zm24.065 96v16h-48v-16zm-120-176h64a8 8 0 0 1 0 16h-64a8 8 0 0 1 0-16zm-200-176h64a8 8 0 0 1 0 16h-64a8 8 0 0 1 0-16zm-24 24a7.975 7.975 0 0 1 2.347-5.655 24.03 24.03 0 0 0 21.653 13.655h64a24.03 24.03 0 0 0 21.653-13.655 7.975 7.975 0 0 1 2.347 5.655v56h-112zm-32 424a8 8 0 1 1 8-8 8.009 8.009 0 0 1 -8 8zm16-224a24.028 24.028 0 0 0 -24 24v128a24.028 24.028 0 0 0 24 24h128.805a39.841 39.841 0 0 0 7.217 16h-152.022a24.028 24.028 0 0 1 -24-24v-272a24.028 24.028 0 0 1 24-24h176a24.028 24.028 0 0 1 24 24v72h-16c-.466 0-.926.019-1.388.035a23.883 23.883 0 0 0 1.388-8.035v-48a24.028 24.028 0 0 0 -24-24h-144a24.028 24.028 0 0 0 -24 24v48a24.028 24.028 0 0 0 24 24h136.022a39.841 39.841 0 0 0 -7.217 16zm128 16v144h-128a8.009 8.009 0 0 1 -8-8v-128a8.009 8.009 0 0 1 8-8zm-128-48a8.009 8.009 0 0 1 -8-8v-48a8.009 8.009 0 0 1 8-8h64v16a8 8 0 0 0 16 0v-16h64a8.009 8.009 0 0 1 8 8v48a8.009 8.009 0 0 1 -8 8zm161.335 255.878a8.181 8.181 0 0 1 -1.335.122 8 8 0 0 1 0-16 8.181 8.181 0 0 1 1.335.122 23.912 23.912 0 0 0 0 15.756zm22.665.122a8 8 0 1 1 8-8 8.009 8.009 0 0 1 -8 8zm16-32h-32a24.027 24.027 0 0 1 -24-24v-160a24.027 24.027 0 0 1 24-24h32v56h-8a8 8 0 0 0 -8 8v48a8 8 0 0 0 8 8h8zm0-104v-32h16v32zm128 104h-112v-88h8a8 8 0 0 0 8-8v-48a8 8 0 0 0 -8-8h-8v-56h112v33.347a23.972 23.972 0 0 0 0 45.306v49.347h-24a8 8 0 0 0 -8 8v32a8 8 0 0 0 8 8h24zm40 32a8 8 0 1 1 8-8 8.009 8.009 0 0 1 -8 8zm40-56a24.027 24.027 0 0 1 -24 24h-40v-32h24a8 8 0 0 0 8-8v-32a8 8 0 0 0 -8-8h-24v-49.391a23.974 23.974 0 0 0 0-45.218v-33.391h40a24.027 24.027 0 0 1 24 24z"/><path d="m128 312h32a8 8 0 0 0 0-16h-32a8 8 0 0 0 0 16z"/></svg>