<svg id="Filled" height="512" viewBox="0 0 512 512" width="512" xmlns="http://www.w3.org/2000/svg"><path d="m344 104h80v32h-80z" fill="#b6b9ba"/><path d="m408 136h-48l-32 48h112z" fill="#dadcde"/><path d="m456 456h-144l16-272h112z" fill="#ffd33a"/><path d="m312 456h144v32h-144z" fill="#dadcde"/><path d="m240 136v-112a32 32 0 0 1 32 32v80l-16 96v240a16 16 0 0 1 -16 16 16 16 0 0 1 -16-16v-240z" fill="#eba72e"/><path d="m208 24h32v96h-32z" fill="#dadcde" transform="matrix(-1 0 0 -1 448 144)"/><path d="m72 152h80v64h-80z" fill="#b6b9ba"/><path d="m88 216h48v32h-48z" fill="#d0d2d4"/><rect fill="#dadcde" height="240" rx="16" width="112" x="56" y="248"/><path d="m168 296v176a16 16 0 0 1 -16 16h-80a16 16 0 0 1 -16-16v-176z" fill="#3397e8"/><circle cx="384" cy="256" fill="#266fab" r="24"/><rect fill="#a3d4f7" height="160" rx="48" width="240" x="112" y="328"/><path d="m463.986 455.53-16-272a8 8 0 0 0 -1.325-3.969l-23.713-35.561h1.052a8 8 0 0 0 8-8v-32a8 8 0 0 0 -8-8h-80a8 8 0 0 0 -8 8v32a8 8 0 0 0 8 8h1.052l-23.708 35.562a8 8 0 0 0 -1.325 3.969l-8.062 137.044a56.223 56.223 0 0 0 -7.957-.575h-40v-87.338l15.891-95.347a8.046 8.046 0 0 0 .109-1.315v-80a40.045 40.045 0 0 0 -40-40h-32a8 8 0 0 0 -8 8v96a8 8 0 0 0 8 8h24v7.338l-15.891 95.347a8.046 8.046 0 0 0 -.109 1.315v88h-40v-56a24.027 24.027 0 0 0 -24-24h-8v-16h8a8 8 0 0 0 8-8v-64a8 8 0 0 0 -8-8h-80a8 8 0 0 0 -8 8v64a8 8 0 0 0 8 8h8v16h-8a24.027 24.027 0 0 0 -24 24v208a24.027 24.027 0 0 0 24 24h80v-.581a56.14 56.14 0 0 0 8 .581h144a56.14 56.14 0 0 0 8-.581v.581h144a8 8 0 0 0 8-8v-32c0-.158-.015-.313-.024-.469zm-111.986-343.53h64v16h-64zm12.281 32h39.438l21.333 32h-82.1zm-28.738 48h96.914l15.058 256h-88.1a56.14 56.14 0 0 0 .581-8v-64a56.062 56.062 0 0 0 -32.3-50.72zm-119.543-160h16v16h-16zm0 32h16v16h-16zm0 48v-16h16v16zm16 120.662 15.891-95.347a8.046 8.046 0 0 0 .109-1.315v-102.629a24.042 24.042 0 0 1 16 22.629v79.338l-15.891 95.347a8.046 8.046 0 0 0 -.109 1.315v88h-16zm-152-72.662h64v48h-64zm48 64v16h-32v-16zm-64 40a8.009 8.009 0 0 1 8-8h80a8.009 8.009 0 0 1 8 8v24h-96zm8 216a8.009 8.009 0 0 1 -8-8v-168h96v16a56.063 56.063 0 0 0 -56 56v64a55.82 55.82 0 0 0 16.862 40zm232 0h-144a40.045 40.045 0 0 1 -40-40v-64a40.045 40.045 0 0 1 40-40h144a40.045 40.045 0 0 1 40 40v64a40.045 40.045 0 0 1 -40 40zm144 0h-104.862a56.251 56.251 0 0 0 11.448-16h93.414z"/><path d="m384 288a32 32 0 1 0 -32-32 32.036 32.036 0 0 0 32 32zm0-48a16 16 0 1 1 -16 16 16.019 16.019 0 0 1 16-16z"/><path d="m256 448h-96a8.009 8.009 0 0 1 -8-8v-48a8 8 0 0 0 -16 0v48a24.028 24.028 0 0 0 24 24h96a8 8 0 0 0 0-16z"/><circle cx="288" cy="456" r="8"/><path d="m304 352h-96a8 8 0 0 0 0 16h96a8.009 8.009 0 0 1 8 8v48a8 8 0 0 0 16 0v-48a24.028 24.028 0 0 0 -24-24z"/><circle cx="176" cy="360" r="8"/></svg>