<svg id="Filled" height="512" viewBox="0 0 512 512" width="512" xmlns="http://www.w3.org/2000/svg"><g fill="#2e9163"><ellipse cx="392" cy="208" rx="56" ry="40"/><ellipse cx="120" cy="208" rx="56" ry="40"/><ellipse cx="256" cy="176" rx="48" ry="40"/></g><path d="m392 304a135.557 135.557 0 0 1 -12.02 56 136.082 136.082 0 0 0 -115.99-79.77c-2.64-.15-5.31-.23-7.99-.23s-5.35.08-7.99.23a136.082 136.082 0 0 0 -115.99 79.77 136.081 136.081 0 0 1 115.98-191.76q3.975-.24 8-.24t8 .24a135.993 135.993 0 0 1 128 135.76z" fill="#35a872"/><circle cx="112" cy="288" fill="#3dc285" r="88"/><ellipse cx="112.216" cy="288" fill="#cfdb8c" rx="55.784" ry="56"/><circle cx="400" cy="288" fill="#3dc285" r="88"/><ellipse cx="400.216" cy="288" fill="#cfdb8c" rx="55.784" ry="56"/><circle cx="256" cy="224" fill="#2e9163" r="24"/><path d="m112.217 224a64 64 0 1 0 63.783 64 63.964 63.964 0 0 0 -63.783-64zm0 112a48 48 0 1 1 47.783-48 47.946 47.946 0 0 1 -47.783 48z"/><path d="m455.929 210.022c.038-.673.071-1.347.071-2.022 0-13.34-7.015-25.7-19.752-34.794-11.923-8.517-27.637-13.206-44.248-13.206-23.237 0-44.6 9.443-55.8 24.354a142.377 142.377 0 0 0 -24.492-13.221c-2.85-24.19-26.746-43.133-55.708-43.133s-52.858 18.943-55.713 43.133a142.377 142.377 0 0 0 -24.487 13.221c-11.2-14.911-32.563-24.354-55.8-24.354-16.611 0-32.325 4.689-44.248 13.206-12.737 9.094-19.752 21.454-19.752 34.794 0 .675.034 1.348.071 2.022a95.984 95.984 0 1 0 151.459 87.478 128.374 128.374 0 0 1 96.94 0 96 96 0 1 0 151.459-87.48zm-63.929-34.022c21.912 0 40.957 10.394 46.425 24.035a95.87 95.87 0 0 0 -80.875 1.878q-4.166-4.144-8.6-7.9c8.142-11.013 24.68-18.013 43.05-18.013zm-136-32c17.188 0 31.877 8.72 37.524 20.919a145.583 145.583 0 0 0 -75.048 0c5.647-12.199 20.336-20.919 37.524-20.919zm-136 32c18.37 0 34.908 7 43.055 18.011q-4.434 3.761-8.605 7.9a95.87 95.87 0 0 0 -80.875-1.878c5.468-13.639 24.513-24.033 46.425-24.033zm-8 192a80 80 0 1 1 80-80 80.091 80.091 0 0 1 -80 80zm136-95.781a142.5 142.5 0 0 0 -40.309 8.084 96 96 0 0 0 -39.1-69.8 126.923 126.923 0 0 1 79.409-34.249v16.759a32 32 0 0 0 0 61.974zm-8-48.219a16 16 0 1 1 16 16 16.019 16.019 0 0 1 -16-16zm64.309 56.3a142.5 142.5 0 0 0 -40.309-8.081v-17.232a32 32 0 0 0 0-61.974v-16.759a126.923 126.923 0 0 1 79.41 34.25 96 96 0 0 0 -39.101 69.796zm95.691 87.7a80 80 0 1 1 80-80 80.091 80.091 0 0 1 -80 80z"/><path d="m400.217 224a64 64 0 1 0 63.783 64 63.964 63.964 0 0 0 -63.783-64zm0 112a48 48 0 1 1 47.783-48 47.946 47.946 0 0 1 -47.783 48z"/></svg>