<svg id="Filled" height="512" viewBox="0 0 512 512" width="512" xmlns="http://www.w3.org/2000/svg"><path d="m216 24h240v400h-240z" fill="#8fbad9"/><rect fill="#ad6643" height="48" rx="17.527" width="96" x="248" y="104"/><path d="m424 264h-48l24-48z" fill="#5f8c66"/><path d="m392 264h-48l24-64z" fill="#6a9c72"/><path d="m40 88h240v400h-240z" fill="#a3d4f7"/><path d="m280 88h-64v-64z" fill="#99c7e8"/><path d="m246 271.164c5.715-10.137-1.472-22.764-13.4-23.154q-.3-.011-.6-.01t-.6.01c-11.928.39-19.115 13.017-13.4 23.154l14 24.836z" fill="#eb423f"/><path d="m160 192h-19.056l-13.789-27.578a8 8 0 0 0 -14.31 7.156l10.211 20.422h-27.056v-8a8 8 0 0 0 -16 0v16a8 8 0 0 0 8 8h35.056l-10.211 20.422a8 8 0 1 0 14.31 7.156l13.789-27.578h19.056a8 8 0 0 0 0-16z" fill="#7e8589"/><circle cx="152" cy="328" fill="#2d85cc" r="48"/><path d="m40 152 56-64h-56z" fill="#99c7e8"/><path d="m408 96h16a8 8 0 0 0 0-16h-16a8 8 0 0 0 0 16z"/><path d="m376 128h48a8 8 0 0 0 0-16h-48a8 8 0 0 0 0 16z"/><circle cx="376" cy="88" r="8"/><path d="m337.425 268.557a8 8 0 0 0 6.575 3.443h80a8 8 0 0 0 7.155-11.578l-24-48a8 8 0 0 0 -14.31 0l-6.653 13.306-10.7-28.537a8 8 0 0 0 -14.982 0l-24 64a8 8 0 0 0 .915 7.366zm62.575-34.668 11.056 22.111h-13.512l-3.686-9.829zm-32-11.105 12.456 33.216h-24.912z"/><path d="m288 488v-56h168a8 8 0 0 0 8-8v-400a8 8 0 0 0 -8-8h-240a8 8 0 0 0 -8 8v56h-168a8 8 0 0 0 -8 8v400a8 8 0 0 0 8 8h240a8 8 0 0 0 8-8zm-2.347-405.661-2.34-2.339h12.687a8.009 8.009 0 0 1 8 8v8h-16v-8a7.976 7.976 0 0 0 -2.347-5.661zm18.347 29.661v32h-16v-32zm144-80v384h-160v-32h72a8 8 0 0 0 0-16h-72v-16h104a8 8 0 0 0 0-16h-104v-96h24a8 8 0 0 0 0-16h-24v-16h24a8 8 0 0 0 0-16h-24v-32h38.473a25.557 25.557 0 0 0 25.527-25.527v-12.946a25.557 25.557 0 0 0 -25.527-25.527h-6.473v-8a24.027 24.027 0 0 0 -24-24h-16a24.021 24.021 0 0 0 -10.339 2.347l-34.348-34.347zm-128 112v-32h6.473a9.538 9.538 0 0 1 9.527 9.527v12.946a9.538 9.538 0 0 1 -9.527 9.527zm-96-100.687 36.687 36.687h-36.687zm-176 52.687h30.37l-30.37 34.708zm224 384h-224v-324.994l51.63-59.006h172.37z"/><path d="m231.136 240.014a23.749 23.749 0 0 0 -20.1 12.13 23.212 23.212 0 0 0 0 22.949l14 24.836a8 8 0 0 0 13.938 0l14-24.836a23.212 23.212 0 0 0 0-22.949 23.751 23.751 0 0 0 -20.111-12.13c-.575-.014-1.144-.014-1.727 0zm7.885 19.973a7.28 7.28 0 0 1 .012 7.249l-7.033 12.474-7.033-12.474a7.28 7.28 0 0 1 .012-7.249 7.775 7.775 0 0 1 6.673-3.981c.116 0 .231-.006.348-.006s.232 0 .34 0a7.781 7.781 0 0 1 6.681 3.987z"/><path d="m123.056 192h-27.056v-8a8 8 0 0 0 -16 0v16a8 8 0 0 0 8 8h35.056l-10.211 20.422a8 8 0 1 0 14.31 7.156l13.789-27.578h19.056a8 8 0 0 0 0-16h-19.056l-13.789-27.578a8 8 0 0 0 -14.31 7.156z"/><path d="m96 328a56 56 0 1 0 56-56 56.064 56.064 0 0 0 -56 56zm56-40a40 40 0 1 1 -40 40 40.045 40.045 0 0 1 40-40z"/><path d="m173.6 259.3a8 8 0 0 0 4.8-15.27 87.983 87.983 0 0 0 -26.4-4.03 8 8 0 0 0 0 16 71.973 71.973 0 0 1 21.6 3.3z"/><path d="m232 320a8 8 0 0 0 -8 8 72 72 0 1 1 -115.2-57.6 8 8 0 1 0 -9.61-12.792 88 88 0 1 0 140.81 70.392 8 8 0 0 0 -8-8z"/><path d="m208 448h-48a8 8 0 0 0 0 16h48a8 8 0 0 0 0-16z"/><path d="m128 448h-16a8 8 0 0 0 0 16h16a8 8 0 0 0 0-16z"/><path d="m424 368h-32a8 8 0 0 0 0 16h32a8 8 0 0 0 0-16z"/><path d="m424 304h-64a8 8 0 0 0 0 16h64a8 8 0 0 0 0-16z"/><circle cx="312" cy="264" r="8"/><circle cx="424" cy="344" r="8"/><path d="m328 304h-16a8 8 0 0 0 0 16h16a8 8 0 0 0 0-16z"/><path d="m376 160h48a8 8 0 0 0 0-16h-48a8 8 0 0 0 0 16z"/><path d="m168 144h64a8 8 0 0 0 0-16h-64a8 8 0 0 0 0 16z"/><path d="m232 176a8 8 0 0 0 0-16h-16a8 8 0 0 0 0 16z"/></svg>