<svg id="Filled" height="512" viewBox="0 0 512 512" width="512" xmlns="http://www.w3.org/2000/svg"><g fill="#7e8589"><circle cx="400" cy="80" r="16"/><circle cx="336" cy="80" r="16"/><circle cx="112" cy="80" r="16"/><circle cx="176" cy="80" r="16"/></g><path d="m224 48h64v168h-64z" fill="#b6b9ba"/><path d="m472 280v176a31.973 31.973 0 0 1 -32 32h-368a31.973 31.973 0 0 1 -32-32v-176a65.965 65.965 0 0 1 .49-8 63.329 63.329 0 0 1 4.17-16 63.986 63.986 0 0 1 59.34-40h304a63.986 63.986 0 0 1 59.34 40 63.329 63.329 0 0 1 4.17 16 65.965 65.965 0 0 1 .49 8z" fill="#eb423f"/><path d="m472 280v168h-432v-168a64.41 64.41 0 0 1 2.01-16h427.98a64.41 64.41 0 0 1 2.01 16z" fill="#e9eef2"/><circle cx="256" cy="96" fill="#7e8589" r="16"/><path d="m488 88h-65.376a23.992 23.992 0 0 0 -22.624-32h-104v-8a8 8 0 0 0 -8-8h-64a8 8 0 0 0 -8 8v8h-104a23.992 23.992 0 0 0 -22.624 32h-65.376a8 8 0 0 0 0 16h192v104h-112a72.081 72.081 0 0 0 -72 72v176a40.045 40.045 0 0 0 40 40h368a40.045 40.045 0 0 0 40-40v-176a72.081 72.081 0 0 0 -72-72h-112v-104h192a8 8 0 0 0 0-16zm-256 8v-40h48v152h-48zm-120-8a8 8 0 1 1 8-8 8.009 8.009 0 0 1 -8 8zm41.376 0h-18.752a23.944 23.944 0 0 0 0-16h18.752a23.944 23.944 0 0 0 0 16zm22.624 0a8 8 0 1 1 8-8 8.009 8.009 0 0 1 -8 8zm22.624 0a23.944 23.944 0 0 0 0-16h17.376v16zm-150.624 192a56.14 56.14 0 0 1 .581-8h113.019a42.843 42.843 0 0 0 -9.6 27.054v52.946h-104zm0 88h104v52.946a42.843 42.843 0 0 0 9.6 27.054h-113.6zm392 112h-368a24.039 24.039 0 0 1 -22.624-16h413.248a24.039 24.039 0 0 1 -22.624 16zm-192-112v80h-52.945a27.085 27.085 0 0 1 -27.055-27.054v-52.946zm-80-16v-52.946a27.085 27.085 0 0 1 27.055-27.054h52.945v80zm176 16v52.946a27.085 27.085 0 0 1 -27.055 27.054h-52.945v-80zm-80-16v-80h52.945a27.085 27.085 0 0 1 27.055 27.054v52.946zm200 96h-113.6a42.843 42.843 0 0 0 9.6-27.054v-52.946h104zm-.581-176a56.14 56.14 0 0 1 .581 8v72h-104v-52.946a42.843 42.843 0 0 0 -9.6-27.054zm-55.419-48a56.068 56.068 0 0 1 50.586 32h-405.172a56.068 56.068 0 0 1 50.586-32zm-94.624-136h-17.376v-16h17.376a23.944 23.944 0 0 0 0 16zm22.624 0a8 8 0 1 1 8-8 8.009 8.009 0 0 1 -8 8zm41.376 0h-18.752a23.944 23.944 0 0 0 0-16h18.752a23.944 23.944 0 0 0 0 16zm22.624 0a8 8 0 1 1 8-8 8.009 8.009 0 0 1 -8 8z"/><path d="m256 120a24 24 0 1 0 -24-24 24.027 24.027 0 0 0 24 24zm0-32a8 8 0 1 1 -8 8 8.009 8.009 0 0 1 8-8z"/></svg>