<svg id="Filled" height="512" viewBox="0 0 512 512" width="512" xmlns="http://www.w3.org/2000/svg"><rect fill="#9aa3a8" height="304" rx="16" width="464" x="24" y="120"/><path d="m216 152h80v80h-80z" fill="#e1e3e6"/><path d="m24 232h464v128h-464z" fill="#c3c6c7"/><circle cx="256" cy="296" fill="#7e8589" r="96"/><circle cx="256" cy="296" fill="#9aa3a8" r="64"/><circle cx="256" cy="296" fill="#7e8589" r="16"/><path d="m328 152h64v48h-64z" fill="#c3c6c7"/><path d="m392 152h64v48h-64z" fill="#e1e3e6"/><g fill="#7e8589"><path d="m88 88h32a16 16 0 0 1 16 16v16a0 0 0 0 1 0 0h-64a0 0 0 0 1 0 0v-16a16 16 0 0 1 16-16z"/><path d="m184 88h16a16 16 0 0 1 16 16v16a0 0 0 0 1 0 0h-48a0 0 0 0 1 0 0v-16a16 16 0 0 1 16-16z"/><path d="m392 88h32a16 16 0 0 1 16 16v16a0 0 0 0 1 0 0h-64a0 0 0 0 1 0 0v-16a16 16 0 0 1 16-16z"/></g><path d="m472 112h-24v-8a24.028 24.028 0 0 0 -24-24h-32a24.028 24.028 0 0 0 -24 24v8h-144v-8a24.027 24.027 0 0 0 -24-24h-16a24.027 24.027 0 0 0 -24 24v8h-16v-8a24.028 24.028 0 0 0 -24-24h-32a24.028 24.028 0 0 0 -24 24v8h-24a24.028 24.028 0 0 0 -24 24v272a24.028 24.028 0 0 0 24 24h432a24.028 24.028 0 0 0 24-24v-272a24.028 24.028 0 0 0 -24-24zm-88-8a8.009 8.009 0 0 1 8-8h32a8.009 8.009 0 0 1 8 8v8h-48zm-208 0a8.009 8.009 0 0 1 8-8h16a8.009 8.009 0 0 1 8 8v8h-32zm-96 0a8.009 8.009 0 0 1 8-8h32a8.009 8.009 0 0 1 8 8v8h-48zm-48 136h136.4a103.82 103.82 0 0 0 0 112h-136.4zm224-32a88 88 0 1 1 -88 88 88.1 88.1 0 0 1 88-88zm-32-10.956v-37.044h64v37.044a104.029 104.029 0 0 0 -64 0zm256 210.956a8.009 8.009 0 0 1 -8 8h-432a8.009 8.009 0 0 1 -8-8v-40h149.026a103.83 103.83 0 0 0 149.948 0h149.026zm0-56h-136.4a103.82 103.82 0 0 0 0-112h136.4zm0-128h-149.026a104.623 104.623 0 0 0 -26.974-20.239v-51.761a8 8 0 0 0 -8-8h-80a8 8 0 0 0 -8 8v51.761a104.623 104.623 0 0 0 -26.974 20.239h-149.026v-88a8.009 8.009 0 0 1 8-8h432a8.009 8.009 0 0 1 8 8z"/><path d="m456 136h-128a8 8 0 0 0 -8 8v48a8 8 0 0 0 8 8h128a8 8 0 0 0 8-8v-48a8 8 0 0 0 -8-8zm-72 48h-48v-32h48zm64 0h-48v-32h48z"/><path d="m256 368a72 72 0 1 0 -72-72 72.081 72.081 0 0 0 72 72zm0-128a56 56 0 1 1 -56 56 56.063 56.063 0 0 1 56-56z"/><path d="m256 320a24 24 0 1 0 -24-24 24.027 24.027 0 0 0 24 24zm0-32a8 8 0 1 1 -8 8 8.009 8.009 0 0 1 8-8z"/></svg>