<svg id="Filled" height="512" viewBox="0 0 512 512" width="512" xmlns="http://www.w3.org/2000/svg"><path d="m344 136h-176l16-48v-64h144v64z" fill="#7e8589"/><path d="m168 376h176l-16 48v64h-144v-64z" fill="#7e8589"/><rect fill="#9aa3a8" height="272" rx="48" width="240" x="136" y="120"/><path d="m376 184h18.144a13.856 13.856 0 0 1 13.856 13.856v20.287a13.856 13.856 0 0 1 -13.856 13.857h-18.144a0 0 0 0 1 0 0v-48a0 0 0 0 1 0 0z" fill="#7e8589"/><circle cx="256" cy="256" fill="#dadcde" r="88"/><path d="m176 24v62.7l-9.354 28.064a56.089 56.089 0 0 0 -38.646 53.236v176a56.089 56.089 0 0 0 38.646 53.234l9.354 28.066v62.7a8 8 0 0 0 8 8h144a8 8 0 0 0 8-8v-62.7l9.354-28.064a56.089 56.089 0 0 0 38.646-53.236v-104h10.144a21.881 21.881 0 0 0 21.856-21.856v-20.288a21.881 21.881 0 0 0 -21.856-21.856h-10.144v-8a56.089 56.089 0 0 0 -38.646-53.234l-9.354-28.066v-62.7a8 8 0 0 0 -8-8h-144a8 8 0 0 0 -8 8zm208 168h10.144a5.863 5.863 0 0 1 5.856 5.856v20.288a5.863 5.863 0 0 1 -5.856 5.856h-10.144zm-63.589 229.47a8 8 0 0 0 -.411 2.53v56h-128v-56a8 8 0 0 0 -.411-2.53l-7.156-21.47h143.134zm47.589-253.47v176a40.045 40.045 0 0 1 -40 40h-144a40.045 40.045 0 0 1 -40-40v-176a40.045 40.045 0 0 1 40-40h144a40.045 40.045 0 0 1 40 40zm-176.411-77.47a8 8 0 0 0 .411-2.53v-56h128v56a8 8 0 0 0 .411 2.53l7.156 21.47h-143.134z"/><path d="m256 352a96 96 0 1 0 -96-96 96.108 96.108 0 0 0 96 96zm-8-175.6v7.6a8 8 0 0 0 16 0v-7.6a80.14 80.14 0 0 1 71.6 71.6h-7.6a8 8 0 0 0 0 16h7.6a80.14 80.14 0 0 1 -71.6 71.6v-7.6a8 8 0 0 0 -16 0v7.6a80.14 80.14 0 0 1 -71.6-71.6h7.6a8 8 0 0 0 0-16h-7.6a80.14 80.14 0 0 1 71.6-71.6z"/><path d="m211 230.247 40 32a8 8 0 0 0 9.436.409l24-16a8 8 0 0 0 -8.876-13.312l-19.13 12.756-35.43-28.347a8 8 0 1 0 -10 12.494z"/></svg>