<svg id="Filled" height="512" viewBox="0 0 512 512" width="512" xmlns="http://www.w3.org/2000/svg"><rect fill="#ad6643" height="336" rx="16" transform="matrix(0 1 -1 0 576 -64)" width="464" x="88" y="88"/><path d="m184 56h272v400h-272z" fill="#75452e"/><path d="m408 424h-120l-24-64 16-80h128z" fill="#88c791"/><path d="m408 280v32h-134.4l6.4-32z" fill="#5f8c66"/><path d="m280 96h112a16 16 0 0 1 16 16v128a0 0 0 0 1 0 0h-144a0 0 0 0 1 0 0v-128a16 16 0 0 1 16-16z" fill="#3dc285"/><rect fill="#ad6643" height="96" rx="16" transform="matrix(0 1 -1 0 328 184)" width="464" x="-160" y="208"/><rect fill="#95573a" height="32" rx="16" transform="matrix(0 1 -1 0 328 184)" width="112" x="16" y="240"/><rect fill="#75452e" height="32" rx="16" transform="matrix(0 1 -1 0 224 16)" width="64" x="72" y="104"/><rect fill="#75452e" height="32" rx="16" transform="matrix(0 1 -1 0 496 288)" width="64" x="72" y="376"/><rect fill="#95573a" height="32" rx="16" transform="matrix(0 1 -1 0 392 120)" width="368" x="-48" y="240"/><path d="m248 96h112a16 16 0 0 1 16 16v128a0 0 0 0 1 0 0h-144a0 0 0 0 1 0 0v-128a16 16 0 0 1 16-16z" fill="#3397e8"/><path d="m272 96h64l-32 72z" fill="#266fab"/><path d="m376 424h-120l-24-64 16-80h128z" fill="#a3d4f7"/><path d="m376 312v112h-120l-24-64 9.6-48z" fill="none"/><path d="m376 280v32h-134.4l6.4-32z" fill="#86afcc"/><path d="m472 16h-304a24.028 24.028 0 0 0 -24 24v25.376a23.944 23.944 0 0 0 -16 0v-25.376a24.028 24.028 0 0 0 -24-24h-64a24.028 24.028 0 0 0 -24 24v432a24.028 24.028 0 0 0 24 24h64a24.028 24.028 0 0 0 24-24v-25.376a23.944 23.944 0 0 0 16 0v25.376a24.028 24.028 0 0 0 24 24h304a24.028 24.028 0 0 0 24-24v-432a24.028 24.028 0 0 0 -24-24zm-360 392a8 8 0 0 1 -16 0v-8h16zm0-24h-16v-8a8 8 0 0 1 16 0zm0-248a8 8 0 0 1 -16 0v-8h16zm0-24h-16v-8a8 8 0 0 1 16 0zm0-30.624a23.992 23.992 0 0 0 -32 22.624v32a23.992 23.992 0 0 0 32 22.624v194.752a23.992 23.992 0 0 0 -32 22.624v32a23.992 23.992 0 0 0 32 22.624v41.376a8.009 8.009 0 0 1 -8 8h-64a8.009 8.009 0 0 1 -8-8v-432a8.009 8.009 0 0 1 8-8h64a8.009 8.009 0 0 1 8 8zm32 342.624a8 8 0 0 1 -16 0v-336a8 8 0 0 1 16 0zm336 48a8.009 8.009 0 0 1 -8 8h-304a8.009 8.009 0 0 1 -8-8v-432a8.009 8.009 0 0 1 8-8h304a8.009 8.009 0 0 1 8 8z"/><path d="m48 216v80a24 24 0 0 0 48 0v-80a24 24 0 0 0 -48 0zm32 0v80a8 8 0 0 1 -16 0v-80a8 8 0 0 1 16 0z"/><path d="m184 112a8 8 0 0 0 8-8v-40h40a8 8 0 0 0 0-16h-48a8 8 0 0 0 -8 8v48a8 8 0 0 0 8 8z"/><path d="m456 48h-48a8 8 0 0 0 0 16h40v40a8 8 0 0 0 16 0v-48a8 8 0 0 0 -8-8z"/><path d="m232 448h-40v-40a8 8 0 0 0 -16 0v48a8 8 0 0 0 8 8h48a8 8 0 0 0 0-16z"/><path d="m456 400a8 8 0 0 0 -8 8v40h-40a8 8 0 0 0 0 16h48a8 8 0 0 0 8-8v-48a8 8 0 0 0 -8-8z"/><path d="m264 64h112a8 8 0 0 0 0-16h-112a8 8 0 0 0 0 16z"/><path d="m184 384a8 8 0 0 0 8-8v-240a8 8 0 0 0 -16 0v240a8 8 0 0 0 8 8z"/><path d="m456 128a8 8 0 0 0 -8 8v240a8 8 0 0 0 16 0v-240a8 8 0 0 0 -8-8z"/><path d="m376 448h-112a8 8 0 0 0 0 16h112a8 8 0 0 0 0-16z"/><path d="m224 112v128a8 8 0 0 0 8 8h176a8 8 0 0 0 8-8v-128a24.028 24.028 0 0 0 -24-24h-144a24.028 24.028 0 0 0 -24 24zm168-8a8.009 8.009 0 0 1 8 8v120h-16v-120a23.889 23.889 0 0 0 -1.376-8zm-68.311 0-19.689 44.3-19.689-44.3zm-83.689 8a8.009 8.009 0 0 1 8-8h18.8l29.888 67.249a8 8 0 0 0 14.622 0l29.89-67.249h18.8a8.009 8.009 0 0 1 8 8v120h-128z"/><path d="m376 432h32a8 8 0 0 0 8-8v-144a8 8 0 0 0 -8-8h-160a8 8 0 0 0 -7.845 6.431l-16 80a7.99 7.99 0 0 0 .355 4.378l24 64a8 8 0 0 0 7.49 5.191zm8-144h16v16h-16zm0 32h16v96h-16zm-129.441-32h113.441v16h-116.641zm-14.266 71.329 7.866-39.329h119.841v96h-106.456z"/></svg>