<svg id="Filled" height="512" viewBox="0 0 512 512" width="512" xmlns="http://www.w3.org/2000/svg"><path d="m256 136a16 16 0 0 1 -16-16v-32a16 16 0 0 1 16-16 16 16 0 0 1 16 16v32a16 16 0 0 1 -16 16z" fill="#c3c6c7"/><circle cx="256" cy="304" fill="#266fab" r="192"/><path d="m416 304q0 4.02-.2 8a159.425 159.425 0 0 1 -41.23 99.44q-5.295 5.835-11.13 11.12a159.379 159.379 0 0 1 -99.44 41.24q-3.975.195-8 .2t-8-.2a159.379 159.379 0 0 1 -99.44-41.24q-5.835-5.28-11.13-11.12a159.425 159.425 0 0 1 -41.23-99.44q-.2-3.975-.2-8t.2-8a159.425 159.425 0 0 1 41.23-99.44q5.3-5.835 11.13-11.13a159.425 159.425 0 0 1 99.44-41.23q3.975-.195 8-.2t8 .2a159.425 159.425 0 0 1 99.44 41.23q5.835 5.3 11.13 11.13a159.425 159.425 0 0 1 41.23 99.44q.2 3.975.2 8z" fill="#e9eef2"/><path d="m232 280-40 88 88-40 40-88z" fill="#3397e8"/><path d="m232 97.445c-99 11.895-176 96.397-176 198.555 0 110.28 89.72 200 200 200s200-89.72 200-200c0-102.158-76.995-186.66-176-198.555v-9.462a40 40 0 1 0 -48 0zm0-41.445a24 24 0 1 1 41.868 16 23.956 23.956 0 0 0 -35.736 0 24.067 24.067 0 0 1 -6.132-16zm32 32v8.174c-2.655-.105-5.32-.174-8-.174s-5.345.069-8 .174v-8.174a8 8 0 0 1 16 0zm-8 24c101.458 0 184 82.542 184 184s-82.542 184-184 184-184-82.542-184-184 82.542-184 184-184z"/><path d="m256 464c92.636 0 168-75.364 168-168s-75.364-168-168-168-168 75.364-168 168 75.364 168 168 168zm-112.935-269.62 19.278 19.277a8 8 0 0 0 11.314-11.314l-19.277-19.278a151.4 151.4 0 0 1 93.62-38.855v23.79a8 8 0 0 0 16 0v-23.79a151.4 151.4 0 0 1 93.62 38.855l-19.277 19.278a8 8 0 0 0 11.314 11.314l19.278-19.277a151.4 151.4 0 0 1 38.855 93.62h-23.79a8 8 0 0 0 0 16h23.79a151.4 151.4 0 0 1 -38.855 93.62l-19.278-19.277a8 8 0 0 0 -11.314 11.314l19.277 19.278a151.4 151.4 0 0 1 -93.62 38.855v-23.79a8 8 0 0 0 -16 0v23.79a151.4 151.4 0 0 1 -93.62-38.855l19.277-19.278a8 8 0 1 0 -11.314-11.314l-19.278 19.277a151.4 151.4 0 0 1 -38.855-93.62h23.79a8 8 0 0 0 0-16h-23.79a151.4 151.4 0 0 1 38.855-93.62z"/><path d="m192 368a7.99 7.99 0 0 0 3.309-.717l88-40a8.01 8.01 0 0 0 3.972-3.972l40-88a8 8 0 0 0 -10.594-10.594l-88 40a8.01 8.01 0 0 0 -3.972 3.972l-40 88a8 8 0 0 0 7.285 11.311zm46.04-89.958 65.85-29.932-29.932 65.848-65.848 29.932z"/><circle cx="256" cy="296" r="8"/></svg>