<?xml version="1.0"?>
<svg xmlns="http://www.w3.org/2000/svg" id="Filled" viewBox="0 0 512 512" width="512" height="512"><path d="M24,376H488a0,0,0,0,1,0,0v27.05A36.95,36.95,0,0,1,451.05,440H60.95A36.95,36.95,0,0,1,24,403.05V376a0,0,0,0,1,0,0Z" style="fill:#7e8589"/><path d="M80.634,72H431.366A32.634,32.634,0,0,1,464,104.634V376a0,0,0,0,1,0,0H48a0,0,0,0,1,0,0V104.634A32.634,32.634,0,0,1,80.634,72Z" style="fill:#b6b9ba"/><rect x="80" y="104" width="352" height="240" style="fill:#e9eef2"/><path d="M208,376h96a0,0,0,0,1,0,0v0a32,32,0,0,1-32,32H240a32,32,0,0,1-32-32v0a0,0,0,0,1,0,0Z" style="fill:#9aa3a8"/><circle cx="256" cy="208" r="24" style="fill:#3397e8"/><path d="M488,368H472V104.634A40.68,40.68,0,0,0,431.366,64H80.634A40.68,40.68,0,0,0,40,104.634V368H24a8,8,0,0,0-8,8v27.05A45,45,0,0,0,60.95,448h390.1A45,45,0,0,0,496,403.05V376A8,8,0,0,0,488,368ZM56,104.634A24.662,24.662,0,0,1,80.634,80H431.366A24.662,24.662,0,0,1,456,104.634V368H56ZM294.624,384A24.039,24.039,0,0,1,272,400H240a24.038,24.038,0,0,1-22.624-16ZM480,403.05A28.983,28.983,0,0,1,451.05,432H60.95A28.983,28.983,0,0,1,32,403.05V384H200.805A40.067,40.067,0,0,0,240,416h32A40.068,40.068,0,0,0,311.2,384H480Z"/><path d="M432,96H80a8,8,0,0,0-8,8V344a8,8,0,0,0,8,8H432a8,8,0,0,0,8-8V104A8,8,0,0,0,432,96Zm-8,240H88V112H424Z"/><path d="M256,240a32,32,0,1,0-32-32A32.036,32.036,0,0,0,256,240Zm0-48a16,16,0,1,1-16,16A16.019,16.019,0,0,1,256,192Z"/><path d="M216,272h80a8,8,0,0,0,0-16H216a8,8,0,0,0,0,16Z"/></svg>
