<svg id="Filled" height="512" viewBox="0 0 512 512" width="512" xmlns="http://www.w3.org/2000/svg"><path d="m299.029 248.118h33.941v135.765h-33.941z" fill="#e1e3e6" transform="matrix(.707 -.707 .707 .707 -130.891 316)"/><path d="m488 465.37a22.63 22.63 0 0 1 -38.63 16l-105.37-105.37 32-32 105.37 105.37a22.557 22.557 0 0 1 6.63 16z" fill="#3397e8"/><circle cx="192" cy="192" fill="#3397e8" r="168"/><circle cx="192" cy="192" fill="#a3d4f7" r="136"/><path d="m160 176h-32v-32h24z" fill="#3397e8"/><path d="m224 176h56l-56-48h-40z" fill="#3397e8"/><path d="m384 208a15.979 15.979 0 0 1 -16 16h-112l-113.98-14.25a16 16 0 0 1 -14.02-15.87v-17.88l208-16c26.11 0 38.59 10.23 44.1 24h-20.1a8 8 0 0 0 0 16h23.67c.23 2.64.33 5.32.33 8z" fill="#e1e3e6"/><path d="m383.67 200h-23.67a8 8 0 0 1 0-16h20.1a56.39 56.39 0 0 1 3.57 16z" fill="#3397e8"/><path d="m216 208h56l-56 48h-40z" fill="#3397e8"/><path d="m192 368a175.733 175.733 0 0 0 105.509-35.177l39.425 39.425a8 8 0 0 0 1.409 9.409l105.37 105.37a30.628 30.628 0 1 0 43.314-43.314l-105.37-105.37a8 8 0 0 0 -9.409-1.409l-39.39-39.39a174.735 174.735 0 0 0 30.566-65.544h4.576a24.028 24.028 0 0 0 24-24c0-16.266-3.5-28.667-10.686-37.912a42.519 42.519 0 0 0 -16.755-12.838c-16.407-81.921-88.769-141.25-172.559-141.25-97.047 0-176 78.953-176 176s78.953 176 176 176zm184-12.687 99.713 99.714a14.627 14.627 0 1 1 -20.686 20.686l-99.714-99.713zm-15.314-7.313-12.686 12.686-38.072-38.072a176.747 176.747 0 0 0 12.7-12.672zm10.574-164h-11.26a8 8 0 0 0 0 16h15.623c.248 2.508.377 5.168.377 8a8.009 8.009 0 0 1 -8 8h-93.041l2.247-1.926a8 8 0 0 0 -5.206-14.074h-56a8 8 0 0 0 -6.146 2.878l-5.5 6.6-61.344-7.667a8.014 8.014 0 0 1 -7.01-7.936v-10.467l128.792-9.908.669.573.573-.668 70.266-5.405c17.886.056 29.173 5.036 34.96 16zm-142.054-62.074a8 8 0 0 0 -5.206-1.926h-40a8 8 0 0 0 -6.146 13.122l24.293 29.151-36.629 2.817-5.757-23.03a8 8 0 0 0 -7.761-6.06h-24a8 8 0 0 0 -8 8v49.875a24.038 24.038 0 0 0 21.023 23.815l51.159 6.4-22.328 26.793a8 8 0 0 0 6.146 13.117h40a8 8 0 0 0 5.206-1.926l35.087-30.074h57.322a128.832 128.832 0 0 1 -41.86 60.122 126.624 126.624 0 0 1 -79.755 27.878 128 128 0 0 1 0-256 126.624 126.624 0 0 1 79.755 27.878 128.782 128.782 0 0 1 42.373 61.781l-43.955 3.381zm18.406 36.849-25.893 1.992-20.639-24.767h19.961zm-98.274 7.56-13.338 1.026v-15.361h9.754zm43.742 81.665 26.667-32h30.627l-37.333 32zm-1.08-216a160.174 160.174 0 0 1 155.118 120.646 91.5 91.5 0 0 0 -11.118-.646q-.308 0-.613.023l-4.9.378a144.827 144.827 0 0 0 -48.75-73.031 142.466 142.466 0 0 0 -89.737-31.37c-79.4 0-144 64.6-144 144s64.6 144 144 144a142.466 142.466 0 0 0 89.732-31.37 144.841 144.841 0 0 0 48.632-72.63h16.592a160.179 160.179 0 0 1 -154.956 120c-88.225 0-160-71.776-160-160s71.775-160 160-160z"/></svg>