<svg id="Filled" height="512" viewBox="0 0 512 512" width="512" xmlns="http://www.w3.org/2000/svg"><path d="m190.311 336h33.689a0 0 0 0 1 0 0v64a0 0 0 0 1 0 0h-33.689a14.311 14.311 0 0 1 -14.311-14.311v-35.378a14.311 14.311 0 0 1 14.311-14.311z" fill="#b6b9ba"/><rect fill="#dadcde" height="96" rx="10.94" width="96" x="208" y="320"/><path d="m384 192h-63.466c-37.872-31.991-91.2-31.991-129.068 0h-63.466v32h53.333l10.667 32h128l10.667-32h53.333z" fill="#eb423f"/><circle cx="256" cy="368" fill="#7e8589" r="16"/><path d="m240 256h32v64h-32z" fill="#eb423f"/><path d="m256 224a32 32 0 0 1 32 32 0 0 0 0 1 0 0h-64a0 0 0 0 1 0 0 32 32 0 0 1 32-32z" fill="#d13330"/><path d="m400 96a16 16 0 0 1 16 16v16a0 0 0 0 1 0 0h-32a0 0 0 0 1 0 0v-16a16 16 0 0 1 16-16z" fill="#7e8589"/><path d="m384 128h32v48h-32z" fill="#eb423f"/><rect fill="#b6b9ba" height="64" rx="18.475" width="64" x="368" y="176"/><path d="m112 96a16 16 0 0 1 16 16v16a0 0 0 0 1 0 0h-32a0 0 0 0 1 0 0v-16a16 16 0 0 1 16-16z" fill="#7e8589"/><path d="m96 128h32v48h-32z" fill="#eb423f"/><rect fill="#b6b9ba" height="64" rx="18.475" width="64" x="80" y="176"/><path d="m488 120h-64v-8a24 24 0 0 0 -48 0v8h-64a8 8 0 0 0 0 16h64v34.165a26.63 26.63 0 0 0 -13.835 13.835h-38.765a106.662 106.662 0 0 0 -134.8 0h-38.765a26.63 26.63 0 0 0 -13.835-13.835v-34.165h64a8 8 0 0 0 0-16h-64v-8a24 24 0 0 0 -48 0v8h-64a8 8 0 0 0 0 16h64v34.165a26.511 26.511 0 0 0 -16 24.311v27.048a26.505 26.505 0 0 0 26.475 26.476h27.05a26.512 26.512 0 0 0 24.31-16h25.732l8.844 26.53a8 8 0 0 0 7.589 5.47h40v48h-13.06a18.953 18.953 0 0 0 -18.688 16h-9.941a22.337 22.337 0 0 0 -22.311 22.311v35.378a22.337 22.337 0 0 0 22.311 22.311h9.941a18.953 18.953 0 0 0 18.688 16h74.12a18.962 18.962 0 0 0 18.94-18.94v-74.12a18.962 18.962 0 0 0 -18.94-18.94h-13.06v-48h40a8 8 0 0 0 7.59-5.47l8.843-26.53h25.732a26.515 26.515 0 0 0 24.311 16h27.048a26.506 26.506 0 0 0 26.476-26.476v-27.048a26.515 26.515 0 0 0 -16-24.311v-34.165h64a8 8 0 0 0 0-16zm-384-8a8 8 0 0 1 16 0v8h-16zm0 24h16v32h-16zm32 85.524a10.487 10.487 0 0 1 -10.475 10.476h-27.05a10.487 10.487 0 0 1 -10.475-10.476v-27.048a10.487 10.487 0 0 1 10.475-10.476h27.05a10.487 10.487 0 0 1 10.475 10.476zm64 170.476h-9.689a6.318 6.318 0 0 1 -6.311-6.311v-35.378a6.318 6.318 0 0 1 6.311-6.311h9.689zm93.06-64a2.943 2.943 0 0 1 2.94 2.94v74.12a2.943 2.943 0 0 1 -2.94 2.94h-74.12a2.943 2.943 0 0 1 -2.94-2.94v-74.12a2.943 2.943 0 0 1 2.94-2.94zm-59.684-80a24 24 0 0 1 45.248 0zm30.624 16v48h-16v-48zm96-48h-29.333a8 8 0 0 0 -7.59 5.47l-8.843 26.53h-19.034a40 40 0 0 0 -78.39 0h-19.044l-8.843-26.53a8 8 0 0 0 -7.59-5.47h-29.333v-16h39.466a8 8 0 0 0 5.162-1.889c34.958-29.528 83.787-29.528 118.744 0a8 8 0 0 0 5.162 1.889h39.466zm32-104a8 8 0 0 1 16 0v8h-16zm0 24h16v32h-16zm32 85.524a10.487 10.487 0 0 1 -10.476 10.476h-27.048a10.487 10.487 0 0 1 -10.476-10.476v-27.048a10.487 10.487 0 0 1 10.476-10.476h27.048a10.487 10.487 0 0 1 10.476 10.476z"/><path d="m256 392a24 24 0 1 0 -24-24 24.027 24.027 0 0 0 24 24zm0-32a8 8 0 1 1 -8 8 8.009 8.009 0 0 1 8-8z"/></svg>