<svg id="Filled" height="512" viewBox="0 0 512 512" width="512" xmlns="http://www.w3.org/2000/svg"><path d="m200 312h288v160h-288z" fill="#35a872"/><path d="m168 312h288v160h-288z" fill="#38b37a"/><path d="m136 312h288v160h-288z" fill="#3dc285"/><path d="m376 344h-192a16 16 0 0 1 -16 16v64a16 16 0 0 1 16 16h192a16 16 0 0 1 16-16v-64a16 16 0 0 1 -16-16z" fill="#2e9163"/><ellipse cx="280" cy="392" fill="#cfdb8c" rx="32" ry="48"/><circle cx="96" cy="112" fill="#e6be34" r="72"/><circle cx="128" cy="112" fill="#f2c837" r="72"/><circle cx="160" cy="112" fill="#ffd33a" r="72"/><path d="m268.505 145.39-.077-.051c-.041-.026-.08-.054-.12-.08v.005a7.994 7.994 0 1 0 -8.608 13.472v.005c28.151 17.992 44.3 53.442 44.3 97.259v4.686l-18.343-18.343a8 8 0 0 0 -11.314 11.314l32 32a8 8 0 0 0 11.314 0l32-32a8 8 0 0 0 -11.314-11.314l-18.343 18.343v-4.686c0-49.286-18.767-89.583-51.495-110.61z"/><path d="m488 304h-352a8 8 0 0 0 -8 8v160a8 8 0 0 0 8 8h352a8 8 0 0 0 8-8v-160a8 8 0 0 0 -8-8zm-72 160h-272v-144h272zm32 0h-16v-144h16zm32 0h-16v-144h16z"/><path d="m168 432a8.009 8.009 0 0 1 8 8 8 8 0 0 0 8 8h192a8 8 0 0 0 8-8 8.009 8.009 0 0 1 8-8 8 8 0 0 0 8-8v-64a8 8 0 0 0 -8-8 8.009 8.009 0 0 1 -8-8 8 8 0 0 0 -8-8h-192a8 8 0 0 0 -8 8 8.009 8.009 0 0 1 -8 8 8 8 0 0 0 -8 8v64a8 8 0 0 0 8 8zm140.243-80h61.128a24.115 24.115 0 0 0 14.629 14.629v50.742a24.115 24.115 0 0 0 -14.629 14.629h-61.128c7.294-10.091 11.757-24.18 11.757-40s-4.463-29.909-11.757-40zm-28.243 0c13.01 0 24 18.318 24 40s-10.99 40-24 40-24-18.318-24-40 10.991-40 24-40zm-104 14.629a24.115 24.115 0 0 0 14.629-14.629h61.128c-7.294 10.091-11.757 24.18-11.757 40s4.463 29.909 11.757 40h-61.128a24.115 24.115 0 0 0 -14.629-14.629z"/><path d="m344 400h16a8 8 0 0 0 0-16h-16a8 8 0 0 0 0 16z"/><path d="m200 400h16a8 8 0 0 0 0-16h-16a8 8 0 0 0 0 16z"/><path d="m96 192a80.523 80.523 0 0 0 16.007-1.609 80.357 80.357 0 0 0 32 0 80 80 0 1 0 0-156.782 80.362 80.362 0 0 0 -32 0c-2.351-.478-4.739-.857-7.127-1.121a81 81 0 0 0 -8.88-.488 80 80 0 0 0 0 160zm64-144a64 64 0 1 1 -64 64 64.072 64.072 0 0 1 64-64zm-51.881 3.177a79.841 79.841 0 0 0 0 121.646 63.985 63.985 0 0 1 0-121.646zm-32 0a79.841 79.841 0 0 0 0 121.646 63.985 63.985 0 0 1 0-121.646z"/><path d="m29.657 253.657 18.343-18.343v20.686a128.748 128.748 0 0 0 51.194 102.4v-.008a7.991 7.991 0 1 0 9.6-12.776v-.008c-27.625-20.774-44.794-55.108-44.794-89.608v-20.686l18.343 18.343a8 8 0 0 0 11.314-11.314l-32-32a8 8 0 0 0 -11.314 0l-32 32a8 8 0 0 0 11.314 11.314z"/><path d="m144 120h8v16h-16a8 8 0 0 0 0 16h16a8 8 0 0 0 16 0h8a24 24 0 0 0 0-48h-8v-16h16a8 8 0 0 0 0-16h-16a8 8 0 0 0 -16 0h-8a24 24 0 0 0 0 48zm24 0h8a8 8 0 0 1 0 16h-8zm-24-32h8v16h-8a8 8 0 0 1 0-16z"/></svg>