<svg id="Filled" height="512" viewBox="0 0 512 512" width="512" xmlns="http://www.w3.org/2000/svg"><path d="m192 24h64v32h-64z" fill="#d0d2d4"/><circle cx="360" cy="168" fill="#d0d2d4" r="16"/><rect fill="#e9eef2" height="336" rx="16" width="176" x="168" y="152"/><path d="m344 224v248a16 16 0 0 1 -16 16h-144a16 16 0 0 1 -16-16v-248s24-8 48-8c40 0 40 24 80 24 24 0 48-16 48-16z" fill="#a3d4f7"/><path d="m320 56h-128a16 16 0 0 0 -16 16v80h160v-80a16 16 0 0 0 -16-16z" fill="#3397e8"/><path d="m383.99 168.376c0-.126.01-.25.01-.376a23.984 23.984 0 0 0 -40-17.869v-78.131a24.028 24.028 0 0 0 -24-24h-8.8a40.069 40.069 0 0 0 -39.2-32h-96a8 8 0 0 0 0 16h8v17.376a24.039 24.039 0 0 0 -16 22.624v78.131a23.943 23.943 0 0 0 -8 17.869v304a24.028 24.028 0 0 0 24 24h144a24.028 24.028 0 0 0 24-24v-72.891a36.743 36.743 0 0 0 8 .891c35.888 0 64-52.71 64-120 0-50.039-15.918-93.938-40.01-111.624zm-119.99-136.376h8a24.039 24.039 0 0 1 22.624 16h-30.624zm-64 0h48v16h-48zm-16 96h104a8 8 0 0 0 0-16h-104v-40a8.009 8.009 0 0 1 8-8h128a8.009 8.009 0 0 1 8 8v40h-8a8 8 0 0 0 0 16h8v16h-144zm152 344a8.009 8.009 0 0 1 -8 8h-144a8.009 8.009 0 0 1 -8-8v-242.025c8.128-2.228 24.148-5.975 40-5.975 17.784 0 26.172 5.032 35.884 10.86 10.265 6.16 21.9 13.14 44.116 13.14 15.143 0 29.984-5.589 40-10.427zm0-252.5c-7.1 4.073-23.741 12.5-40 12.5-17.784 0-26.172-5.032-35.884-10.86-10.265-6.16-21.9-13.14-44.116-13.14-15.272 0-30.339 3.007-40 5.427v-45.427a8.009 8.009 0 0 1 8-8h144a8.009 8.009 0 0 1 8 8zm24-59.5a8 8 0 1 1 -8 8 8.009 8.009 0 0 1 8-8zm48 120c0 28.7-5.525 55.554-15.558 75.618-9.018 18.037-20.842 28.382-32.442 28.382a21.662 21.662 0 0 1 -8-1.592v-191.784a23.953 23.953 0 0 0 25.861-6.615c7.433 6.8 14.153 17.6 19.331 31.28 7.071 18.676 10.808 41.053 10.808 64.711z"/></svg>