<svg id="Filled" height="512" viewBox="0 0 512 512" width="512" xmlns="http://www.w3.org/2000/svg"><path d="m448 487.693v-368h-384v368" fill="#dadcde"/><path d="m64 375.693h384v112h-384z" fill="#c3c6c7"/><path d="m64 279.693h384v64h-384z" fill="#8fbad9"/><path d="m168 279.693h64v64h-64z" fill="#a3d4f7"/><path d="m64 279.693h64v64h-64z" fill="#a3d4f7"/><path d="m288 487.693v-80h-64v80" fill="#3397e8"/><path d="m168 71.693h176v48h-176z" fill="#3397e8"/><path d="m64 167.693h384v64h-384z" fill="#8fbad9"/><path d="m416 423.693h-80l40-32z" fill="#ffd33a"/><path d="m176 423.693h-80l40-32z" fill="#ffd33a"/><path d="m64 455.693h128v32.307h-128z" fill="#3397e8"/><path d="m320 455.693h128v32h-128z" fill="#3397e8"/><path d="m93.326 372.5a32 32 0 0 0 -10.126-38.407 24 24 0 1 0 -38.4 0 32 32 0 0 0 -10.126 38.407 40 40 0 1 0 58.652 0z" fill="#3dc285"/><g fill="#a3d4f7"><path d="m280 279.693h64v64h-64z"/><path d="m384 279.693h64v64h-64z"/><path d="m280 167.693h64v64h-64z"/><path d="m384 167.693h64v64h-64z"/><path d="m168 167.693h64v64h-64z"/><path d="m64 167.693h64v64h-64z"/></g><path d="m477.326 372.5a32 32 0 0 0 -10.126-38.407 24 24 0 1 0 -38.4 0 32 32 0 0 0 -10.126 38.407 40 40 0 1 0 58.652 0z" fill="#3dc285"/><path d="m488 480h-32v-32.679a47.988 47.988 0 0 0 30.4-76.111 40.075 40.075 0 0 0 -9.059-38.413 32.036 32.036 0 0 0 -21.341-43.784v-169.013a8 8 0 0 0 -8-8h-96v-40a8 8 0 0 0 -8-8h-176a8 8 0 0 0 -8 8v40h-96a8 8 0 0 0 -8 8v169.013a32.036 32.036 0 0 0 -21.344 43.787 40.075 40.075 0 0 0 -9.056 38.41 47.988 47.988 0 0 0 30.4 76.111v32.679h-32a8 8 0 0 0 0 16h464a8 8 0 0 0 0-16zm-312-400h160v32h-160zm-104 48h368v32h-368zm328 64v-16h40v16zm40 16v16h-40v-16zm-56-32v48h-32v-48zm-64 16v-16h16v16zm16 16v16h-16v-16zm-48-16v-16h16v16zm16 16v16h-16v-16zm-32-32v48h-32v-48zm-64 16v-16h16v16zm16 16v16h-16v-16zm-48-16v-16h16v16zm16 16v16h-16v-16zm-32-32v48h-32v-48zm-88 0h40v16h-40zm0 32h40v16h-40zm0 32h368v32h-368zm56 192v16h-56v-.679a47.974 47.974 0 0 0 27.739-15.321zm-9.194-16 17.194-13.755 17.194 13.755zm-22.784-80a40.015 40.015 0 0 0 -2.678-3.2 31.807 31.807 0 0 0 2.656-12.8h16v16zm7.179 16h305.599a40.535 40.535 0 0 0 -.8 8 39.945 39.945 0 0 0 .816 8h-305.632a39.945 39.945 0 0 0 .816-8 40.535 40.535 0 0 0 -.8-8zm24.799-16v-48h32v48zm64-16v16h-16v-16zm-16-16v-16h16v16zm48 16v16h-16v-16zm-16-16v-16h16v16zm32 32v-48h32v48zm64-16v16h-16v-16zm-16-16v-16h16v16zm48 16v16h-16v-16zm-16-16v-16h16v16zm32 32v-48h32v48zm48 0v-16h16a31.807 31.807 0 0 0 2.656 12.8 40.015 40.015 0 0 0 -2.678 3.2zm0-32v-16h40v1.013a32.12 32.12 0 0 0 -19.695 14.987zm-328-16h40v16h-20.3a32.12 32.12 0 0 0 -19.7-14.987zm-8 112a8 8 0 0 0 -8 8v22.987a31.993 31.993 0 0 1 -15.461-52.738 8 8 0 0 0 1.461-8.649 24.006 24.006 0 0 1 7.6-28.8 8 8 0 0 0 1.6-11.2 15.851 15.851 0 0 1 -3.2-9.6 16 16 0 0 1 32 0 15.851 15.851 0 0 1 -3.2 9.6 8 8 0 0 0 1.6 11.2 24.006 24.006 0 0 1 7.6 28.8 8 8 0 0 0 1.464 8.647 31.993 31.993 0 0 1 -15.464 52.74v-22.987a8 8 0 0 0 -8-8zm120 80h-112v-16h112zm64 0h-16v-64h16zm32 0h-16v-64h16zm32-24v24h-16v-72a8 8 0 0 0 -8-8h-64a8 8 0 0 0 -8 8v72h-16v-24a8 8 0 0 0 -8-8h-48v-16h32a8 8 0 0 0 5-14.247l-40-32a8 8 0 0 0 -10 0l-19.027 15.222c.007-.326.025-.648.025-.975a47.955 47.955 0 0 0 -2.747-16h293.496a47.955 47.955 0 0 0 -2.747 16c0 .327.018.649.025.975l-19.025-15.222a8 8 0 0 0 -10 0l-40 32a8 8 0 0 0 5 14.247h32v16h-48a8 8 0 0 0 -8 8zm81.194-40h-34.388l17.194-13.755zm46.806 64h-112v-16h112zm0-32h-56v-16h28.261a47.974 47.974 0 0 0 27.739 15.321zm8-48a8 8 0 0 0 -8 8v22.987a31.993 31.993 0 0 1 -15.461-52.738 8 8 0 0 0 1.461-8.649 24.006 24.006 0 0 1 7.6-28.806 8 8 0 0 0 1.592-11.2 15.851 15.851 0 0 1 -3.192-9.594 16 16 0 0 1 32 0 15.851 15.851 0 0 1 -3.2 9.6 8 8 0 0 0 1.592 11.2 24.006 24.006 0 0 1 7.608 28.8 8 8 0 0 0 1.464 8.647 31.993 31.993 0 0 1 -15.464 52.74v-22.987a8 8 0 0 0 -8-8z"/></svg>