<svg id="Filled" height="512" viewBox="0 0 512 512" width="512" xmlns="http://www.w3.org/2000/svg"><path d="m392 192h96v80h-96z" fill="#f7b030"/><path d="m488 192h-96l16-32h64z" fill="#e37e22"/><circle cx="440" cy="232" fill="#e9eef2" r="16"/><path d="m416.267 120h47.733v40h-47.733z" fill="#f7b030"/><path d="m416.267 120h47.733l-23.867-48z" fill="#e37e22"/><path d="m416 272h48v168h-48z" fill="#eba72e"/><path d="m112 440 104-160 104 160z" fill="#a36f58"/><path d="m464 440h-288l144-207.75 49.73 71.75 11.09 16z" fill="#d49073"/><path d="m319.95 232.32-31.62 207.68h-112.33z" fill="#b37a60"/><g fill="#a36f58"><path d="m336 312a8 8 0 0 1 -8 8h-21.4l2.44-16h18.96a8 8 0 0 1 8 8z"/><path d="m380.82 320h-20.82a8 8 0 0 1 0-16h9.73z"/><path d="m352 352h-16a8 8 0 0 1 0-16h16a8 8 0 0 1 0 16z"/><path d="m328 376a8 8 0 0 1 -8 8h-23.14l2.43-16h20.71a8 8 0 0 1 8 8z"/><path d="m352 416h-16a8 8 0 0 1 0-16h16a8 8 0 0 1 0 16z"/><path d="m408 416h-16a8 8 0 0 1 0-16h16a8 8 0 0 1 0 16z"/><path d="m376 384h-16a8 8 0 0 1 0-16h16a8 8 0 0 1 0 16z"/></g><path d="m128 120c-9.359 113.681-45.516 199.229-104 320h48c0-26.51 25.072-48 56-48s56 21.49 56 48h48c-58.484-120.771-94.641-206.319-104-320zm-32 240c16-24 16-40 16-48h32c0 8 0 24 16 48z" fill="#c3c6c7"/><circle cx="128" cy="120" fill="#7e8589" r="16"/><path d="m495.155 188.422-16-32a8 8 0 0 0 -7.155-4.422v-32h-.015a7.983 7.983 0 0 0 -.821-3.562l-23.867-48a8 8 0 0 0 -14.327 0l-23.866 48a7.971 7.971 0 0 0 -.822 3.562h-.015v32h-.267a8 8 0 0 0 -7.155 4.422l-16 32a7.974 7.974 0 0 0 -.83 3.578h-.015v80a8 8 0 0 0 8 8h16v65.166l-81.425-117.472a8 8 0 0 0 -13.15 0l-62.9 90.744-27.818-42.8a8 8 0 0 0 -13.416 0l-25.33 38.969q-5.336-13.336-10.177-26.607h2.216a8 8 0 0 0 0-16h-7.847c-14.169-41.657-24.461-83.841-29.93-130.292a23.993 23.993 0 0 0 -2.223-44.332v-25.376a8 8 0 0 0 -16 0v25.376a23.993 23.993 0 0 0 -2.223 44.332c-5.469 46.451-15.761 88.635-29.93 130.292h-7.847a8 8 0 0 0 0 16h2.216c-7.712 21.173-16.4 42.344-25.929 64h-8.287a8 8 0 0 0 0 16h1.14c-10 22.051-20.818 44.719-32.34 68.514a8 8 0 0 0 7.2 11.486h48a8 8 0 0 0 8-8c0-22.056 21.533-40 48-40 .152 0 .3.008.452.01l-23.16 35.63a8 8 0 0 0 6.708 12.36h352a8 8 0 0 0 8-8v-160h16a8 8 0 0 0 8-8v-80h-.015a7.974 7.974 0 0 0 -.83-3.578zm-55.022-98.453 10.955 22.031h-21.909zm-15.866 38.031h31.733v24h-31.733zm-11.323 40h54.112l8 16h-70.112zm-221.437 164.36 24.493-37.681 24.678 37.967-30.12 43.454q-1.864-4.062-3.7-8.1h1.142a8 8 0 0 0 0-16h-8.287q-4.4-10-8.562-19.871zm-63.507-220.36a8 8 0 1 1 -8 8 8.009 8.009 0 0 1 8-8zm0 69.712a647.886 647.886 0 0 0 23.334 90.288h-46.668a647.886 647.886 0 0 0 23.334-90.288zm-28.849 106.288h57.7c7.479 20.922 15.956 42.013 25.49 64h-17.972c-12.362-19.947-12.369-32.875-12.369-40a8 8 0 0 0 -8-8h-32a8 8 0 0 0 -8 8c0 7.125-.007 20.053-12.369 40h-17.977c9.533-21.983 18.02-43.081 25.497-64zm46.828 64h-35.958c7.024-13.6 9.106-24.345 9.721-32h16.516c.615 7.655 2.697 18.4 9.721 32zm-19.237 80 18.96-29.169c14.846 4.928 26.075 15.851 29.332 29.169zm64.594 0c-4.451-27.1-31.151-48-63.336-48s-58.9 20.9-63.349 48h-27.906c10.857-22.568 20.79-43.714 29.862-64h122.782c9.07 20.282 19.011 41.436 29.866 64zm45.683 0q-9.675-20.014-18.65-39.083l88.471-127.636-25.387 166.719zm60.618 0 7.31-48h15.053a8 8 0 0 0 0-16h-12.617l7.309-48h13.308a8 8 0 0 0 0-16h-10.872l7.722-50.708 35.15 50.708a8 8 0 0 0 0 16h11.089l77.632 112zm158.363-17.584-32.173-46.416h.173v-88h32zm24-150.416h-80v-64h80z"/><path d="m440 256a24 24 0 1 0 -24-24 24.027 24.027 0 0 0 24 24zm0-32a8 8 0 1 1 -8 8 8.009 8.009 0 0 1 8-8z"/><path d="m336 352h16a8 8 0 0 0 0-16h-16a8 8 0 0 0 0 16z"/><path d="m352 400h-16a8 8 0 0 0 0 16h16a8 8 0 0 0 0-16z"/><path d="m392 416h16a8 8 0 0 0 0-16h-16a8 8 0 0 0 0 16z"/><path d="m352 376a8 8 0 0 0 8 8h16a8 8 0 0 0 0-16h-16a8 8 0 0 0 -8 8z"/></svg>