<?xml version="1.0"?>
<svg xmlns="http://www.w3.org/2000/svg" id="Filled" viewBox="0 0 512 512" width="512" height="512"><path d="M488,152V472H55.98A31.983,31.983,0,0,1,24,440.02V152Z" style="fill:#e1e3e6"/><circle cx="360" cy="232" r="24" style="fill:#9aa3a8"/><path d="M416,96c0,30.928-56,128-56,128s-56-97.072-56-128a56,56,0,0,1,112,0Z" style="fill:#eb423f"/><circle cx="360" cy="96" r="24" style="fill:#e9eef2"/><path d="M56,104h0a32,32,0,0,1,32,32V440a0,0,0,0,1,0,0H24a0,0,0,0,1,0,0V136a32,32,0,0,1,32-32Z" style="fill:#c3c6c7"/><circle cx="56" cy="440" r="32" style="fill:#9aa3a8"/><path d="M488,144H409.759C417.944,124.91,424,107.051,424,96a64,64,0,0,0-128,0c0,11.051,6.056,28.91,14.241,48H96v-8a40,40,0,0,0-80,0V440a40.045,40.045,0,0,0,39.975,40H488a8,8,0,0,0,8-8V152A8,8,0,0,0,488,144ZM56,464a24,24,0,1,1,24-24A24.028,24.028,0,0,1,56,464Zm24-55.978a39.912,39.912,0,0,0-48,0V136a24,24,0,0,1,48,0ZM360,48a48.054,48.054,0,0,1,48,48c0,19.84-28.009,75.211-46.016,108.1a7.965,7.965,0,0,0-1.527,2.6c-.04.113-.057.229-.092.344l-.365.664-.365-.664c-.035-.115-.052-.231-.092-.344a7.973,7.973,0,0,0-1.53-2.6C340.005,171.21,312,115.847,312,96A48.054,48.054,0,0,1,360,48Zm16,184a16,16,0,1,1-27.163-11.448c2.012,3.579,3.491,6.158,4.233,7.446a8,8,0,0,0,13.86,0c.742-1.288,2.221-3.867,4.233-7.446A16.018,16.018,0,0,1,376,232ZM160,352H120a8,8,0,0,0,0,16h40v96H87.978A39.788,39.788,0,0,0,96,440V320h64Zm320,24H456a8,8,0,0,0,0,16h24v72H440V440a8,8,0,0,0-16,0v24H176V416h24a8,8,0,0,0,0-16H176V320h88V440a8,8,0,0,0,16,0v-8h56a8,8,0,0,0,0-16H280V320h96v32H352a8,8,0,0,0,0,16h24v24a8,8,0,0,0,16,0V320h88Zm0-152H424a8,8,0,0,0,0,16h56v64H448V280a8,8,0,0,0-16,0v24H328v-8a8,8,0,0,0-16,0v8H216V280h24a8,8,0,0,0,0-16H216V184a8,8,0,0,0-16,0v24H128a8,8,0,0,0,0,16h8v16a8,8,0,0,0,16,0V224h48v80H96V160H280v16H256a8,8,0,0,0,0,16h24v24a8,8,0,0,0,16,0V160h21.436c7.922,16.911,16.637,33.579,23.531,46.291a32,32,0,1,0,38.066,0c6.894-12.712,15.609-29.38,23.531-46.291H480Z"/><path d="M392,96a32,32,0,1,0-32,32A32.036,32.036,0,0,0,392,96Zm-48,0a16,16,0,1,1,16,16A16.019,16.019,0,0,1,344,96Z"/></svg>
