<svg id="Filled" height="512" viewBox="0 0 512 512" width="512" xmlns="http://www.w3.org/2000/svg"><rect fill="#e1e3e6" height="336" rx="16" width="192" x="288" y="152"/><rect fill="#7e8589" height="80" rx="16" width="192" x="64" y="24"/><path d="m96 104h128v64h-128z" fill="#99c7e8"/><path d="m96 168h128a64 64 0 0 1 64 64v224a32 32 0 0 1 -32 32h-192a32 32 0 0 1 -32-32v-224a64 64 0 0 1 64-64z" fill="#a3d4f7"/><path d="m32 248h256v160h-256z" fill="#3397e8"/><rect fill="#266fab" height="64" rx="16" width="32" x="80" y="296"/><path d="m112 328v16a16 16 0 0 1 -32 0v-16z" fill="#e1e3e6"/><g fill="#a3d4f7"><circle cx="432" cy="224" r="16"/><circle cx="432" cy="288" r="16"/><circle cx="432" cy="352" r="16"/><circle cx="432" cy="416" r="16"/><circle cx="336" cy="224" r="16"/><circle cx="336" cy="288" r="16"/><circle cx="336" cy="352" r="16"/><circle cx="336" cy="416" r="16"/></g><path d="m464 144h-160a24.028 24.028 0 0 0 -24 24v18.815a71.958 71.958 0 0 0 -48-26.36v-16.455h8a8 8 0 0 0 0-16h-8v-16h8a24.028 24.028 0 0 0 24-24v-48a24.028 24.028 0 0 0 -24-24h-160a24.028 24.028 0 0 0 -24 24v48a24.028 24.028 0 0 0 24 24h8v16h-8a8 8 0 0 0 0 16h8v16.455a72.1 72.1 0 0 0 -64 71.545v224a40.045 40.045 0 0 0 40 40h192a39.847 39.847 0 0 0 27.714-11.2 24 24 0 0 0 20.286 11.2h160a24.028 24.028 0 0 0 24-24v-304a24.028 24.028 0 0 0 -24-24zm-384-48a8.009 8.009 0 0 1 -8-8v-48a8.009 8.009 0 0 1 8-8h160a8.009 8.009 0 0 1 8 8v48a8.009 8.009 0 0 1 -8 8zm24 32v-16h112v16zm112 16v16h-112v-16zm64 312a24.028 24.028 0 0 1 -24 24h-192a24.028 24.028 0 0 1 -24-24v-40h240zm0-56h-240v-144h240zm0-160h-240v-8a56.063 56.063 0 0 1 56-56h128a56.063 56.063 0 0 1 56 56zm192 232a8.009 8.009 0 0 1 -8 8h-160a8.009 8.009 0 0 1 -8-8v-304a8.009 8.009 0 0 1 8-8h160a8.009 8.009 0 0 1 8 8z"/><path d="m96 48a8 8 0 0 0 -8 8v16a8 8 0 0 0 16 0v-16a8 8 0 0 0 -8-8z"/><path d="m160 48a8 8 0 0 0 -8 8v16a8 8 0 0 0 16 0v-16a8 8 0 0 0 -8-8z"/><path d="m128 48a8 8 0 0 0 -8 8v16a8 8 0 0 0 16 0v-16a8 8 0 0 0 -8-8z"/><path d="m192 48a8 8 0 0 0 -8 8v16a8 8 0 0 0 16 0v-16a8 8 0 0 0 -8-8z"/><path d="m224 48a8 8 0 0 0 -8 8v16a8 8 0 0 0 16 0v-16a8 8 0 0 0 -8-8z"/><path d="m96 368a24.028 24.028 0 0 0 24-24v-32a24 24 0 0 0 -48 0v32a24.028 24.028 0 0 0 24 24zm-8-56a8 8 0 0 1 16 0v8h-16zm0 24h16v8a8 8 0 0 1 -16 0z"/><path d="m160 304h16a8 8 0 0 0 0-16h-16a8 8 0 0 0 0 16z"/><path d="m160 336h80a8 8 0 0 0 0-16h-80a8 8 0 0 0 0 16z"/><path d="m160 368h32a8 8 0 0 0 0-16h-32a8 8 0 0 0 0 16z"/><path d="m208 304h32a8 8 0 0 0 0-16h-32a8 8 0 0 0 0 16z"/><path d="m240 352h-16a8 8 0 0 0 0 16h16a8 8 0 0 0 0-16z"/><path d="m384 176a8 8 0 0 0 -8 8v272a8 8 0 0 0 16 0v-272a8 8 0 0 0 -8-8z"/><path d="m432 200a24 24 0 1 0 24 24 24.028 24.028 0 0 0 -24-24zm0 32a8 8 0 1 1 8-8 8.009 8.009 0 0 1 -8 8z"/><path d="m432 264a24 24 0 1 0 24 24 24.028 24.028 0 0 0 -24-24zm0 32a8 8 0 1 1 8-8 8.009 8.009 0 0 1 -8 8z"/><path d="m432 328a24 24 0 1 0 24 24 24.028 24.028 0 0 0 -24-24zm0 32a8 8 0 1 1 8-8 8.009 8.009 0 0 1 -8 8z"/><path d="m432 392a24 24 0 1 0 24 24 24.028 24.028 0 0 0 -24-24zm0 32a8 8 0 1 1 8-8 8.009 8.009 0 0 1 -8 8z"/><path d="m336 200a24 24 0 1 0 24 24 24.028 24.028 0 0 0 -24-24zm0 32a8 8 0 1 1 8-8 8.009 8.009 0 0 1 -8 8z"/><path d="m336 264a24 24 0 1 0 24 24 24.028 24.028 0 0 0 -24-24zm0 32a8 8 0 1 1 8-8 8.009 8.009 0 0 1 -8 8z"/><path d="m336 328a24 24 0 1 0 24 24 24.028 24.028 0 0 0 -24-24zm0 32a8 8 0 1 1 8-8 8.009 8.009 0 0 1 -8 8z"/><path d="m336 392a24 24 0 1 0 24 24 24.028 24.028 0 0 0 -24-24zm0 32a8 8 0 1 1 8-8 8.009 8.009 0 0 1 -8 8z"/></svg>