<svg id="Filled" height="512" viewBox="0 0 512 512" width="512" xmlns="http://www.w3.org/2000/svg"><rect fill="#dadcde" height="464" rx="32.928" width="288" x="112" y="24"/><path d="m144 88h224v320h-224z" fill="#7e8589"/><path d="m296 360-40-16-40 16 40-96z" fill="#eb423f"/><path d="m144.928 16a40.974 40.974 0 0 0 -40.928 40.928v398.144a40.974 40.974 0 0 0 40.928 40.928h222.144a40.974 40.974 0 0 0 40.928-40.928v-398.144a40.974 40.974 0 0 0 -40.928-40.928zm247.072 40.928v398.144a24.957 24.957 0 0 1 -24.928 24.928h-222.144a24.957 24.957 0 0 1 -24.928-24.928v-398.144a24.957 24.957 0 0 1 24.928-24.928h222.144a24.957 24.957 0 0 1 24.928 24.928z"/><path d="m136 88v320a8 8 0 0 0 8 8h224a8 8 0 0 0 8-8v-320a8 8 0 0 0 -8-8h-224a8 8 0 0 0 -8 8zm128 8h24v24a8 8 0 0 0 16 0v-24h56v64h-96zm-112 0h96v32h-96zm0 288h24a8 8 0 0 0 0-16h-24v-48h24a8 8 0 0 0 0-16h-24v-80h32v24a8 8 0 0 0 16 0v-24h8a8 8 0 0 0 0-16h-56v-64h40v24a8 8 0 0 0 16 0v-24h40v88a8 8 0 0 0 16 0v-56h96v80h-32v-40a8 8 0 0 0 -16 0v40h-8a8 8 0 0 0 0 16h56v64h-24a8 8 0 0 0 0 16h24v48h-96v-24a8 8 0 0 0 -16 0v24h-96z"/><circle cx="256" cy="448" r="16"/><circle cx="216" cy="56" r="8"/><path d="m248 64h40a8 8 0 0 0 0-16h-40a8 8 0 0 0 0 16z"/><path d="m293.029 367.428a8 8 0 0 0 10.356-10.5l-40-96a8 8 0 0 0 -14.77 0l-40 96a8 8 0 0 0 10.356 10.5l37.029-14.812zm-62.321-21.928 25.292-60.7 25.292 60.7-22.321-8.928a8 8 0 0 0 -5.942 0z"/></svg>