<svg id="Filled" height="512" viewBox="0 0 512 512" width="512" xmlns="http://www.w3.org/2000/svg"><path d="m440 104v384h-320v-464h240z" fill="#e1e3e6"/><path d="m440 104h-80v-80z" fill="#d0d2d4"/><rect fill="#a3d4f7" height="320" rx="16" width="288" x="24" y="168"/><path d="m56 200h224v64h-224z" fill="#8fbad9"/><g fill="#3397e8"><path d="m184 296h32v32h-32z"/><path d="m248 296h32v32h-32z"/><path d="m248 360h32v96h-32z"/><path d="m56 296h32v32h-32z"/><path d="m120 296h32v32h-32z"/><path d="m184 360h32v32h-32z"/><path d="m56 360h32v32h-32z"/><path d="m120 360h32v32h-32z"/><path d="m184 424h32v32h-32z"/><path d="m56 424h32v32h-32z"/><path d="m120 424h32v32h-32z"/></g><circle cx="416" cy="320" fill="#ffd33a" r="72"/><rect fill="#f2c837" height="32" rx="16" width="144" x="344" y="456"/><rect fill="#ffd33a" height="32" rx="16" width="144" x="344" y="424"/><rect fill="#f2c837" height="32" rx="16" width="144" x="344" y="392"/><path d="m280 192h-224a8 8 0 0 0 -8 8v64a8 8 0 0 0 8 8h224a8 8 0 0 0 8-8v-64a8 8 0 0 0 -8-8zm-8 64h-208v-48h208z"/><path d="m216 288h-32a8 8 0 0 0 -8 8v32a8 8 0 0 0 8 8h32a8 8 0 0 0 8-8v-32a8 8 0 0 0 -8-8zm-8 32h-16v-16h16z"/><path d="m280 288h-32a8 8 0 0 0 -8 8v32a8 8 0 0 0 8 8h32a8 8 0 0 0 8-8v-32a8 8 0 0 0 -8-8zm-8 32h-16v-16h16z"/><path d="m280 352h-32a8 8 0 0 0 -8 8v96a8 8 0 0 0 8 8h32a8 8 0 0 0 8-8v-96a8 8 0 0 0 -8-8zm-8 96h-16v-80h16z"/><path d="m88 288h-32a8 8 0 0 0 -8 8v32a8 8 0 0 0 8 8h32a8 8 0 0 0 8-8v-32a8 8 0 0 0 -8-8zm-8 32h-16v-16h16z"/><path d="m152 288h-32a8 8 0 0 0 -8 8v32a8 8 0 0 0 8 8h32a8 8 0 0 0 8-8v-32a8 8 0 0 0 -8-8zm-8 32h-16v-16h16z"/><path d="m216 352h-32a8 8 0 0 0 -8 8v32a8 8 0 0 0 8 8h32a8 8 0 0 0 8-8v-32a8 8 0 0 0 -8-8zm-8 32h-16v-16h16z"/><path d="m88 352h-32a8 8 0 0 0 -8 8v32a8 8 0 0 0 8 8h32a8 8 0 0 0 8-8v-32a8 8 0 0 0 -8-8zm-8 32h-16v-16h16z"/><path d="m152 352h-32a8 8 0 0 0 -8 8v32a8 8 0 0 0 8 8h32a8 8 0 0 0 8-8v-32a8 8 0 0 0 -8-8zm-8 32h-16v-16h16z"/><path d="m216 416h-32a8 8 0 0 0 -8 8v32a8 8 0 0 0 8 8h32a8 8 0 0 0 8-8v-32a8 8 0 0 0 -8-8zm-8 32h-16v-16h16z"/><path d="m88 416h-32a8 8 0 0 0 -8 8v32a8 8 0 0 0 8 8h32a8 8 0 0 0 8-8v-32a8 8 0 0 0 -8-8zm-8 32h-16v-16h16z"/><path d="m152 416h-32a8 8 0 0 0 -8 8v32a8 8 0 0 0 8 8h32a8 8 0 0 0 8-8v-32a8 8 0 0 0 -8-8zm-8 32h-16v-16h16z"/><path d="m272 80h56a8 8 0 0 0 0-16h-56a8 8 0 0 0 0 16z"/><path d="m272 112h56a8 8 0 0 0 0-16h-56a8 8 0 0 0 0 16z"/><path d="m416 136a8 8 0 0 0 -8-8h-136a8 8 0 0 0 0 16h136a8 8 0 0 0 8-8z"/><path d="m408 160h-64a8 8 0 0 0 0 16h64a8 8 0 0 0 0-16z"/><path d="m408 192h-64a8 8 0 0 0 0 16h64a8 8 0 0 0 0-16z"/><path d="m360 224h-16a8 8 0 0 0 0 16h16a8 8 0 0 0 0-16z"/><path d="m496 320a80.1 80.1 0 0 0 -48-73.3v-142.7a8 8 0 0 0 -2.343-5.657l-80-80a8 8 0 0 0 -5.657-2.343h-240a8 8 0 0 0 -8 8v136h-72a24.027 24.027 0 0 0 -24 24v288a24.027 24.027 0 0 0 24 24h432a23.984 23.984 0 0 0 17.869-40 23.943 23.943 0 0 0 0-32 23.984 23.984 0 0 0 -17.869-40h-8.055a79.928 79.928 0 0 0 32.055-64zm-128-276.687 52.686 52.687h-52.686zm-64 428.687a8.009 8.009 0 0 1 -8 8h-256a8.009 8.009 0 0 1 -8-8v-288a8.009 8.009 0 0 1 8-8h256a8.009 8.009 0 0 1 8 8zm38.131-48a23.943 23.943 0 0 0 0 32 23.943 23.943 0 0 0 -4.755 24h-18.752a23.889 23.889 0 0 0 1.376-8v-288a24.027 24.027 0 0 0 -24-24h-168v-128h224v72a8 8 0 0 0 8 8h72v129.61a79.98 79.98 0 0 0 -63.945 142.39h-8.055a23.984 23.984 0 0 0 -17.869 40zm129.869 56h-112a8 8 0 0 1 0-16h112a8 8 0 0 1 0 16zm0-32h-112a8 8 0 0 1 0-16h112a8 8 0 0 1 0 16zm0-48a8 8 0 0 1 0 16h-112a8 8 0 0 1 0-16zm-56-16a64 64 0 1 1 64-64 64.072 64.072 0 0 1 -64 64z"/><path d="m432 312h-8v-16h16a8 8 0 0 0 0-16h-16a8 8 0 0 0 -16 0h-8a24 24 0 0 0 0 48h8v16h-16a8 8 0 0 0 0 16h16a8 8 0 0 0 16 0h8a24 24 0 0 0 0-48zm-24 0h-8a8 8 0 0 1 0-16h8zm24 32h-8v-16h8a8 8 0 0 1 0 16z"/><path d="m240 96h-19.056l-13.789-27.578a8 8 0 0 0 -14.31 7.156l10.211 20.422h-35.056v-16a8 8 0 0 0 -16 0v24a8 8 0 0 0 8 8h43.056l-10.211 20.422a8 8 0 1 0 14.31 7.156l13.789-27.578h19.056a8 8 0 0 0 0-16z"/></svg>