<svg id="Filled" height="512" viewBox="0 0 512 512" width="512" xmlns="http://www.w3.org/2000/svg"><circle cx="152" cy="88" fill="#ffd33a" r="32"/><path d="m56 384h208l-111.707-192-96.293 164.643z" fill="#5f8c66"/><path d="m376 160-112 224h224z" fill="#5f8c66"/><path d="m256 136-144 248h288z" fill="#6a9c72"/><path d="m120 488 152-104h-88l-160 96v8z" fill="#b6b9ba"/><g fill="#3dc285"><path d="m301.326 356.808a32 32 0 0 0 -10.126-38.408 24 24 0 1 0 -38.4 0 32 32 0 0 0 -10.126 38.408 40 40 0 1 0 58.652 0z"/><path d="m389.326 356.808a32 32 0 0 0 -10.126-38.408 24 24 0 1 0 -38.4 0 32 32 0 0 0 -10.126 38.408 40 40 0 1 0 58.652 0z"/><path d="m477.326 356.808a32 32 0 0 0 -10.126-38.408 24 24 0 1 0 -38.4 0 32 32 0 0 0 -10.126 38.408 40 40 0 1 0 58.652 0z"/><path d="m128 384a24 24 0 1 0 -16.076-41.818 23.992 23.992 0 0 0 -47.848 0 24 24 0 1 0 -16.076 41.818z"/></g><path d="m192 88a40 40 0 1 0 -40 40 40.045 40.045 0 0 0 40-40zm-64 0a24 24 0 1 1 24 24 24.028 24.028 0 0 1 -24-24z"/><path d="m486.4 355.21a40.073 40.073 0 0 0 -9.059-38.412 32 32 0 0 0 -36.041-44.087l-58.145-116.289a8 8 0 0 0 -14.31 0l-42.445 84.891-63.482-109.33a8 8 0 0 0 -13.836 0l-61.164 105.339-28.71-49.345a8 8 0 0 0 -6.908-3.977h-.009a8 8 0 0 0 -6.905 3.961l-76.125 130.162a32.332 32.332 0 0 0 -10.029 11.909 32 32 0 1 0 -11.232 61.968h107.117l-135.233 81.14v.008a7.989 7.989 0 0 0 -3.884 6.852v8a8 8 0 0 0 8 8h96.007a7.974 7.974 0 0 0 4.511-1.4l112.968-77.3a47.932 47.932 0 0 0 26.514 14.021v40.679a8 8 0 0 0 16 0v-40.679a48.143 48.143 0 0 0 36-28.165 48.143 48.143 0 0 0 36 28.165v40.679a8 8 0 0 0 16 0v-40.679a48.143 48.143 0 0 0 36-28.165 48.143 48.143 0 0 0 36 28.165v40.679a8 8 0 0 0 16 0v-40.679a47.988 47.988 0 0 0 30.4-76.111zm-334.125-147.333 26.4 45.369-43.836 75.5a31.981 31.981 0 0 0 -18.067 1.29 32.2 32.2 0 0 0 -25.5-17.844zm-24.275 168.123h-80a16 16 0 1 1 10.716-27.88 8 8 0 0 0 13.338-5.34 15.992 15.992 0 0 1 31.892 0 8 8 0 0 0 13.338 5.34 16 16 0 1 1 10.716 27.88zm-10.475 104h-77.976l146.667-88h38.463a47.585 47.585 0 0 0 3.755 12.115zm162.475-65.013v-22.987a8 8 0 0 0 -16 0v22.987a31.993 31.993 0 0 1 -15.461-52.738 8 8 0 0 0 1.461-8.649 24.006 24.006 0 0 1 7.6-28.806 8 8 0 0 0 1.591-11.2 15.856 15.856 0 0 1 -3.191-9.594 16 16 0 0 1 32 0 15.856 15.856 0 0 1 -3.195 9.6 8 8 0 0 0 1.591 11.2 24.006 24.006 0 0 1 7.604 28.8 8 8 0 0 0 1.464 8.647 31.993 31.993 0 0 1 -15.464 52.74zm41.6-59.777a47.87 47.87 0 0 0 -5.6 9.606 47.87 47.87 0 0 0 -5.6-9.606 40.073 40.073 0 0 0 -9.059-38.412 32 32 0 1 0 -58.688 0 40.073 40.073 0 0 0 -9.053 38.412 47.768 47.768 0 0 0 -8.929 20.79h-68.971a31.916 31.916 0 0 0 -6.57-40.006l106.87-184.062 77.717 133.846a32 32 0 0 0 -3.061 31.02 40.073 40.073 0 0 0 -9.056 38.412zm46.4 59.777v-22.987a8 8 0 0 0 -16 0v22.987a31.993 31.993 0 0 1 -15.461-52.738 8 8 0 0 0 1.461-8.649 24.006 24.006 0 0 1 7.6-28.806 8 8 0 0 0 1.591-11.2 15.856 15.856 0 0 1 -3.191-9.594 16 16 0 0 1 32 0 15.856 15.856 0 0 1 -3.195 9.6 8 8 0 0 0 1.591 11.2 24.006 24.006 0 0 1 7.604 28.8 8 8 0 0 0 1.464 8.647 31.993 31.993 0 0 1 -15.464 52.74zm41.6-59.777a47.87 47.87 0 0 0 -5.6 9.606 47.87 47.87 0 0 0 -5.6-9.606 40.073 40.073 0 0 0 -9.059-38.412 32 32 0 0 0 -43.271-41.6l-10.062-17.328 39.992-79.981 51 102a32 32 0 0 0 -8.343 36.912 40.073 40.073 0 0 0 -9.057 38.409zm46.4 59.777v-22.987a8 8 0 0 0 -16 0v22.987a31.993 31.993 0 0 1 -15.461-52.738 8 8 0 0 0 1.461-8.649 24.006 24.006 0 0 1 7.6-28.806 8 8 0 0 0 1.591-11.2 15.856 15.856 0 0 1 -3.191-9.594 16 16 0 0 1 32 0 15.856 15.856 0 0 1 -3.195 9.6 8 8 0 0 0 1.591 11.2 24.006 24.006 0 0 1 7.604 28.8 8 8 0 0 0 1.464 8.647 31.993 31.993 0 0 1 -15.464 52.74z"/></svg>