<svg id="Filled" height="512" viewBox="0 0 512 512" width="512" xmlns="http://www.w3.org/2000/svg"><path d="m40 24h336a32 32 0 0 1 32 32v400a32 32 0 0 1 -32 32h-336a0 0 0 0 1 0 0v-464a0 0 0 0 1 0 0z" fill="#3397e8"/><path d="m184 240h64v64h-64z" fill="#dadcde"/><path d="m40 24h64v464h-64z" fill="#266fab"/><circle cx="168" cy="168" fill="#ffd33a" r="32"/><path d="m204.52 260.52h128v176h-128z" fill="#a3d4f7" transform="matrix(.707 .707 -.707 .707 325.088 -87.793)"/><path d="m285.49 422.059-50.911-50.912h67.882v33.941z" fill="#2e9163"/><circle cx="308.118" cy="331.549" fill="#ffd33a" r="8"/><path d="m262.863 399.431-67.882-67.882 79.196-11.314z" fill="#35a872"/><path d="m311.029 143.029h33.941v33.941h-33.941z" fill="#ffd33a" transform="matrix(.707 -.707 .707 .707 -17.068 278.794)"/><path d="m472 120h-32v-16a16 16 0 0 1 16-16 16 16 0 0 1 16 16z" fill="#e1e3e6"/><path d="m440 120h32v320h-32z" fill="#ffd33a"/><path d="m456 488-16-48h32z" fill="#d49073"/><path d="m376 16h-336a8 8 0 0 0 -8 8v464a8 8 0 0 0 8 8h336a40.045 40.045 0 0 0 40-40v-400a40.045 40.045 0 0 0 -40-40zm-280 464h-48v-448h48zm304-24a24.028 24.028 0 0 1 -24 24h-264v-448h264a24.028 24.028 0 0 1 24 24z"/><circle cx="72" cy="88" r="8"/><circle cx="72" cy="200" r="8"/><circle cx="72" cy="312" r="8"/><circle cx="72" cy="424" r="8"/><path d="m208 168a39.761 39.761 0 0 0 -3.375-16.055 30.557 30.557 0 0 0 15.493-5.085c2.972-1.784 4.767-2.86 9.218-2.86s6.244 1.076 9.216 2.859a30.571 30.571 0 0 0 17.448 5.141 8 8 0 0 0 0-16c-4.45 0-6.244-1.076-9.216-2.859a32.185 32.185 0 0 0 -34.9 0c-2.972 1.784-4.767 2.86-9.218 2.86s-6.246-1.076-9.218-2.86a30.588 30.588 0 0 0 -17.448-5.141 7.978 7.978 0 0 0 -2.466.392 40 40 0 1 0 34.466 39.608zm-64 0a24 24 0 1 1 24 24 24.028 24.028 0 0 1 -24-24z"/><path d="m291.147 235.382a8 8 0 0 0 -11.314 0l-23.833 23.833v-19.215a8 8 0 0 0 -8-8h-64a8 8 0 0 0 -8 8v64a8 8 0 0 0 8 8h19.215l-47.832 47.833a8 8 0 0 0 0 11.314l90.51 90.51a8 8 0 0 0 11.313 0l124.451-124.451a8 8 0 0 0 0-11.314zm-99.147 60.618v-48h48v27.215l-20.785 20.785zm59.549 148.687-79.2-79.2 22.627-22.627 62.226 62.226c.191.191.391.371.6.54l-.028.028 16.4 16.4zm-39.6-107.481 52.8-7.543-7.543 52.8zm82.51 64.569-8.97 8.97-14.141-14.145 2.494-17.456h20.619zm16-16v-14.628a8 8 0 0 0 -8-8h-26.331l5.969-41.78a8 8 0 0 0 -9.052-9.052l-55.437 7.92 67.882-67.882 79.2 79.2z"/><circle cx="308.118" cy="331.549" r="8"/><path d="m176 80c4.451 0 6.246 1.076 9.218 2.86a32.191 32.191 0 0 0 34.9 0c2.972-1.784 4.767-2.86 9.218-2.86s6.244 1.076 9.216 2.859a30.571 30.571 0 0 0 17.448 5.141 8 8 0 0 0 0-16c-4.45 0-6.244-1.076-9.216-2.859a32.185 32.185 0 0 0 -34.9 0c-2.972 1.784-4.767 2.86-9.218 2.86s-6.246-1.076-9.218-2.86a30.588 30.588 0 0 0 -17.448-5.141 8 8 0 0 0 0 16z"/><path d="m176 112c4.451 0 6.246 1.076 9.218 2.86a32.191 32.191 0 0 0 34.9 0c2.972-1.784 4.767-2.86 9.218-2.86s6.244 1.076 9.216 2.859a30.571 30.571 0 0 0 17.448 5.141 8 8 0 0 0 0-16c-4.45 0-6.244-1.076-9.216-2.859a32.185 32.185 0 0 0 -34.9 0c-2.972 1.784-4.767 2.86-9.218 2.86s-6.246-1.076-9.218-2.86a30.588 30.588 0 0 0 -17.448-5.141 8 8 0 0 0 0 16z"/><path d="m322.343 189.657a8 8 0 0 0 11.314 0l24-24a8 8 0 0 0 0-11.314l-24-24a8 8 0 0 0 -11.314 0l-24 24a8 8 0 0 0 0 11.314zm5.657-42.344 12.687 12.687-12.687 12.687-12.687-12.687z"/><path d="m456 80a24.028 24.028 0 0 0 -24 24v336h.011a7.992 7.992 0 0 0 .4 2.53l16 48a8 8 0 0 0 15.18 0l16-48a7.992 7.992 0 0 0 .4-2.53h.009v-336a24.028 24.028 0 0 0 -24-24zm0 382.7-4.9-14.7h9.8zm8-30.7h-16v-304h16zm0-320h-16v-8a8 8 0 0 1 16 0z"/></svg>