<svg id="Filled" height="512" viewBox="0 0 512 512" width="512" xmlns="http://www.w3.org/2000/svg"><path d="m80 24h320a32 32 0 0 1 32 32v400a32 32 0 0 1 -32 32h-320a0 0 0 0 1 0 0v-464a0 0 0 0 1 0 0z" fill="#266fab"/><path d="m352 216q0 4.035-.34 8a95.489 95.489 0 0 1 -17.68 48 95.965 95.965 0 0 1 -155.96 0 95.489 95.489 0 0 1 -17.68-48q-.345-3.96-.34-8t.34-8a95.489 95.489 0 0 1 17.68-48 95.965 95.965 0 0 1 155.96 0 95.489 95.489 0 0 1 17.68 48q.345 3.96.34 8z" fill="#a3d4f7"/><rect fill="#a3d4f7" height="64" rx="16" width="64" x="224" y="392"/><path d="m80 496h320a40.045 40.045 0 0 0 40-40v-400a40.045 40.045 0 0 0 -40-40h-320a8 8 0 0 0 -8 8v464a8 8 0 0 0 8 8zm8-464h312a24.028 24.028 0 0 1 24 24v400a24.028 24.028 0 0 1 -24 24h-312z"/><path d="m168 80h176a8 8 0 0 0 0-16h-176a8 8 0 0 0 0 16z"/><path d="m256 112a104 104 0 1 0 104 104 104.118 104.118 0 0 0 -104-104zm-36.109 23.754a93.251 93.251 0 0 0 -4.988 8.786 120.246 120.246 0 0 0 -6.369 15.46h-20.367a88.494 88.494 0 0 1 31.724-24.246zm-42.263 40.246h26.533a185.551 185.551 0 0 0 -3.989 32h-31.805a87.341 87.341 0 0 1 9.261-32zm0 80a87.341 87.341 0 0 1 -9.261-32h31.805a185.551 185.551 0 0 0 3.989 32zm10.539 16h20.367a120.246 120.246 0 0 0 6.369 15.46 93.251 93.251 0 0 0 4.988 8.786 88.494 88.494 0 0 1 -31.724-24.246zm59.833 29.985c-6.8-3.362-13.369-10.848-18.786-21.68-1.315-2.631-2.527-5.414-3.657-8.305h22.443zm0-45.985h-27.439a166.244 166.244 0 0 1 -4.382-32h31.821zm0-48h-31.821a166.244 166.244 0 0 1 4.382-32h27.439zm0-48h-22.443c1.13-2.891 2.342-5.674 3.657-8.305 5.417-10.832 11.99-18.318 18.786-21.68zm75.833 0h-20.367a120.246 120.246 0 0 0 -6.369-15.46 93.251 93.251 0 0 0 -4.988-8.786 88.494 88.494 0 0 1 31.724 24.246zm-59.833-29.985c6.8 3.362 13.369 10.848 18.786 21.68 1.315 2.631 2.527 5.414 3.657 8.305h-22.443zm0 45.985h27.439a166.244 166.244 0 0 1 4.382 32h-31.821zm18.786 104.305c-5.417 10.832-11.99 18.318-18.786 21.68v-29.985h22.443c-1.13 2.891-2.343 5.674-3.657 8.305zm-18.786-24.305v-32h31.821a166.244 166.244 0 0 1 -4.382 32zm28.109 40.246a93.251 93.251 0 0 0 4.988-8.786 120.246 120.246 0 0 0 6.369-15.46h20.367a88.494 88.494 0 0 1 -31.724 24.246zm42.263-40.246h-26.533a185.551 185.551 0 0 0 3.989-32h31.805a87.341 87.341 0 0 1 -9.261 32zm9.261-48h-31.805a185.551 185.551 0 0 0 -3.989-32h26.533a87.341 87.341 0 0 1 9.261 32z"/><path d="m272 384h-32a24.028 24.028 0 0 0 -24 24v32a24.028 24.028 0 0 0 24 24h32a24.028 24.028 0 0 0 24-24v-32a24.028 24.028 0 0 0 -24-24zm8 32h-8a8 8 0 0 0 0 16h8v8a8.009 8.009 0 0 1 -8 8h-32a8.009 8.009 0 0 1 -8-8v-8h8a8 8 0 0 0 0-16h-8v-8a8.009 8.009 0 0 1 8-8h32a8.009 8.009 0 0 1 8 8z"/><path d="m328 352h-144a8 8 0 0 0 0 16h144a8 8 0 0 0 0-16z"/></svg>