<?xml version="1.0"?>
<svg xmlns="http://www.w3.org/2000/svg" id="Filled" viewBox="0 0 512 512" width="512" height="512"><rect x="24" y="24" width="240" height="336" rx="32" ry="32" style="fill:#ffd33a"/><rect x="72" y="24" width="48" height="336" style="fill:#7e8589"/><circle cx="208" cy="80" r="24" style="fill:#ff750a"/><circle cx="208" cy="112" r="24" style="fill:#eb423f"/><path d="M488,488V416L456,264l-99.314-91.314A16,16,0,0,0,345.373,168L264,176v48h55.273l42.187,76.189a16,16,0,0,1-4,20.245l-12.322,16.257a16,16,0,0,1-18.871.819L264,296l-34.9-63.41a29.03,29.03,0,0,0-38.466-12.064h0a26.47,26.47,0,0,0-12.2,34.768L215.691,336,296,448l64,40Z" style="fill:#e0b999"/><path d="M208,48a31.993,31.993,0,0,0-27.7,48.011,32,32,0,1,0,55.4,0A31.993,31.993,0,0,0,208,48Zm0,16a15.965,15.965,0,0,1,15.48,20.006,31.912,31.912,0,0,0-30.96,0A15.965,15.965,0,0,1,208,64Zm0,64a16,16,0,1,1,16-16A16.019,16.019,0,0,1,208,128Z"/><path d="M495.828,414.352l-32-152a7.994,7.994,0,0,0-2.413-4.241l-99.2-91.211a23.839,23.839,0,0,0-16.84-6.9c-.263,0-.524.013-.786.039L272,167.2V56a40.045,40.045,0,0,0-40-40H56A40.045,40.045,0,0,0,16,56V328a40.045,40.045,0,0,0,40,40H228.793L289.5,452.662a7.983,7.983,0,0,0,2.261,2.122l64,40A7.961,7.961,0,0,0,359.992,496H488a8,8,0,0,0,8-8V416A8.005,8.005,0,0,0,495.828,414.352ZM272,232h42.559l39.9,72.064a7.981,7.981,0,0,1-2,10.123,8.019,8.019,0,0,0-1.378,1.414l-11.617,15.328a7.967,7.967,0,0,1-8.762-.075L272,291.719ZM64,352H56a24.028,24.028,0,0,1-24-24V56A24.028,24.028,0,0,1,56,32h8Zm48,0H80V32h32Zm16,0V32H232a24.028,24.028,0,0,1,24,24V264.87l-19.873-36.111A37.07,37.07,0,0,0,224,215.525V184a8,8,0,0,0-16,0v25.675a36.99,36.99,0,0,0-20.94,3.7,34.316,34.316,0,0,0-15.882,45.275l37.25,80.707a8.109,8.109,0,0,0,.762,1.309L217.32,352Zm173.58,90.054-78.944-110.1-36.931-80.016a18.385,18.385,0,0,1,8.511-24.259,20.96,20.96,0,0,1,27.879,8.765l34.9,63.41a8.007,8.007,0,0,0,2.571,2.8l62.265,41.511a23.917,23.917,0,0,0,28.307-1.229,8.09,8.09,0,0,0,1.378-1.414l11.781-15.544a23.939,23.939,0,0,0,5.166-29.667l-42.187-76.188a8,8,0,0,0-7-4.125H272.309V183.25l73.392-7.244a7.944,7.944,0,0,1,5.328,2.337c.079.079.16.157.242.233L448.7,268.155,480,416.833V480H362.3Z"/></svg>
