<?xml version="1.0"?>
<svg xmlns="http://www.w3.org/2000/svg" id="Filled" viewBox="0 0 512 512" width="512" height="512"><path d="M336,444c0,24.3-35.82,44-80,44s-80-19.7-80-44c0-10.06,6.14-19.33,16.46-26.73C196.24,439.09,223.25,456,256,456s59.76-16.91,63.54-38.73C329.86,424.67,336,433.94,336,444Z" style="fill:#266fab"/><path d="M348.939,472c-17.772,0-34.777-7.432-49.5-19.723C256,416,312,320,312,272a56,56,0,0,0-112,0c0,48,56,144,12.557,180.277-30.524,25.489-74.444,26.1-101.786-2.768C70.586,407.077,56,329.674,56,288,56,177.72,145.72,88,256,88s200,89.72,200,200c0,41.674-14.586,119.077-54.771,161.509A71.815,71.815,0,0,1,348.939,472ZM296.675,350.491l-.024.026Z" style="fill:#3397e8"/><path d="M273.425,80.736C280.493,71.775,288,59.541,288,48c0-20.037-11.963-32-32-32s-32,11.963-32,32c0,11.541,7.507,23.775,14.576,32.736C132.008,89.618,48,179.177,48,288c0,42.955,15.17,122.881,56.962,167.01,21.143,22.323,52.136,29.353,80.84,20.723C202.137,488.385,228.018,496,256,496c27.06,0,52.109-6.977,68.725-19.142.3-.221.587-.452.884-.677A74.908,74.908,0,0,0,348.933,480h.007a79.288,79.288,0,0,0,58.1-24.99C448.83,410.881,464,330.955,464,288,464,179.177,379.992,89.618,273.425,80.736ZM256,32c11.065,0,16,4.935,16,16,0,8.219-8.4,20.155-16,28.569C248.4,68.153,240,56.218,240,48,240,36.935,244.935,32,256,32Zm-8,447.762c-17.007-1-32.8-5.168-44.527-11.555a93.106,93.106,0,0,0,14.212-9.789c.6-.5,1.175-1.01,1.741-1.527A91.485,91.485,0,0,0,248,463.682Zm-18.255-36.057c15.816-29.261,2.822-73.324-8.86-112.935C214.259,308.305,208,287.085,208,272a48,48,0,0,1,96,0c0,15.085-6.259,36.305-12.885,58.77-11.682,39.611-24.676,83.674-8.86,112.935a82.395,82.395,0,0,1-52.51,0ZM264,479.756V463.682a91.492,91.492,0,0,0,28.574-6.791c.566.517,1.143,1.027,1.741,1.527A104.758,104.758,0,0,0,308.3,468.3C296.494,474.694,280.8,478.768,264,479.756Zm131.421-35.748A63.437,63.437,0,0,1,348.938,464h0c-15.027,0-30.368-6.178-44.362-17.863-24.714-20.637-10.579-68.56,1.891-110.841C313.424,311.691,320,289.4,320,272a64,64,0,0,0-128,0c0,17.4,6.576,39.691,13.538,63.3,12.47,42.281,26.6,90.2,1.891,110.841-28.279,23.613-67.336,22.7-90.85-2.129C78,403.274,64,328.394,64,288,64,182.131,150.131,96,256,96s192,86.131,192,192C448,328.394,434,403.274,395.421,444.008Z"/><path d="M128,288a8,8,0,0,0-16,0c0,18.209,3.668,41.987,9.812,63.607,5.209,18.329,14.576,43.511,29.617,59.394a8,8,0,1,0,11.617-11C140.48,376.171,128,318.65,128,288Z"/><path d="M365.157,206.575a8,8,0,0,0,.959-11.272A143.807,143.807,0,0,0,256.049,144h-.1A144.248,144.248,0,0,0,116.027,254.117a8,8,0,1,0,15.551,3.766A128.814,128.814,0,0,1,176.3,187.918a127.788,127.788,0,0,1,177.588,17.7A8,8,0,0,0,365.157,206.575Z"/><path d="M376.623,224.715a8,8,0,0,0-3.979,10.59A126.693,126.693,0,0,1,384,288c0,30.65-12.48,88.171-35.046,112a8,8,0,1,0,11.617,11c15.041-15.883,24.408-41.065,29.617-59.394C396.332,329.987,400,306.209,400,288A142.578,142.578,0,0,0,387.214,228.7,8,8,0,0,0,376.623,224.715Z"/></svg>
