<svg id="Filled" height="512" viewBox="0 0 512 512" width="512" xmlns="http://www.w3.org/2000/svg"><path d="m120 120h304v368h-304z" fill="#a3d4f7"/><path d="m168 168h208v272h-208z" fill="#266fab"/><path d="m120 488h-16a32 32 0 0 1 -32-32v-368h48z" fill="#266fab"/><path d="m104 56h320a0 0 0 0 1 0 0v64a0 0 0 0 1 0 0h-320a32 32 0 0 1 -32-32 32 32 0 0 1 32-32z" fill="#e1e3e6"/><path d="m120 24h64v64h-64z" fill="#eb423f"/><path d="m216 240h112v32h-112z" fill="#a3d4f7"/><path d="m168 448h208a8 8 0 0 0 8-8v-272a8 8 0 0 0 -8-8h-208a8 8 0 0 0 -8 8v272a8 8 0 0 0 8 8zm8-272h192v256h-192z"/><path d="m424 48h-232v-24a8 8 0 0 0 -8-8h-64a8 8 0 0 0 -8 8v24h-8a40.045 40.045 0 0 0 -40 40v368a40.045 40.045 0 0 0 40 40h320a8 8 0 0 0 8-8v-432a8 8 0 0 0 -8-8zm-296-16h48v48h-48zm-16 448h-8a24.028 24.028 0 0 1 -24-24v-336.022a39.788 39.788 0 0 0 24 8.022h8zm304 0h-288v-352h288zm0-368h-312a24 24 0 0 1 0-48h8v16h-8a8 8 0 0 0 0 16h288a8 8 0 0 0 0-16h-200v-16h224z"/><path d="m328 296h-112a8 8 0 0 0 0 16h112a8 8 0 0 0 0-16z"/><path d="m312 328h-48a8 8 0 0 0 0 16h48a8 8 0 0 0 0-16z"/><circle cx="232" cy="336" r="8"/><path d="m328 232h-112a8 8 0 0 0 -8 8v32a8 8 0 0 0 8 8h112a8 8 0 0 0 8-8v-32a8 8 0 0 0 -8-8zm-8 32h-96v-16h96z"/></svg>