<svg id="Filled" height="512" viewBox="0 0 512 512" width="512" xmlns="http://www.w3.org/2000/svg"><path d="m368 40-112-16-112 16-112-16v352l112 16 112-16 112 16 112-16v-352z" fill="#2d85cc"/><path d="m79.66 382.81-47.66-6.81v-72l32 24z" fill="#35a872"/><path d="m368 40 112-16v352l-112 16z" fill="#3397e8"/><path d="m144 40 112-16v352l-112 16z" fill="#3397e8"/><path d="m154.005 233.633c17.146-28.723-4.414-64.5-40.2-65.605q-.899-.028-1.805-.028t-1.806.028c-35.785 1.105-57.345 36.882-40.194 65.605l42 70.367z" fill="#eb423f"/><circle cx="112" cy="216" fill="#e9eef2" r="16"/><circle cx="320" cy="208" fill="#eb423f" r="16"/><path d="m304 336a32 32 0 0 0 -32 32v64l24 56h120l16-56v-104a16 16 0 0 0 -16-16 16 16 0 0 0 -16 16v-24a16 16 0 0 0 -16-16 16 16 0 0 0 -16 16v-8a16 16 0 0 0 -16-16 16 16 0 0 0 -16 16v-56a16 16 0 0 0 -16-16 16 16 0 0 0 -16 16v100.286" fill="#f7cca9"/><g fill="#f4c29d"><path d="m304 400.286a8 8 0 0 1 -8-8v-56.286a8 8 0 0 1 16 0v56.286a8 8 0 0 1 -8 8z"/><path d="m336 365.048a8 8 0 0 1 -8-8v-61.048a8 8 0 0 1 16 0v61.048a8 8 0 0 1 -8 8z"/><path d="m368 368a8 8 0 0 1 -8-8v-56a8 8 0 0 1 16 0v56a8 8 0 0 1 -8 8z"/><path d="m400 384a8 8 0 0 1 -8-8v-48a8 8 0 0 1 16 0v48a8 8 0 0 1 -8 8z"/></g><path d="m353.14 37.88-49.14 42.12-48-24v-32z" fill="#35a872"/><path d="m256 24v32l-32 40-56 24-24-13.71v-66.29z" fill="#3dc285"/><path d="m144 40v66.29l-32-18.29-32 16-48-24v-56z" fill="#35a872"/><path d="m480 48v240l-80-80 24-48-8-48z" fill="#3dc285"/><path d="m112 192a24 24 0 1 0 24 24 24.027 24.027 0 0 0 -24-24zm0 32a8 8 0 1 1 8-8 8.009 8.009 0 0 1 -8 8z"/><path d="m485.242 17.956a7.994 7.994 0 0 0 -6.373-1.875l-110.869 15.838-110.869-15.838a7.937 7.937 0 0 0 -2.262 0l-110.869 15.838-110.869-15.838a8 8 0 0 0 -9.131 7.919v352a8 8 0 0 0 6.869 7.92l112 16a8.035 8.035 0 0 0 2.262 0l110.869-15.839 8 1.143v46.776a8 8 0 0 0 .647 3.151l24 56a8 8 0 0 0 7.353 4.849h120a8 8 0 0 0 7.692-5.8l16-56a8.013 8.013 0 0 0 .308-2.2v-42.2l41.131-5.876a8 8 0 0 0 6.869-7.924v-352a8 8 0 0 0 -2.758-6.044zm-53.351 140.729-7.323-43.939 47.432-47.432v201.372l-62.266-62.266 21.421-42.842a7.994 7.994 0 0 0 .736-4.893zm-94.022 65.315a23.988 23.988 0 1 0 -38.688-27.917l-35.181-6.396v-120.743l36.422 18.211a8 8 0 0 0 8.7-1.009l47.608-39.674 3.27.467v226.442a23.944 23.944 0 0 0 -16-.01v-33.371a23.9 23.9 0 0 0 -6.131-16zm-25.869-16a8 8 0 1 1 8 8 8.009 8.009 0 0 1 -8-8zm-64 161.061-96 13.715v-105.166l82.521-77.02 13.479 2.45zm-176.308-43.261a8 8 0 0 0 -2.892-4.2l-28.8-21.6v-207.056l36.422 18.211a8 8 0 0 0 7.156 0l28.17-14.085 24.252 13.859v53.971a59.163 59.163 0 0 0 -21.946-4.872c-1.365-.043-2.744-.043-4.107 0-20.515.633-38.363 11.239-47.74 28.368a49.238 49.238 0 0 0 .919 49.333l42.005 70.371a7.986 7.986 0 0 0 12.321 1.741l.006.007 18.542-17.305v90.233l-50.073-7.153zm40.308-37.407-35.136-58.861a32.96 32.96 0 0 1 -.623-33.449c6.627-12.1 19.411-19.6 34.2-20.059.518-.015 1.038-.024 1.559-.024s1.041.009 1.56.024c14.788.457 27.572 7.955 34.2 20.059a32.96 32.96 0 0 1 -.623 33.449zm121.431-104.264a7.989 7.989 0 0 0 -6.889 2.022l-78.753 73.5 13.085-21.921a49.238 49.238 0 0 0 .919-49.333 53.408 53.408 0 0 0 -9.793-12.825v-55.5l12.031 6.874a8 8 0 0 0 7.12.408l56-24a8.013 8.013 0 0 0 3.1-2.356l17.749-22.191v107.971zm-81.431-137.19 96-13.715v19.969l-28.994 36.244-50.5 21.64-16.506-9.434zm112-13.715 71.395 10.2-32.495 27.081-38.9-19.449zm-128 13.715v45.561l-20.031-11.446a7.993 7.993 0 0 0 -7.547-.209l-28.422 14.211-40-20v-41.832zm-96 273.061 17.047 12.785 11.531 40.359-28.578-4.082zm224 48v-162.05l32.308 5.874a23.927 23.927 0 0 0 5.823 12.176 23.9 23.9 0 0 0 -6.131 16v88.8a40.071 40.071 0 0 0 -32 39.2zm160 62.88-14.035 49.12h-108.69l-21.275-49.642v-62.358a24.039 24.039 0 0 1 16-22.624v30.624a8 8 0 0 0 16 0v-136a8 8 0 0 1 16 0v109.048a8 8 0 0 0 16 0v-53.048a8 8 0 0 1 16 0v64a8 8 0 0 0 16 0v-56a8 8 0 0 1 16 0v72a8 8 0 0 0 16 0v-48a8 8 0 0 1 16 0zm16-57.247v-45.633a24 24 0 0 0 -32-22.629v-1.371a23.982 23.982 0 0 0 -32-22.62v-234.441l96-13.715v11.462l-61.657 61.657a8 8 0 0 0 -2.234 6.972l7.572 45.434-22.836 45.673a8 8 0 0 0 1.5 9.235l77.655 77.657v77.748z"/></svg>