<?xml version="1.0"?>
<svg xmlns="http://www.w3.org/2000/svg" id="Filled" viewBox="0 0 512 512" width="512" height="512"><rect x="24" y="104" width="464" height="304" rx="16" ry="16" style="fill:#e9eef2"/><path d="M392,216h63a1.111,1.111,0,0,0,1-1.195V137.2A1.111,1.111,0,0,0,455,136H392Z" style="fill:#3397e8"/><circle cx="280" cy="176" r="24" style="fill:#ffd33a"/><path d="M472,96H40a24.028,24.028,0,0,0-24,24V392a24.028,24.028,0,0,0,24,24H472a24.028,24.028,0,0,0,24-24V120A24.028,24.028,0,0,0,472,96Zm8,296a8.009,8.009,0,0,1-8,8H40a8.009,8.009,0,0,1-8-8V120a8.009,8.009,0,0,1,8-8H472a8.009,8.009,0,0,1,8,8Z"/><path d="M455,128H392a8,8,0,0,0-8,8v8.4a31.257,31.257,0,0,0-12.114,4.739c-2.972,1.784-4.767,2.86-9.218,2.86s-6.246-1.076-9.218-2.86A30.588,30.588,0,0,0,336,144a8,8,0,0,0,0,16c4.451,0,6.246,1.076,9.218,2.86a32.191,32.191,0,0,0,34.9,0A23.87,23.87,0,0,1,384,160.827V176.4a31.257,31.257,0,0,0-12.114,4.739c-2.972,1.784-4.767,2.86-9.218,2.86s-6.246-1.076-9.218-2.86A30.588,30.588,0,0,0,336,176a8,8,0,0,0,0,16c4.451,0,6.246,1.076,9.218,2.86a32.191,32.191,0,0,0,34.9,0A23.87,23.87,0,0,1,384,192.827V208.4a31.257,31.257,0,0,0-12.114,4.739c-2.972,1.784-4.767,2.86-9.218,2.86s-6.246-1.076-9.218-2.86A30.588,30.588,0,0,0,336,208a8,8,0,0,0,0,16c4.451,0,6.246,1.076,9.218,2.86a32.191,32.191,0,0,0,34.9,0c2.972-1.784,4.767-2.86,9.218-2.86s6.244,1.076,9.216,2.859A30.571,30.571,0,0,0,416,232a8,8,0,0,0,8-8h31a9.11,9.11,0,0,0,9-9.194V137.194A9.11,9.11,0,0,0,455,128Zm-7,80H400V195.717A29.76,29.76,0,0,0,416,200a8,8,0,0,0,0-16c-4.45,0-6.244-1.076-9.216-2.859a37.037,37.037,0,0,0-6.784-3.4V163.717A29.76,29.76,0,0,0,416,168a8,8,0,0,0,0-16c-4.45,0-6.244-1.076-9.216-2.859a37.037,37.037,0,0,0-6.784-3.4V144h48Z"/><path d="M440,320H328a8,8,0,0,0,0,16H440a8,8,0,0,0,0-16Z"/><path d="M440,288H328a8,8,0,0,0,0,16H440a8,8,0,0,0,0-16Z"/><path d="M376,352H328a8,8,0,0,0,0,16h48a8,8,0,0,0,0-16Z"/><path d="M280,144a32,32,0,1,0,32,32A32.036,32.036,0,0,0,280,144Zm0,48a16,16,0,1,1,16-16A16.019,16.019,0,0,1,280,192Z"/><path d="M280,224a8,8,0,0,0-8,8V376a8,8,0,0,0,16,0V232A8,8,0,0,0,280,224Z"/><path d="M72,208h48a8,8,0,0,0,0-16H72a8,8,0,0,0,0,16Z"/><path d="M72,240H88a8,8,0,0,0,0-16H72a8,8,0,0,0,0,16Z"/><path d="M232,256H72a8,8,0,0,0,0,16H232a8,8,0,0,0,0-16Z"/><path d="M72,304h80a8,8,0,0,0,0-16H72a8,8,0,0,0,0,16Z"/><path d="M72,336h48a8,8,0,0,0,0-16H72a8,8,0,0,0,0,16Z"/><path d="M168,352H72a8,8,0,0,0,0,16h96a8,8,0,0,0,0-16Z"/><path d="M232,224H120a8,8,0,0,0,0,16H232a8,8,0,0,0,0-16Z"/><path d="M232,288H184a8,8,0,0,0,0,16h48a8,8,0,0,0,0-16Z"/><path d="M232,320H152a8,8,0,0,0,0,16h80a8,8,0,0,0,0-16Z"/></svg>
