<svg id="Filled" height="512" viewBox="0 0 512 512" width="512" xmlns="http://www.w3.org/2000/svg"><path d="m224 408v64h64v-64" fill="#c3c6c7"/><rect fill="#8fbad9" height="304" rx="32" width="464" x="24" y="104"/><path d="m488 344v32a32 32 0 0 1 -32 32h-400a32 32 0 0 1 -32-32v-32z" fill="#e1e3e6"/><path d="m440 344v-272a16 16 0 0 0 -16-16h-336a16 16 0 0 0 -16 16v272z" fill="#a3d4f7"/><g fill="#3397e8"><path d="m440 72v48h-368v-48a16 16 0 0 1 16-16h336a16 16 0 0 1 16 16z"/><path d="m304 160h32v32h-32z"/><path d="m240 160h32v32h-32z"/><path d="m176 160h32v32h-32z"/><path d="m368 160h32v32h-32z"/><path d="m176 224h32v32h-32z"/><path d="m176 288h32v32h-32z"/><path d="m304 288h32v32h-32z"/><path d="m112 288h32v32h-32z"/><path d="m112 224h32v32h-32z"/><path d="m240 288h32v32h-32z"/></g><path d="m56 416h160v48h-64a8 8 0 0 0 0 16h208a8 8 0 0 0 0-16h-64v-48h160a40.045 40.045 0 0 0 40-40v-240a40.045 40.045 0 0 0 -40-40h-8v-24a24.027 24.027 0 0 0 -24-24h-336a24.027 24.027 0 0 0 -24 24v24h-8a40.045 40.045 0 0 0 -40 40v240a40.045 40.045 0 0 0 40 40zm224 48h-48v-48h48zm168-352h8a24.028 24.028 0 0 1 24 24v200h-32zm-368-40a8.009 8.009 0 0 1 8-8h336a8.009 8.009 0 0 1 8 8v40h-352zm0 56h352v208h-352zm-48 8a24.028 24.028 0 0 1 24-24h8v224h-32zm0 216h448v24a24.028 24.028 0 0 1 -24 24h-400a24.028 24.028 0 0 1 -24-24z"/><path d="m240 384h32a8 8 0 0 0 0-16h-32a8 8 0 0 0 0 16z"/><path d="m304 200h32a8 8 0 0 0 8-8v-32a8 8 0 0 0 -8-8h-32a8 8 0 0 0 -8 8v32a8 8 0 0 0 8 8zm8-32h16v16h-16z"/><path d="m240 200h32a8 8 0 0 0 8-8v-32a8 8 0 0 0 -8-8h-32a8 8 0 0 0 -8 8v32a8 8 0 0 0 8 8zm8-32h16v16h-16z"/><path d="m208 152h-32a8 8 0 0 0 -8 8v32a8 8 0 0 0 8 8h32a8 8 0 0 0 8-8v-32a8 8 0 0 0 -8-8zm-8 32h-16v-16h16z"/><path d="m368 200h32a8 8 0 0 0 8-8v-32a8 8 0 0 0 -8-8h-32a8 8 0 0 0 -8 8v32a8 8 0 0 0 8 8zm8-32h16v16h-16z"/><path d="m208 216h-32a8 8 0 0 0 -8 8v32a8 8 0 0 0 8 8h32a8 8 0 0 0 8-8v-32a8 8 0 0 0 -8-8zm-8 32h-16v-16h16z"/><path d="m208 280h-32a8 8 0 0 0 -8 8v32a8 8 0 0 0 8 8h32a8 8 0 0 0 8-8v-32a8 8 0 0 0 -8-8zm-8 32h-16v-16h16z"/><path d="m336 280h-32a8 8 0 0 0 -8 8v32a8 8 0 0 0 8 8h32a8 8 0 0 0 8-8v-32a8 8 0 0 0 -8-8zm-8 32h-16v-16h16z"/><path d="m144 280h-32a8 8 0 0 0 -8 8v32a8 8 0 0 0 8 8h32a8 8 0 0 0 8-8v-32a8 8 0 0 0 -8-8zm-8 32h-16v-16h16z"/><path d="m144 216h-32a8 8 0 0 0 -8 8v32a8 8 0 0 0 8 8h32a8 8 0 0 0 8-8v-32a8 8 0 0 0 -8-8zm-8 32h-16v-16h16z"/><path d="m272 280h-32a8 8 0 0 0 -8 8v32a8 8 0 0 0 8 8h32a8 8 0 0 0 8-8v-32a8 8 0 0 0 -8-8zm-8 32h-16v-16h16z"/><path d="m128 88h-16a8 8 0 0 0 0 16h16a8 8 0 0 0 0-16z"/><path d="m400 88h-16a8 8 0 0 0 0 16h16a8 8 0 0 0 0-16z"/><path d="m296 88h-80a8 8 0 0 0 0 16h80a8 8 0 0 0 0-16z"/><path d="m277.657 218.343a8 8 0 0 0 -11.314 0l-10.343 10.343-10.343-10.343a8 8 0 0 0 -11.314 11.314l10.343 10.343-10.343 10.343a8 8 0 0 0 11.314 11.314l10.343-10.343 10.343 10.343a8 8 0 1 0 11.314-11.314l-10.343-10.343 10.343-10.343a8 8 0 0 0 0-11.314z"/><path d="m341.657 218.343a8 8 0 0 0 -11.314 0l-10.343 10.343-10.343-10.343a8 8 0 0 0 -11.314 11.314l10.343 10.343-10.343 10.343a8 8 0 0 0 11.314 11.314l10.343-10.343 10.343 10.343a8 8 0 1 0 11.314-11.314l-10.343-10.343 10.343-10.343a8 8 0 0 0 0-11.314z"/><path d="m405.657 218.343a8 8 0 0 0 -11.314 0l-10.343 10.343-10.343-10.343a8 8 0 0 0 -11.314 11.314l10.343 10.343-10.343 10.343a8 8 0 0 0 11.314 11.314l10.343-10.343 10.343 10.343a8 8 0 1 0 11.314-11.314l-10.343-10.343 10.343-10.343a8 8 0 0 0 0-11.314z"/></svg>