<svg id="Filled" height="512" viewBox="0 0 512 512" width="512" xmlns="http://www.w3.org/2000/svg"><path d="m272 88h128l32 32-32 32h-128z" fill="#95573a"/><path d="m272 312h96l32 32-32 32h-96z" fill="#95573a"/><path d="m240 56h32v432h-32z" fill="#b6b9ba"/><path d="m272 200h160l32 32-32 32h-160z" fill="#ad6643"/><circle cx="256" cy="40" fill="#7e8589" r="16"/><path d="m240 168h-160l-32-32 32-32h160z" fill="#ad6643"/><path d="m240 280h-128l-32-32 32-32h128z" fill="#95573a"/><path d="m368 112h-64a8 8 0 0 0 0 16h64a8 8 0 0 0 0-16z"/><path d="m336 336h-32a8 8 0 0 0 0 16h32a8 8 0 0 0 0-16z"/><path d="m232 96h-152a8 8 0 0 0 -5.657 2.343l-32 32a8 8 0 0 0 0 11.314l32 32a8 8 0 0 0 5.657 2.343h152v32h-120a8 8 0 0 0 -5.657 2.343l-32 32a8 8 0 0 0 0 11.314l32 32a8 8 0 0 0 5.657 2.343h120v200a8 8 0 0 0 8 8h32a8 8 0 0 0 8-8v-104h88a8 8 0 0 0 5.657-2.343l32-32a8 8 0 0 0 0-11.314l-32-32a8 8 0 0 0 -5.657-2.343h-88v-32h152a8 8 0 0 0 5.657-2.343l32-32a8 8 0 0 0 0-11.314l-32-32a8 8 0 0 0 -5.657-2.343h-152v-32h120a8 8 0 0 0 5.657-2.343l32-32a8 8 0 0 0 0-11.314l-32-32a8 8 0 0 0 -5.657-2.343h-120v-24a7.972 7.972 0 0 0 -2.346-5.659 24 24 0 1 0 -43.308 0 7.972 7.972 0 0 0 -2.346 5.659zm0 176h-116.687l-24-24 24-24h116.687zm0-112h-148.687l-24-24 24-24h148.687zm48-64h116.687l24 24-24 24h-116.687zm0 112h148.687l24 24-24 24h-148.687zm0 112h84.687l24 24-24 24h-84.687zm-24-288a8 8 0 1 1 -8 8 8.009 8.009 0 0 1 8-8zm-8 32h16v416h-16z"/><path d="m400 224h-96a8 8 0 0 0 0 16h96a8 8 0 0 0 0-16z"/><path d="m112 144h96a8 8 0 0 0 0-16h-96a8 8 0 0 0 0 16z"/><path d="m144 256h64a8 8 0 0 0 0-16h-64a8 8 0 0 0 0 16z"/></svg>