<svg id="Filled" height="512" viewBox="0 0 512 512" width="512" xmlns="http://www.w3.org/2000/svg"><rect fill="#a3d4f7" height="304" rx="32" width="464" x="24" y="104"/><path d="m184 328h-112v-128h144v96z" fill="#dadcde"/><path d="m168 296h-96v-64h112v48z" fill="#3397e8"/><path d="m136 264h-64v-32h80v16z" fill="#266fab"/><path d="m104 232h16v32h-16z" fill="#1261a0"/><path d="m264 280h176v32h-176z" fill="#3397e8"/><path d="m456 96h-400a40.045 40.045 0 0 0 -40 40v240a40.045 40.045 0 0 0 40 40h400a40.045 40.045 0 0 0 40-40v-240a40.045 40.045 0 0 0 -40-40zm24 280a24.028 24.028 0 0 1 -24 24h-400a24.028 24.028 0 0 1 -24-24v-240a24.028 24.028 0 0 1 24-24h400a24.028 24.028 0 0 1 24 24z"/><path d="m216 192h-144a8 8 0 0 0 -8 8v128a8 8 0 0 0 8 8h112a8 8 0 0 0 5.657-2.343l32-32a8 8 0 0 0 2.343-5.657v-96a8 8 0 0 0 -8-8zm-136 48h24v16h-24zm0 32h56a8 8 0 0 0 5.657-2.343l16-16a8 8 0 0 0 2.343-5.657v-8h16v36.687l-11.314 11.313h-84.686zm40-16v-16h24v4.687l-11.313 11.313zm88 36.687-27.313 27.313h-100.687v-16h88a8 8 0 0 0 5.657-2.343l16-16a8 8 0 0 0 2.343-5.657v-48a8 8 0 0 0 -8-8h-104v-16h128z"/><path d="m120 160h80a8 8 0 0 0 0-16h-80a8 8 0 0 0 0 16z"/><path d="m440 272h-176a8 8 0 0 0 -8 8v32a8 8 0 0 0 8 8h176a8 8 0 0 0 8-8v-32a8 8 0 0 0 -8-8zm-8 32h-160v-16h160z"/><path d="m264 224h64a8 8 0 0 0 0-16h-64a8 8 0 0 0 0 16z"/><path d="m264 256h96a8 8 0 0 0 0-16h-96a8 8 0 0 0 0 16z"/><path d="m440 208h-80a8 8 0 0 0 0 16h80a8 8 0 0 0 0-16z"/><path d="m72 160h16a8 8 0 0 0 0-16h-16a8 8 0 0 0 0 16z"/></svg>