<?xml version="1.0"?>
<svg xmlns="http://www.w3.org/2000/svg" id="Filled" viewBox="0 0 512 512" width="512" height="512"><path d="M464,32c0,17.673-16.235,32-56,32s-80-32-80-32L134.519,142.531A32,32,0,0,0,120,169.334V192H488V32H464Z" style="fill:#266fab"/><path d="M488,32V56c0,16-32,40-80,40-50.39,0-100.77-38.86-110.37-46.65L328,32s40.24,32,80,32,56-14.33,56-32Z" style="fill:#e1e3e6"/><path d="M184,114.26V192H120V169.33a32,32,0,0,1,14.52-26.8Z" style="fill:#a3d4f7"/><path d="M488,160v48a31.973,31.973,0,0,1-32,32H168a48,48,0,0,1-48-48H328Z" style="fill:#e1e3e6"/><path d="M48,272c0,17.673,16.235,32,56,32s80-32,80-32L377.481,382.531A32,32,0,0,1,392,409.334V432H24V272H48Z" style="fill:#266fab"/><path d="M24,272v24c0,16,32,40,80,40,50.39,0,100.77-38.86,110.37-46.65L184,272s-40.24,32-80,32-56-14.33-56-32Z" style="fill:#e1e3e6"/><path d="M328,354.26V432h64V409.33a32,32,0,0,0-14.52-26.8Z" style="fill:#a3d4f7"/><path d="M24,400v48a31.973,31.973,0,0,0,32,32H344a48,48,0,0,0,48-48H184Z" style="fill:#e1e3e6"/><path d="M56,488H344a56.064,56.064,0,0,0,56-56V409.334a39.868,39.868,0,0,0-18.149-33.5q-.2-.129-.4-.246l-67.283-38.437,3.491-3.49a8,8,0,0,0-11.314-11.314l-6.577,6.578L283.618,319.7l2.039-2.039a8,8,0,0,0-11.314-11.314l-5.126,5.126-16.148-9.225.588-.587a8,8,0,1,0-11.314-11.314l-3.674,3.675-50.7-28.964a8,8,0,0,0-8.947.685C178.64,266.042,140.548,296,104,296c-30.5,0-48-8.748-48-24a8,8,0,0,0-8-8H24a8,8,0,0,0-8,8V448A40.045,40.045,0,0,0,56,488ZM336,368.047l37.293,21.3A23.922,23.922,0,0,1,384,409.334V424H336ZM32,280h8.93c2.064,8.607,7.51,16.02,15.84,21.362C67.776,308.421,83.667,312,104,312c34.64,0,68.668-21.935,80.58-30.456L199.9,290.3C181.468,303.584,142.364,328,104,328c-44.8,0-72-22.226-72-32Zm0,42.294C47.626,334.679,73.463,344,104,344c47.936,0,94.68-32.382,111.1-45.021l11.843,6.766-8.6,8.6a8,8,0,0,0,11.314,11.314l11.685-11.686L257.49,323.2l-7.147,7.146a8,8,0,0,0,11.314,11.314l10.233-10.234,16.148,9.225-5.695,5.695a8,8,0,0,0,11.314,11.314l8.782-8.782L320,358.907V424H227.313l26.344-26.343a8,8,0,1,0-11.314-11.314L204.687,424h-19.9l-4.565-.913,41.43-41.43a8,8,0,1,0-11.314-11.314l-48,48a8.11,8.11,0,0,0-.837,1l-21.279-4.256,49.43-49.43a8,8,0,1,0-11.314-11.314l-56,56a8.11,8.11,0,0,0-.837,1L32,393.442Zm0,87.464,150.431,30.087A8.026,8.026,0,0,0,184,440H383.2A40.071,40.071,0,0,1,344,472H56a24.038,24.038,0,0,1-22.624-16H56a8,8,0,0,0,0-16H32Z"/><path d="M488,24H464a8,8,0,0,0-8,8c0,15.252-17.5,24-48,24-36.43,0-74.644-29.962-75.021-30.261a8,8,0,0,0-8.947-.685l-50.7,28.964-3.674-3.675a8,8,0,0,0-11.314,11.314l.588.587-16.148,9.225-5.126-5.126a8,8,0,0,0-11.314,11.314l2.039,2.039-16.148,9.225-6.577-6.578a8,8,0,0,0-11.314,11.314l3.491,3.49-67.283,38.437q-.2.117-.4.246A39.868,39.868,0,0,0,112,169.334V192a56.064,56.064,0,0,0,56,56H456a40.045,40.045,0,0,0,40-40V32A8,8,0,0,0,488,24ZM128,184V169.334a23.922,23.922,0,0,1,10.707-19.982L176,128.047V184Zm352,16H456a8,8,0,0,0,0,16h22.624A24.038,24.038,0,0,1,456,232H168a40.071,40.071,0,0,1-39.2-32H328a8.026,8.026,0,0,0,1.569-.155L480,169.758Zm0-46.558-89.506,17.9a8.11,8.11,0,0,0-.837-1l-56-56a8,8,0,0,0-11.314,11.314l49.43,49.43-21.279,4.256a8.11,8.11,0,0,0-.837-1l-48-48a8,8,0,0,0-11.314,11.314l41.43,41.43-4.565.913h-19.9l-37.656-37.657a8,8,0,0,0-11.314,11.314L284.687,184H192V118.907l17.561-10.032,8.782,8.782a8,8,0,1,0,11.314-11.314l-5.7-5.7,16.148-9.225,10.233,10.234a8,8,0,1,0,11.314-11.314L254.51,83.2l16.148-9.226,11.685,11.686a8,8,0,0,0,11.314-11.314l-8.6-8.6,11.856-6.773a273.18,273.18,0,0,0,30.117,19.974C356.124,95.571,383.366,104,408,104c30.537,0,56.374-9.321,72-21.706ZM480,56c0,9.774-27.2,32-72,32-38.281,0-77.432-24.424-95.892-37.708l15.312-8.748C339.332,50.065,373.36,72,408,72c20.333,0,36.224-3.579,47.23-10.638C463.56,56.02,469.006,48.607,471.07,40H480Z"/></svg>
