<?xml version="1.0"?>
<svg xmlns="http://www.w3.org/2000/svg" id="Filled" viewBox="0 0 512 512" width="512" height="512"><path d="M488,272H442.309A63.737,63.737,0,0,0,400,256H336a63.869,63.869,0,0,0-50.341,24.506,55.961,55.961,0,0,0-59.318,0A63.869,63.869,0,0,0,176,256H112a63.737,63.737,0,0,0-42.309,16H24v24l27.034,4.506A63.942,63.942,0,0,0,48,320v14.776c0,52.852,42.2,96.712,95.053,97.224A96.111,96.111,0,0,0,240,336V320a64.462,64.462,0,0,0-.675-9.253,23.979,23.979,0,0,1,33.35,0A64.462,64.462,0,0,0,272,320v14.776c0,52.852,42.2,96.712,95.053,97.224A96.111,96.111,0,0,0,464,336V320a64.126,64.126,0,0,0-2.016-16L488,296Z" style="fill:#9aa3a8"/><path d="M143.363,400C108.424,399.658,80,370.4,80,334.775V320a32.036,32.036,0,0,1,32-32h64a32.036,32.036,0,0,1,32,32v16a64.072,64.072,0,0,1-64,64Z" style="fill:#6a7073"/><path d="M367.363,400C332.424,399.658,304,370.4,304,334.775V320a32.036,32.036,0,0,1,32-32h64a32.036,32.036,0,0,1,32,32v16a64.072,64.072,0,0,1-64,64Z" style="fill:#6a7073"/><path d="M488,264h-3.056l-76.1-152.2a71.607,71.607,0,0,0-64.4-39.8H304a8,8,0,0,0,0,16h40.446a55.7,55.7,0,0,1,50.088,30.956L467.056,264H445.233A71.9,71.9,0,0,0,400,248H336a71.527,71.527,0,0,0-52.152,22.377,63.994,63.994,0,0,0-55.7,0A71.527,71.527,0,0,0,176,248H112a71.9,71.9,0,0,0-45.233,16H44.944l72.522-145.044A55.7,55.7,0,0,1,167.554,88H208a8,8,0,0,0,0-16H167.554a71.607,71.607,0,0,0-64.4,39.8L27.056,264H24a8,8,0,0,0-8,8v24a8,8,0,0,0,6.685,7.892l18.5,3.083A72.065,72.065,0,0,0,40,320v14.776C40,392.246,86.194,439.449,142.975,440A104.11,104.11,0,0,0,248,336V320c0-1.892-.078-3.8-.231-5.72a16,16,0,0,1,16.462,0c-.153,1.916-.231,3.828-.231,5.72v14.776c0,57.47,46.194,104.673,102.975,105.224.346,0,.69,0,1.035,0A104.112,104.112,0,0,0,472,336V320a72.552,72.552,0,0,0-.759-10.478l19.11-5.876A8,8,0,0,0,496,296V272A8,8,0,0,0,488,264Zm-8,26.09-20.368,6.264a8,8,0,0,0-5.4,9.64A56.251,56.251,0,0,1,456,320v16a88.11,88.11,0,0,1-88.87,88c-48.044-.466-87.13-40.491-87.13-89.224V320a56.687,56.687,0,0,1,.592-8.105,8,8,0,0,0-2.358-6.9,31.977,31.977,0,0,0-44.468,0,8,8,0,0,0-2.358,6.9A56.687,56.687,0,0,1,232,320v16a88.11,88.11,0,0,1-88.87,88C95.086,423.534,56,383.509,56,334.776V320a55.992,55.992,0,0,1,2.654-17.06,8,8,0,0,0-6.305-10.326L32,289.223V280H69.69a8,8,0,0,0,5.293-2A55.924,55.924,0,0,1,112,264h64a55.706,55.706,0,0,1,44.05,21.448,8,8,0,0,0,10.535,1.839,47.964,47.964,0,0,1,50.83,0,8,8,0,0,0,10.535-1.839A55.706,55.706,0,0,1,336,264h64a55.924,55.924,0,0,1,37.017,14,8,8,0,0,0,5.293,2H480Z"/><path d="M176,280H112a40.045,40.045,0,0,0-40,40v14.775c0,39.994,31.979,72.84,71.286,73.222h.041l.673,0a72.081,72.081,0,0,0,72-72V320A40.045,40.045,0,0,0,176,280Zm24,56a56.055,56.055,0,0,1-55.963,56l-.621,0C112.856,391.688,88,366.023,88,334.775V320a24.027,24.027,0,0,1,24-24h64a24.027,24.027,0,0,1,24,24Z"/><path d="M400,280H336a40.045,40.045,0,0,0-40,40v14.775c0,39.994,31.979,72.84,71.286,73.222h.041l.673,0a72.081,72.081,0,0,0,72-72V320A40.045,40.045,0,0,0,400,280Zm24,56a56.055,56.055,0,0,1-55.963,56l-.621,0C336.856,391.688,312,366.023,312,334.775V320a24.027,24.027,0,0,1,24-24h64a24.027,24.027,0,0,1,24,24Z"/></svg>
