<svg id="Filled" height="512" viewBox="0 0 512 512" width="512" xmlns="http://www.w3.org/2000/svg"><path d="m364.5 213.987c-7.533-18.066-26.337-29.987-47.306-29.987h-133.165c-29.279 0-55.886 15.715-68.156 40.254l-27.873 55.746v16h304v-16z" fill="#e9eef2"/><path d="m488 392h-464l8.42-55.39c4.33-34.63 33.77-56.61 68.66-56.61h297.69c34.05 0 64.15 18.13 74.3 50.63l1.31 5.37 7.78 32z" fill="#ffd33a"/><path d="m24 368h464v32h-464z" fill="#eb423f"/><circle cx="128" cy="384" fill="#7e8589" r="40"/><circle cx="368" cy="384" fill="#7e8589" r="40"/><path d="m482.16 368h-42.16v-32h34.38z" fill="#e9eef2"/><circle cx="431.972" cy="127.972" fill="#3397e8" r="55.972"/><path d="m280 184h-80l16-32h48z" fill="#eb423f"/><circle cx="128" cy="384" fill="#b6b9ba" r="16"/><circle cx="368" cy="384" fill="#b6b9ba" r="16"/><path d="m488.455 360.023-7.61-31.286q-.062-.251-.138-.5c-6.567-21.009-21.269-37.437-40.707-46.981v-89.834a63.972 63.972 0 1 0 -16 .007v83.837a97.3 97.3 0 0 0 -25.233-3.266h-1.434l-25.454-61.09c-8.836-21.21-30.301-34.91-54.685-34.91h-32.25l-13.789-27.578a8 8 0 0 0 -7.155-4.422h-48a8 8 0 0 0 -7.155 4.422l-13.789 27.578h-11.027c-32.18 0-61.741 17.536-75.311 44.676l-26.688 53.376c-30.918 6.823-53.576 30.187-57.53 61.456l-3.838 25.228a8 8 0 0 0 -4.662 7.264v32a8 8 0 0 0 8 8h62.458a47.953 47.953 0 0 0 83.084 0h156.916a47.953 47.953 0 0 0 83.084 0h78.458a8 8 0 0 0 8-8v-32a7.994 7.994 0 0 0 -7.545-7.977zm-16.472-.023h-23.983v-16h20.091zm-87.983-232.028a47.972 47.972 0 1 1 47.972 47.971 48.026 48.026 0 0 1 -47.972-47.971zm-66.806 64.028c17.629 0 33.67 10.072 39.916 25.064l22.89 54.936h-132v-80zm-96.25-32h38.112l8 16h-54.112zm-97.916 67.832c10.884-21.768 34.828-35.832 61-35.832h47.972v80h-130.92c-.046 0-.091 0-.137 0zm-42.349 164.168h-48.679v-16h48.679a47.468 47.468 0 0 0 0 16zm47.321 24a32 32 0 1 1 32-32 32.036 32.036 0 0 1 -32 32zm192.679-24h-145.358a47.468 47.468 0 0 0 0-16h145.358a47.468 47.468 0 0 0 0 16zm47.321 24a32 32 0 1 1 32-32 32.036 32.036 0 0 1 -32 32zm0-80a48.014 48.014 0 0 0 -41.542 24h-156.916a47.953 47.953 0 0 0 -83.084 0h-49.5l3.374-22.188c.011-.071.02-.141.029-.211 3.652-29.201 28.619-49.601 60.719-49.601h297.687c30.444 0 54.808 15.189 64.868 40h-23.635a8 8 0 0 0 -8 8v24h-22.458a48.014 48.014 0 0 0 -41.542-24zm112 56h-64.679a47.468 47.468 0 0 0 0-16h64.679z"/><path d="m24 432a8 8 0 0 0 0 16h464a8 8 0 0 0 0-16z"/><path d="m272 304h-16a8 8 0 0 0 0 16h16a8 8 0 0 0 0-16z"/><path d="m440 152v-32h8a8 8 0 0 0 0-16h-32a8 8 0 0 0 0 16h8v32a8 8 0 0 0 16 0z"/><circle cx="128" cy="384" r="16"/><circle cx="368" cy="384" r="16"/></svg>