<svg id="Filled" height="512" viewBox="0 0 512 512" width="512" xmlns="http://www.w3.org/2000/svg"><rect fill="#dadcde" height="232" rx="16.018" width="432" x="24" y="136"/><path d="m456 279.98v72a16.017 16.017 0 0 1 -16.02 16.02h-399.96a16.017 16.017 0 0 1 -16.02-16.02v-72.29z" fill="#2978b8"/><circle cx="160" cy="368" fill="#7e8589" r="48"/><circle cx="160" cy="368" fill="#b6b9ba" r="16"/><g fill="#e9eef2"><path d="m264 200h64a16 16 0 0 1 16 16v152a0 0 0 0 1 0 0h-96a0 0 0 0 1 0 0v-152a16 16 0 0 1 16-16z"/><path d="m72 200h128v48h-128z"/><path d="m392 208h64v40h-64z"/></g><path d="m104 88h224a16 16 0 0 1 16 16v32a0 0 0 0 1 0 0h-256a0 0 0 0 1 0 0v-32a16 16 0 0 1 16-16z" fill="#2978b8"/><path d="m440 376h48a8 8 0 0 0 0-16h-25.376a23.885 23.885 0 0 0 1.376-8v-199.469a24.028 24.028 0 0 0 -24-24h-88v-24.531a24.028 24.028 0 0 0 -24-24h-224a24.028 24.028 0 0 0 -24 24v24.531h-40a24.028 24.028 0 0 0 -24 24v199.469a24.028 24.028 0 0 0 24 24h64.581a55.882 55.882 0 0 0 16.281 32h-95.636a8 8 0 0 0 0 16h462.774a8 8 0 0 0 0-16h-288.862a55.882 55.882 0 0 0 16.281-32zm-104-16h-80v-144a8.009 8.009 0 0 1 8-8h64a8.009 8.009 0 0 1 8 8zm112-8a8.009 8.009 0 0 1 -8 8h-88v-72h96zm0-112h-48v-24h48zm-352-136a8.009 8.009 0 0 1 8-8h224a8.009 8.009 0 0 1 8 8v24.531h-240zm-64 48.531a8.009 8.009 0 0 1 8-8h400a8.009 8.009 0 0 1 8 8v47.469h-56a8 8 0 0 0 -8 8v40a8 8 0 0 0 8 8h56v16h-96v-56a24.028 24.028 0 0 0 -24-24h-64a24.028 24.028 0 0 0 -24 24v56h-208zm128 255.469a40 40 0 1 1 40-40 40.045 40.045 0 0 1 -40 40zm0-96a56.078 56.078 0 0 0 -55.419 48h-64.581a8.009 8.009 0 0 1 -8-8v-64h208v72h-24.581a56.078 56.078 0 0 0 -55.419-48z"/><path d="m160 344a24 24 0 1 0 24 24 24.027 24.027 0 0 0 -24-24zm0 32a8 8 0 1 1 8-8 8.009 8.009 0 0 1 -8 8z"/><path d="m200 192h-128a8 8 0 0 0 -8 8v48a8 8 0 0 0 8 8h128a8 8 0 0 0 8-8v-48a8 8 0 0 0 -8-8zm-8 48h-112v-32h112z"/><circle cx="280" cy="280" r="8"/></svg>