<svg id="Filled" height="512" viewBox="0 0 512 512" width="512" xmlns="http://www.w3.org/2000/svg"><path d="m24 88h464v368h-464z" fill="#c3c6c7"/><path d="m56 56h400v368h-400z" fill="#e9eef2"/><path d="m296 104h48v64h-48z" fill="#3dc285"/><path d="m248 56h16v368h-16z" fill="#e1e3e6"/><path d="m376 312h48v64h-48z" fill="#3dc285" transform="matrix(-1 0 0 -1 800 688)"/><path d="m134 127.164c5.715-10.137-1.472-22.764-13.4-23.154q-.3-.011-.6-.01t-.6.01c-11.928.39-19.115 13.017-13.4 23.154l14 24.836z" fill="#eb423f"/><path d="m296 232h128v48h-128z" fill="#ffd33a"/><path d="m248 424h16v32h-16z" fill="#b6b9ba"/><path d="m488 80h-24v-24a8 8 0 0 0 -8-8h-400a8 8 0 0 0 -8 8v24h-24a8 8 0 0 0 -8 8v368a8 8 0 0 0 8 8h464a8 8 0 0 0 8-8v-368a8 8 0 0 0 -8-8zm-224-16h184v352h-184zm-16 384h-216v-352h16v328a8 8 0 0 0 8 8h192zm0-32h-184v-352h184zm232 32h-216v-16h192a8 8 0 0 0 8-8v-328h16z"/><path d="m296 176h48a8 8 0 0 0 8-8v-64a8 8 0 0 0 -8-8h-48a8 8 0 0 0 -8 8v64a8 8 0 0 0 8 8zm8-64h32v48h-32z"/><path d="m424 96h-48a8 8 0 0 0 0 16h48a8 8 0 0 0 0-16z"/><path d="m424 128h-48a8 8 0 0 0 0 16h48a8 8 0 0 0 0-16z"/><path d="m424 160h-48a8 8 0 0 0 0 16h48a8 8 0 0 0 0-16z"/><path d="m424 304h-48a8 8 0 0 0 -8 8v64a8 8 0 0 0 8 8h48a8 8 0 0 0 8-8v-64a8 8 0 0 0 -8-8zm-8 64h-32v-48h32z"/><path d="m344 336h-48a8 8 0 0 0 0 16h48a8 8 0 0 0 0-16z"/><path d="m344 368h-48a8 8 0 0 0 0 16h48a8 8 0 0 0 0-16z"/><path d="m113.031 155.929a8 8 0 0 0 13.938 0l14-24.836a23.209 23.209 0 0 0 0-22.949 23.74 23.74 0 0 0 -20.091-12.129c-.581-.02-1.184-.019-1.739 0a23.747 23.747 0 0 0 -20.1 12.13 23.209 23.209 0 0 0 0 22.949zm-.052-39.942a7.789 7.789 0 0 1 6.693-3.982h.328s.219 0 .341.006a7.78 7.78 0 0 1 6.68 3.981 7.278 7.278 0 0 1 .012 7.248l-7.033 12.47-7.033-12.475a7.278 7.278 0 0 1 .012-7.248z"/><path d="m124.422 304.845a8 8 0 0 0 -3.577 10.733l10.211 20.422h-30.112l-5.789-11.578a8 8 0 0 0 -14.31 7.156l8 16a8 8 0 0 0 7.155 4.422h35.056l-10.211 20.422a8 8 0 1 0 14.31 7.156l13.789-27.578h19.056a8 8 0 0 0 0-16h-19.056l-13.789-27.578a8 8 0 0 0 -10.733-3.577z"/><circle cx="200" cy="344" r="8"/><circle cx="104" cy="216" r="8"/><circle cx="216" cy="312" r="8"/><circle cx="216" cy="184" r="8"/><circle cx="88" cy="248" r="8"/><circle cx="200" cy="280" r="8"/><circle cx="168" cy="280" r="8"/><circle cx="200" cy="152" r="8"/><circle cx="168" cy="152" r="8"/><circle cx="136" cy="280" r="8"/><circle cx="200" cy="216" r="8"/><circle cx="168" cy="216" r="8"/><circle cx="136" cy="216" r="8"/><circle cx="104" cy="280" r="8"/><path d="m344 304h-48a8 8 0 0 0 0 16h48a8 8 0 0 0 0-16z"/><path d="m424 192h-128a8 8 0 0 0 0 16h128a8 8 0 0 0 0-16z"/><path d="m424 224h-128a8 8 0 0 0 -8 8v48a8 8 0 0 0 8 8h128a8 8 0 0 0 8-8v-48a8 8 0 0 0 -8-8zm-8 48h-112v-32h112z"/></svg>