<svg id="Filled" height="512" viewBox="0 0 512 512" width="512" xmlns="http://www.w3.org/2000/svg"><path d="m472 240c0-119.293-96.707-216-216-216s-216 96.707-216 216a216.055 216.055 0 0 0 134.308 200h163.384a216.055 216.055 0 0 0 134.308-200z" fill="#2d85cc"/><circle cx="256" cy="240" fill="#a3d4f7" r="184"/><path d="m240 400h56l-56-64h-40z" fill="#3397e8"/><path d="m152 400h-32v-48h24z" fill="#3397e8"/><path d="m392 436a22.72 22.72 0 0 1 -4.68 14.14 14.569 14.569 0 0 1 -11.32 5.86h-112l-115.53-12.84a32 32 0 0 1 -28.47-31.8v-11.36l224-24c27.11 0 39.52 13.78 44.7 32a86.376 86.376 0 0 1 2.81 16c.35 3.95.49 7.97.49 12z" fill="#e1e3e6"/><path d="m391.51 424h-39.51a8 8 0 0 1 0-16h36.7a86.376 86.376 0 0 1 2.81 16z" fill="#3397e8"/><path d="m224 424h56l-56 64h-40z" fill="#3397e8"/><path d="m480 240a224 224 0 0 0 -382.392-158.392 223.977 223.977 0 0 0 14.4 329.957 39.956 39.956 0 0 0 35.577 39.549l46.788 5.2-17.157 27.446a8 8 0 0 0 6.784 12.24h40a8 8 0 0 0 6.021-2.732l26.311-30.068 6.785.754a7.892 7.892 0 0 0 .883.046h112c13.233 0 24-12.561 24-28a124.766 124.766 0 0 0 -1.9-22.857 223.152 223.152 0 0 0 81.9-173.143zm-360 104a7.952 7.952 0 0 0 -4.8 1.611 175.52 175.52 0 0 1 -35.2-105.611c0-97.047 78.953-176 176-176s176 78.953 176 176a175.123 175.123 0 0 1 -61.225 133.413q-11.31-5.388-26.775-5.413a8.11 8.11 0 0 0 -.853.045l-58.947 6.317-38.175-43.63a8 8 0 0 0 -6.025-2.732h-40a8 8 0 0 0 -6.784 12.24l25.7 41.116-60.823 6.517-6.2-37.188a8 8 0 0 0 -7.893-6.685zm144.759 32.444-28.159 3.017-22.166-35.461h21.936zm-122.606 13.137-14.153 1.519v-31.1h9.223zm78.217 90.419h-21.936l30-48h33.936zm155.63-32h-106.37l16.391-18.732a8 8 0 0 0 -6.021-13.268h-56a8 8 0 0 0 -6.784 3.76l-13.437 21.5-54.429-6.047a23.977 23.977 0 0 1 -21.35-23.855v-4.17l216.416-23.188c15.176.088 25.578 4.989 31.792 14.976a41.863 41.863 0 0 1 4.138 9.024h-28.346a8 8 0 0 0 0 16h31.474c.349 3.713.526 7.7.526 12 0 6.393-3.738 12-8 12zm16.984-51.5a53.708 53.708 0 0 0 -3.192-5.981 47.342 47.342 0 0 0 -5.728-7.465 191.008 191.008 0 0 0 63.936-143.054c0-105.869-86.131-192-192-192s-192 86.131-192 192a191.494 191.494 0 0 0 48 126.982v23.118a207.126 207.126 0 0 1 -64-150.1c0-114.691 93.309-208 208-208s208 93.309 208 208a207.152 207.152 0 0 1 -71.016 156.5z"/><path d="m256 112a8 8 0 0 0 8-8v-16a8 8 0 0 0 -16 0v16a8 8 0 0 0 8 8z"/><path d="m120 232h-16a8 8 0 0 0 0 16h16a8 8 0 0 0 0-16z"/><path d="m392 248h16a8 8 0 0 0 0-16h-16a8 8 0 0 0 0 16z"/><path d="m249.854 245.122a8 8 0 0 0 6.146 2.878h96a8 8 0 0 0 0-16h-92.253l-77.6-93.122a8 8 0 0 0 -12.292 10.244z"/></svg>