<svg id="Filled" height="512" viewBox="0 0 512 512" width="512" xmlns="http://www.w3.org/2000/svg"><path d="m224 344h64v144h-64z" fill="#6a7073"/><rect fill="#dadcde" height="464" rx="32.928" transform="matrix(0 -1 1 0 72 440)" width="288" x="112" y="-48"/><path d="m136 24h224v320h-224z" fill="#e9eef2" transform="matrix(0 -1 1 0 64 432)"/><path d="m448 200a16 16 0 1 1 16-16 16.019 16.019 0 0 1 -16 16z" fill="#c3c6c7"/><path d="m192 24h128a16 16 0 0 1 16 16v32a0 0 0 0 1 0 0h-160a0 0 0 0 1 0 0v-32a16 16 0 0 1 16-16z" fill="#7e8589"/><path d="m176 296h160a0 0 0 0 1 0 0v32a16 16 0 0 1 -16 16h-128a16 16 0 0 1 -16-16v-32a0 0 0 0 1 0 0z" fill="#7e8589"/><circle cx="256" cy="184" fill="#eb423f" r="32"/><path d="m455.072 32h-112.448a24.039 24.039 0 0 0 -22.624-16h-128a24.039 24.039 0 0 0 -22.624 16h-112.448a40.974 40.974 0 0 0 -40.928 40.928v222.144a40.974 40.974 0 0 0 40.928 40.928h112.448a24.039 24.039 0 0 0 22.624 16h24v136a8 8 0 0 0 8 8h64a8 8 0 0 0 8-8v-136h24a24.039 24.039 0 0 0 22.624-16h112.448a40.974 40.974 0 0 0 40.928-40.928v-222.144a40.974 40.974 0 0 0 -40.928-40.928zm-271.072 8a8.009 8.009 0 0 1 8-8h128a8.009 8.009 0 0 1 8 8v24h-144zm-16 280h-111.072a24.957 24.957 0 0 1 -24.928-24.928v-222.144a24.957 24.957 0 0 1 24.928-24.928h111.072v16h-80a8 8 0 0 0 -8 8v224a8 8 0 0 0 8 8h80zm112 160h-48v-128h48zm48-152a8.009 8.009 0 0 1 -8 8h-128a8.009 8.009 0 0 1 -8-8v-24h144zm-232-40v-208h304v208zm384 7.072a24.957 24.957 0 0 1 -24.928 24.928h-111.072v-16h64a8 8 0 0 0 8-8v-224a8 8 0 0 0 -8-8h-64v-16h111.072a24.957 24.957 0 0 1 24.928 24.928z"/><circle cx="448" cy="184" r="16"/><circle cx="56" cy="224" r="8"/><path d="m56 144a8 8 0 0 0 -8 8v40a8 8 0 0 0 16 0v-40a8 8 0 0 0 -8-8z"/><path d="m152 96h-32a8 8 0 0 0 -8 8v32a8 8 0 0 0 16 0v-24h24a8 8 0 0 0 0-16z"/><path d="m152 256h-24v-24a8 8 0 0 0 -16 0v32a8 8 0 0 0 8 8h32a8 8 0 0 0 0-16z"/><path d="m376 224a8 8 0 0 0 -8 8v24h-24a8 8 0 0 0 0 16h32a8 8 0 0 0 8-8v-32a8 8 0 0 0 -8-8z"/><path d="m376 96h-32a8 8 0 0 0 0 16h24v24a8 8 0 0 0 16 0v-32a8 8 0 0 0 -8-8z"/><path d="m256 144a40 40 0 1 0 40 40 40.045 40.045 0 0 0 -40-40zm0 64a24 24 0 1 1 24-24 24.028 24.028 0 0 1 -24 24z"/><circle cx="256" cy="184" r="8"/></svg>