<svg id="Filled" height="512" viewBox="0 0 512 512" width="512" xmlns="http://www.w3.org/2000/svg"><path d="m192 88h288v160h-288z" fill="#35a872" transform="matrix(0 -1 1 0 168 504)"/><path d="m288 72v192a16 16 0 0 1 16 16h64a16 16 0 0 1 16-16v-192a16 16 0 0 1 -16-16h-64a16 16 0 0 1 -16 16z" fill="#20754d"/><ellipse cx="336" cy="168" fill="#3dc285" rx="48" ry="32"/><rect fill="#ffd33a" height="272" rx="32" width="192" x="96" y="56"/><path d="m144 56h48v272h-48z" fill="#7e8589"/><rect fill="#8c5237" height="304" rx="16" width="384" x="64" y="184"/><g fill="#ad6643"><path d="m448 440v32a16 16 0 0 1 -16 16h-352a16 16 0 0 1 -16-16v-32.42z"/><path d="m448 200v32h-384v-32a16 16 0 0 1 16-16h352a16 16 0 0 1 16 16z"/><rect height="96.311" rx="16" width="192" x="280" y="287.689"/></g><circle cx="328" cy="336" fill="#8c5237" r="16"/><path d="m416 16h-160a8 8 0 0 0 -8 8v24h-120a40.045 40.045 0 0 0 -40 40v88h-8a24.028 24.028 0 0 0 -24 24v272a24.028 24.028 0 0 0 24 24h352a24.028 24.028 0 0 0 24-24v-80a24.028 24.028 0 0 0 24-24v-64.312a24.028 24.028 0 0 0 -24-24v-79.688a24.028 24.028 0 0 0 -24-24h-8v-152a8 8 0 0 0 -8-8zm-152 16h144v144h-16v-104a8 8 0 0 0 -8-8 8.009 8.009 0 0 1 -8-8 8 8 0 0 0 -8-8h-64a8 8 0 0 0 -8 8 8.009 8.009 0 0 1 -8 8h-.021a40.071 40.071 0 0 0 -23.979-15.195zm72 96c-15.821 0-29.909 4.463-40 11.757v-61.128a24.115 24.115 0 0 0 14.629-14.629h50.742a24.115 24.115 0 0 0 14.629 14.629v61.128c-10.091-7.294-24.179-11.757-40-11.757zm40 40a15.159 15.159 0 0 1 -2.432 8h-75.143a15.015 15.015 0 0 1 -2.425-8c0-13.01 18.317-24 40-24s40 10.99 40 24zm-176-104h56a24.028 24.028 0 0 1 24 24v88h-80zm-48 0h32v112h-32zm-48 24a24.028 24.028 0 0 1 24-24h8v112h-32zm336 384a8.009 8.009 0 0 1 -8 8h-352a8.009 8.009 0 0 1 -8-8v-24.407l368 .4zm0-40.009-368-.4v-191.591h368v39.688h-144a24.028 24.028 0 0 0 -24 24v64.312a24.028 24.028 0 0 0 24 24h144zm16-136.3a8.009 8.009 0 0 1 8 8v64.309a8.009 8.009 0 0 1 -8 8h-160a8.009 8.009 0 0 1 -8-8v-64.312a8.009 8.009 0 0 1 8-8zm-24-103.691a8.009 8.009 0 0 1 8 8v24h-368v-24a8.009 8.009 0 0 1 8-8z"/><path d="m256 80a8 8 0 0 0 -8 8v32a8 8 0 0 0 16 0v-32a8 8 0 0 0 -8-8z"/><path d="m328 360a24 24 0 1 0 -24-24 24.028 24.028 0 0 0 24 24zm0-32a8 8 0 1 1 -8 8 8.009 8.009 0 0 1 8-8z"/></svg>