<?xml version="1.0"?>
<svg xmlns="http://www.w3.org/2000/svg" id="Filled" viewBox="0 0 512 512" width="512" height="512"><rect x="48" y="24" width="272" height="464" rx="32" ry="32" style="fill:#dadcde"/><rect x="80" y="88" width="208" height="320" style="fill:#3397e8"/><circle cx="360" cy="216" r="56" style="fill:#ffd33a"/><path d="M392,256a40.059,40.059,0,0,0-8.633.945,40.006,40.006,0,0,0-56.873-28.917,48.009,48.009,0,1,0-91.637,28.312A40,40,0,0,0,240,336H392a40,40,0,0,0,0-80Z" style="fill:#a3d4f7"/><path d="M288,16H80A40.045,40.045,0,0,0,40,56V456a40.045,40.045,0,0,0,40,40H288a40.045,40.045,0,0,0,40-40V344h64a47.994,47.994,0,0,0,20.493-91.4A63.922,63.922,0,0,0,328,160.67V56A40.045,40.045,0,0,0,288,16Zm24,440a24.028,24.028,0,0,1-24,24H80a24.028,24.028,0,0,1-24-24V56A24.028,24.028,0,0,1,80,32H288a24.028,24.028,0,0,1,24,24V173.769a63.735,63.735,0,0,0-9.818,14.8,55.908,55.908,0,0,0-6.182-2.24V88a8,8,0,0,0-8-8H80a8,8,0,0,0-8,8V408a8,8,0,0,0,8,8H288a8,8,0,0,0,8-8V344h16ZM224.969,250.415A48,48,0,0,0,240,344h40v56H88V96H280v88a56.039,56.039,0,0,0-55.031,66.415ZM424,296a32.036,32.036,0,0,1-32,32H240a32,32,0,0,1-4.124-63.726,8,8,0,0,0,6.5-10.658,40.009,40.009,0,1,1,76.366-23.6A8,8,0,0,0,330,235.22a32,32,0,0,1,45.491,23.127,8,8,0,0,0,9.6,6.41A31.994,31.994,0,0,1,424,296ZM360,168a47.992,47.992,0,0,1,35.631,80.151c-1.2-.09-2.408-.151-3.631-.151-.9,0-1.807.026-2.71.077a48.076,48.076,0,0,0-57.912-30.4,55.833,55.833,0,0,0-15.469-20.662A48.341,48.341,0,0,1,360,168Z"/><circle cx="184" cy="448" r="16"/><circle cx="152" cy="56" r="8"/><path d="M184,64h40a8,8,0,0,0,0-16H184a8,8,0,0,0,0,16Z"/><path d="M376,128V112a8,8,0,0,0-16,0v16a8,8,0,0,0,16,0Z"/><path d="M440,232a8,8,0,0,0,8,8h16a8,8,0,0,0,0-16H448A8,8,0,0,0,440,232Z"/><path d="M442.343,138.343l-16,16a8,8,0,0,0,11.314,11.314l16-16a8,8,0,0,0-11.314-11.314Z"/><path d="M112,160h32a8,8,0,0,0,0-16H112a8,8,0,0,0,0,16Z"/><path d="M176,192H112a8,8,0,0,0,0,16h64a8,8,0,0,0,0-16Z"/><path d="M112,256h16a8,8,0,0,0,0-16H112a8,8,0,0,0,0,16Z"/><path d="M176,240H160a8,8,0,0,0,0,16h16a8,8,0,0,0,0-16Z"/><path d="M112,304h32a8,8,0,0,0,0-16H112a8,8,0,0,0,0,16Z"/><path d="M160,336H112a8,8,0,0,0,0,16h48a8,8,0,0,0,0-16Z"/><path d="M192,144H176a8,8,0,0,0,0,16h16a8,8,0,0,0,0-16Z"/></svg>
