<svg id="Filled" height="512" viewBox="0 0 512 512" width="512" xmlns="http://www.w3.org/2000/svg"><path d="m488 480h-464c0-128.13 103.87-232 232-232s232 103.87 232 232z" fill="#2d85cc"/><path d="m216 424-24 56h-168a231.71 231.71 0 0 1 96.99-188.69l23.01 76.69 32 32z" fill="#3dc285"/><path d="m398.37 296.81-46.37 23.19-16 24v40l-40 16-16 64v16h-256a231.9 231.9 0 0 1 113.66-199.59l30.34 7.59 24 40h32l32 24 32-32 16-48-17.62-22.03a230.9 230.9 0 0 1 111.99 46.84z" fill="none"/><path d="m304 272-16 48-32 32-32-24h-32l-24-40-30.34-7.59a230.923 230.923 0 0 1 118.34-32.41 234.183 234.183 0 0 1 30.38 1.97z" fill="#3dc285"/><path d="m488 480h-208v-16l16-64 40-16v-40l16-24 46.37-23.19a231.578 231.578 0 0 1 89.63 183.19z" fill="#3dc285"/><path d="m248.815 95.651 30.913 8.273 8.272-30.913-23.184-6.204z" fill="#3397e8"/><path d="m186.991 79.107-54.097-14.477 66.505-31.892 38.641 10.341z" fill="#3397e8"/><path d="m279.73 103.92-4.62 17.27a16.009 16.009 0 0 1 -17.65 11.72l-113.79-15.71-108.19-28.95a15.97 15.97 0 0 1 -11.32-19.59 85.831 85.831 0 0 1 3.49-10.48 2.34 2.34 0 0 1 .09-.24 50.11 50.11 0 0 1 8.17-13.66c.07-.09.15-.19.23-.28 9.05-10.29 23.39-15.56 46.79-9.3z" fill="#e1e3e6"/><path d="m186.447 112.087-54.097-14.476 41.688 60.845 38.641 10.34z" fill="#3397e8"/><circle cx="392" cy="416" fill="#eb423f" r="16"/><path d="m16.429 66.589a24 24 0 0 0 16.98 29.39l107.911 28.877 26.118 38.122a8.011 8.011 0 0 0 4.532 3.207l38.64 10.339a8 8 0 0 0 9.329-11.086l-14.639-31.656 51.074 7.048a23.993 23.993 0 0 0 26.464-17.57l4.621-17.268 8.273-30.912a8 8 0 0 0 -5.661-9.8l-23.184-6.2a8.008 8.008 0 0 0 -9.065 3.848l-11.522 20.758-34.65-12.186 31-21.88a8 8 0 0 0 -2.545-14.264l-38.637-10.346a8.016 8.016 0 0 0 -5.528.514l-48.507 23.262.068.144-61.913-21.78c-.192-.067-.389-.128-.586-.181-20.026-5.359-36.329-3.421-48.45 5.76-9.336 7.071-15.918 18.147-20.123 33.86zm162.536 84.9-26.251-38.315.245-1.771 27.8 7.44 17.488 37.8zm89.816-75.339 9.423 2.522-3.971 14.838-12.619-4.439zm-68.591-34.919 19.282 5.161-26.341 18.589-24.5-8.617zm-119.615 1.117 189.509 66.664-2.706 10.111a8.018 8.018 0 0 1 -8.82 5.857l-61.242-8.45-3.609-7.8a8 8 0 0 0 -5.192-4.371l-54.1-14.476a8 8 0 0 0 -8.668 12.25l1.674 2.442-89.875-24.054a8 8 0 0 1 -5.66-9.8c.732-2.736 1.544-5.272 2.432-7.63l15.091 4.038a8 8 0 1 0 4.137-15.457l-10.877-2.906c8.425-9.095 20.616-10.988 37.906-6.418z"/><path d="m465.756 357.729c14.1-22.284 21.244-46.072 21.244-70.7 0-38.181-17.191-74.371-49.716-104.655-31.388-29.225-74.195-50.391-123.793-61.208a7 7 0 0 0 -2.982 13.678c46.47 10.136 88.106 30.654 117.235 57.776 29.607 27.563 45.256 60.209 45.256 94.404 0 20.771-5.761 40.94-17.115 60.008a242.423 242.423 0 0 0 -30.18-36.737 240 240 0 0 0 -409.705 169.705 8 8 0 0 0 8 8h464a8 8 0 0 0 8-8 238.59 238.59 0 0 0 -31.9-119.737c.555-.843 1.118-1.684 1.656-2.534zm-209.756-101.729a227.764 227.764 0 0 1 26.167 1.516l12.867 16.084-14.026 42.08-25.759 25.758-26.449-19.838a8 8 0 0 0 -4.8-1.6h-27.471l-21.669-36.116a8 8 0 0 0 -4.33-3.474l-9.8-3.266a223.244 223.244 0 0 1 95.27-21.144zm-223.86 216a222.4 222.4 0 0 1 65.468-150.392 228.079 228.079 0 0 1 17.294-15.6l21.508 64.522a8.025 8.025 0 0 0 1.933 3.127l32 32a8.05 8.05 0 0 0 1.541 1.2l34.016 20.411-19.175 44.732zm239.86-8v8h-67.867l19.221-44.849a8 8 0 0 0 -3.238-10.011l-39.155-23.494-29.969-29.967-22.609-67.829q6.45-4.491 13.168-8.5l-.081.244 21.193 7.063 22.477 37.463a8 8 0 0 0 6.86 3.88h29.333l29.867 22.4a8 8 0 0 0 10.457-.743l32-32a8.025 8.025 0 0 0 1.933-3.127l16-48a8 8 0 0 0 -1.343-7.53l-4.363-5.454a221.356 221.356 0 0 1 77.225 33.954l-34.687 17.344a7.994 7.994 0 0 0 -3.078 2.717l-16 24a8.005 8.005 0 0 0 -1.344 4.439v34.584l-34.971 13.988a8 8 0 0 0 -4.79 5.488l-16 64a7.977 7.977 0 0 0 -.239 1.94zm207.86 8h-191.86v-7.016l14.769-59.076 36.2-14.48a8 8 0 0 0 5.031-7.428v-37.578l13.478-20.217 39.92-19.96a228.444 228.444 0 0 1 16.994 15.363 225.771 225.771 0 0 1 31.714 39.792 178.887 178.887 0 0 1 -38.506 36.38 23.974 23.974 0 1 0 7.532 11.82 196.4 196.4 0 0 0 38.515-35.216 222.468 222.468 0 0 1 26.213 97.616zm-79.86-56a8 8 0 1 1 -8-8 8.009 8.009 0 0 1 8 8z"/></svg>